<?xml version="1.0" encoding="utf-8"?>
<!-- Generator: Adobe Illustrator 21.0.0, SVG Export Plug-In . SVG Version: 6.00 Build 0)  -->
<svg version="1.1" id="Layer_1" xmlns="http://www.w3.org/2000/svg" xmlns:xlink="http://www.w3.org/1999/xlink" x="0px" y="0px"
	 viewBox="0 0 200 165.3" style="enable-background:new 0 0 200 165.3;" xml:space="preserve">
<style type="text/css">
	.st0{fill:#FFFFFF;}
	.st1{fill:#807A6E;}
</style>
<rect class="st0" width="200" height="165.3"/>
<g>
	<g>
		<path class="st1" d="M72.2,77.6c0,0.3,0,0.7,0,1.1c0,0.4,0,1.2,0.1,2c-1.1,0-2.5,0-3.6,0c-0.9,0-3,0-4.5,0v-0.3
			c1.1,0,1.3-0.2,1.3-1.3v-7.8c0-1.1-0.2-1.3-1.3-1.3v-0.3c1.5,0,3.6,0,4.5,0c1,0,2.3,0,3.3,0c-0.1,0.7-0.1,1.5-0.1,1.9
			c0,0.4,0,0.7,0,1h-0.4c-0.2-1.9-0.4-2.5-2.1-2.5h-1.3c-1.1,0-1.3,0.2-1.3,1.3V75h1c1.4,0,1.3-1.3,1.5-2.1h0.4
			c0,0.7-0.1,1.1-0.1,1.5c0,0.3,0,0.5,0,0.7c0,0.5,0,1,0.1,2.2h-0.4c-0.1-1-0.1-2.1-1.5-2.1h-1v3.8c0,1.1,0.2,1.3,1.3,1.3h1.1
			c2,0,2.3-0.7,2.6-2.8H72.2z"/>
		<path class="st1" d="M86,70c-1.1,0-1.3,0.2-1.3,1.3v7.8c0,1.1,0.2,1.3,1.3,1.3v0.3c-0.5,0-1.3,0-2,0c-0.8,0-1.6,0-2,0v-0.3
			c1.1,0,1.3-0.2,1.3-1.3v-8.4l-3.8,10.1h-0.3l-3.9-10.2v8.3c0,1.1,0.2,1.5,1.4,1.5v0.3c-0.4,0-1.1,0-1.6,0c-0.5,0-1.1,0-1.5,0v-0.3
			c1.1,0,1.3-0.4,1.3-1.5v-7.6c0-1.1-0.2-1.3-1.3-1.3v-0.3c0.3,0,0.9,0,1.5,0c0.5,0,1,0,1.3,0l3.4,9.1l3.4-9H84c0.7,0,1.5,0,2,0V70z
			"/>
		<path class="st1" d="M92.5,74.9c2.5,0.3,3.2,1.6,3.2,2.8c0,1.8-1.4,3-3.8,3c-0.5,0-1.4,0-2.7,0c-0.7,0-1.5,0-1.9,0v-0.3
			c1.1,0,1.3-0.2,1.3-1.3v-7.8c0-1.1-0.2-1.3-1.3-1.3v-0.3c0.4,0,1.2,0,1.9,0c1,0,2,0,2.4,0c2.2,0,3.3,1,3.3,2.5
			C94.9,73.2,94.3,74.3,92.5,74.9L92.5,74.9z M91.1,74.8c1.8,0,2.3-1.2,2.3-2.6c0-1.5-0.6-2.3-2.2-2.3c-1,0-1.2,0.3-1.2,1.3v3.5
			H91.1z M90.1,79.1c0,1.1,0.2,1.3,1.2,1.3c2,0,2.9-1,2.9-2.7c0-1.6-0.8-2.5-2.8-2.5h-1.3V79.1z"/>
		<path class="st1" d="M106.7,80c-0.4,0.6-0.8,1-1.7,1c-0.8,0-1.4-0.4-1.7-1.7l-0.3-1.6c-0.3-1.3-0.5-2.2-1.8-2.2h-1.5v3.6
			c0,1.1,0.2,1.3,1.3,1.3v0.3c-0.5,0-1.3,0-2,0c-0.8,0-1.6,0-2,0v-0.3c1.1,0,1.3-0.2,1.3-1.3v-7.8c0-1.1-0.2-1.3-1.3-1.3v-0.3
			c0.4,0,1.2,0,1.9,0c1,0,2,0,2.4,0c2.5,0,3.8,1.2,3.8,2.7c0,1.1-0.7,2.6-3,3l0.2,0c1.4,0.2,1.9,0.8,2.2,2.1l0.4,1.6
			c0.2,0.9,0.4,1.3,0.8,1.3c0.4,0,0.6-0.2,0.9-0.6L106.7,80z M100.8,75.2c2.2,0,2.7-1.2,2.7-2.6c0-1.6-0.7-2.6-2.6-2.6
			c-1,0-1.2,0.3-1.2,1.3v3.9H100.8z"/>
		<path class="st1" d="M115.3,79.4c0.3,0.8,0.8,1,1.1,1v0.3c-0.4,0-1.1,0-1.7,0c-0.8,0-1.6,0-2,0v-0.3c0.8,0,1.1-0.1,1.1-0.6
			c0-0.2-0.1-0.4-0.2-0.7l-1-2.6h-3.8l-0.6,1.7c-0.2,0.5-0.3,1-0.3,1.3c0,0.7,0.5,0.9,1.4,0.9v0.3c-0.6,0-1.3,0-1.8,0
			c-0.5,0-0.9,0-1.2,0v-0.3c0.4-0.1,0.9-0.4,1.2-1.4l3.7-9.5h0.3L115.3,79.4z M110.8,71.5l-1.8,4.7h3.5L110.8,71.5z"/>
		<path class="st1" d="M125.6,80.7c-0.1-0.6-0.2-0.9-0.4-0.9c-0.1,0-0.2,0-0.3,0.1c-0.8,0.5-1.6,1-2.9,1c-3,0-5-2.1-5-5.7
			c0-3.5,2.1-5.9,5-5.9c1.4,0,2.2,0.5,2.9,1c0.1,0.1,0.2,0.1,0.3,0.1c0.2,0,0.3-0.3,0.4-0.9h0.4c0,0.8-0.1,1.8-0.1,3.6h-0.4
			c-0.2-1.3-0.3-1.8-0.8-2.3c-0.7-0.8-1.7-1.2-2.8-1.2c-2,0-3.4,2.1-3.4,5.5c0,3.5,1.5,5.4,3.5,5.4c0.9,0,2.1-0.3,2.7-1.2
			c0.5-0.6,0.6-1.2,0.7-2.5h0.4c0,1.9,0,3,0.1,3.8H125.6z"/>
		<path class="st1" d="M135.7,77.6c0,0.3,0,0.7,0,1.1c0,0.4,0,1.2,0.1,2c-1.1,0-2.5,0-3.6,0c-0.9,0-3,0-4.5,0v-0.3
			c1.1,0,1.3-0.2,1.3-1.3v-7.8c0-1.1-0.2-1.3-1.3-1.3v-0.3c1.5,0,3.6,0,4.5,0c1,0,2.3,0,3.3,0c-0.1,0.7-0.1,1.5-0.1,1.9
			c0,0.4,0,0.7,0,1H135c-0.2-1.9-0.4-2.5-2.1-2.5h-1.3c-1.1,0-1.3,0.2-1.3,1.3V75h1c1.4,0,1.3-1.3,1.5-2.1h0.4
			c0,0.7-0.1,1.1-0.1,1.5c0,0.3,0,0.5,0,0.7c0,0.5,0,1,0.1,2.2h-0.4c-0.1-1-0.1-2.1-1.5-2.1h-1v3.8c0,1.1,0.2,1.3,1.3,1.3h1.1
			c2,0,2.3-0.7,2.6-2.8H135.7z"/>
	</g>
</g>
<g>
	<path class="st1" d="M53.5,90.3c0-0.3,0-0.8,0-1.3c0-0.4,0-1.2-0.1-2c1.3,0,3.1,0,4.4,0s3.1,0,4.4,0c-0.1,0.8-0.1,1.6-0.1,2
		c0,0.5,0,1,0,1.3h-0.4c-0.2-2.2-0.5-2.9-2.4-2.9h-0.8v8.9c0,1.3,0.3,1.5,1.6,1.5v0.3c-0.6,0-1.5,0-2.3,0c-0.9,0-1.8,0-2.3,0v-0.3
		c1.3,0,1.6-0.2,1.6-1.5v-8.9h-0.8c-2,0-2.2,0.7-2.4,2.9H53.5z"/>
	<path class="st1" d="M73.9,87.3c-1.1,0-1.3,0.2-1.3,1.3v7.8c0,1.1,0.2,1.3,1.3,1.3v0.3c-0.4,0-1.2,0-2,0c-0.7,0-1.5,0-2,0v-0.3
		c1.1,0,1.3-0.2,1.3-1.3v-3.8h-5.1v3.8c0,1.1,0.2,1.3,1.3,1.3v0.3c-0.5,0-1.3,0-2,0c-0.8,0-1.6,0-2,0v-0.3c1.1,0,1.3-0.2,1.3-1.3
		v-7.8c0-1.1-0.2-1.3-1.3-1.3V87c0.4,0,1.2,0,2,0c0.7,0,1.5,0,2,0v0.3c-1.1,0-1.3,0.2-1.3,1.3v3.7h5.1v-3.7c0-1.1-0.2-1.3-1.3-1.3
		V87c0.5,0,1.3,0,2,0c0.8,0,1.6,0,2,0V87.3z"/>
	<path class="st1" d="M83.3,95c0,0.3,0,0.7,0,1.1c0,0.4,0,1.2,0.1,2c-1.1,0-2.5,0-3.6,0c-0.9,0-3,0-4.5,0v-0.3
		c1.1,0,1.3-0.2,1.3-1.3v-7.8c0-1.1-0.2-1.3-1.3-1.3V87c1.5,0,3.6,0,4.5,0c1,0,2.3,0,3.3,0c-0.1,0.7-0.1,1.5-0.1,1.9
		c0,0.4,0,0.7,0,1h-0.4c-0.2-1.9-0.4-2.5-2.1-2.5h-1.3c-1.1,0-1.3,0.2-1.3,1.3v3.7h1c1.4,0,1.3-1.3,1.5-2.1h0.4
		c0,0.7-0.1,1.1-0.1,1.5c0,0.3,0,0.5,0,0.7c0,0.5,0,1,0.1,2.2h-0.4c-0.1-1-0.1-2.1-1.5-2.1h-1v3.8c0,1.1,0.2,1.3,1.3,1.3h1.1
		c2,0,2.3-0.7,2.6-2.8H83.3z"/>
	<path class="st1" d="M93.9,92.2c2.5,0.3,3.2,1.6,3.2,2.8c0,1.8-1.4,3-3.8,3c-0.5,0-1.4,0-2.7,0c-0.7,0-1.5,0-1.9,0v-0.3
		c1.1,0,1.3-0.2,1.3-1.3v-7.8c0-1.1-0.2-1.3-1.3-1.3V87c0.4,0,1.2,0,1.9,0c1,0,2,0,2.4,0c2.2,0,3.3,1,3.3,2.5
		C96.2,90.6,95.6,91.7,93.9,92.2L93.9,92.2z M92.4,92.2c1.8,0,2.3-1.2,2.3-2.6c0-1.5-0.6-2.3-2.2-2.3c-1,0-1.2,0.3-1.2,1.3v3.5H92.4
		z M91.4,96.4c0,1.1,0.2,1.3,1.2,1.3c2,0,2.9-1,2.9-2.7c0-1.6-0.8-2.5-2.8-2.5h-1.3V96.4z"/>
	<path class="st1" d="M102.3,87.3c-1.1,0-1.3,0.2-1.3,1.3v7.8c0,1.1,0.2,1.3,1.3,1.3v0.3c-0.5,0-1.3,0-2,0c-0.8,0-1.6,0-2,0v-0.3
		c1.1,0,1.3-0.2,1.3-1.3v-7.8c0-1.1-0.2-1.3-1.3-1.3V87c0.4,0,1.2,0,2,0c0.7,0,1.5,0,2,0V87.3z"/>
	<path class="st1" d="M112.2,98.1c0-0.4-0.2-0.9-0.4-0.9c-0.1,0-0.2,0-0.5,0.3c-0.7,0.5-1.4,0.8-2.4,0.8c-3.2,0-5.1-2.1-5.1-5.6
		c0-3.7,2.1-6,5-6c1.4,0,2.1,0.5,2.8,1c0.1,0.1,0.2,0.2,0.3,0.2c0.2,0,0.3-0.3,0.4-1h0.4c0,0.8-0.1,1.8-0.1,3.6h-0.4
		c-0.1-0.9-0.3-1.7-0.8-2.3c-0.6-0.8-1.7-1.2-2.7-1.2c-2.1,0-3.4,2.1-3.4,5.5c0,3.8,1.2,5.4,3.7,5.4c0.8,0,1.3-0.3,1.6-0.5
		c0.4-0.3,0.5-0.5,0.5-0.9v-1.5c0-1.3-0.3-1.5-1.6-1.5v-0.3c0.6,0,1.5,0.1,2.2,0.1c0.7,0,1.3,0,1.6-0.1v0.3
		c-0.7,0.1-0.8,0.2-0.8,1.3v3.1H112.2z"/>
	<path class="st1" d="M118.4,87c0.4,0,0.9,0.1,1.5,0.1c0.1,0,0.3,0,0.4,0c0.7,0,1.8,0,2.4,0c3.7,0,5.5,1.9,5.5,5.4
		c0,3.4-2.1,5.7-5.7,5.7c-0.5,0-1.5,0-2.2,0c-0.7,0-1.5,0-1.9,0v-0.3c1.1,0,1.3-0.2,1.3-1.3v-7.8c0-1.1-0.2-1.3-1.3-1.3V87z
		 M121.1,96.5c0,1.1,0.2,1.3,1.2,1.3c3.4,0,4.3-1.9,4.3-5.3c0-3.5-1.1-5.2-4.3-5.2c-1,0-1.2,0.3-1.2,1.3V96.5z"/>
	<path class="st1" d="M137.6,96.8c0.3,0.8,0.8,1,1.1,1v0.3c-0.4,0-1.1,0-1.7,0c-0.8,0-1.6,0-2,0v-0.3c0.8,0,1.1-0.1,1.1-0.6
		c0-0.2-0.1-0.4-0.2-0.7l-1-2.6h-3.8l-0.6,1.7c-0.2,0.5-0.3,1-0.3,1.3c0,0.7,0.5,0.9,1.4,0.9v0.3c-0.6,0-1.3,0-1.8,0
		c-0.5,0-0.9,0-1.2,0v-0.3c0.4-0.1,0.9-0.4,1.2-1.4l3.7-9.5h0.3L137.6,96.8z M133.1,88.9l-1.8,4.7h3.5L133.1,88.9z"/>
	<path class="st1" d="M144,87c0.6,0,1.3,0,1.8,0c0.5,0,0.9,0,1.2,0v0.3c-0.4,0.1-0.8,0.5-1.3,1.4l-2.5,4.9v2.9
		c0,1.1,0.2,1.3,1.3,1.3v0.3c-0.5,0-1.3,0-2,0c-0.8,0-1.6,0-2,0v-0.3c1.1,0,1.3-0.2,1.3-1.3v-2.4l-3.2-5.9c-0.4-0.8-0.7-0.9-0.9-0.9
		V87c0.4,0,0.8,0,1.4,0c0.7,0,1.5,0,2.2,0v0.3c-0.6,0-1.1,0.1-1.1,0.6c0,0.1,0,0.3,0.2,0.5l2.6,5l2-4c0.3-0.6,0.4-1,0.4-1.3
		c0-0.6-0.5-0.8-1.4-0.8V87z"/>
</g>
<g>
	<path class="st1" d="M84.5,147.8H14.3V17.5h70.3v-1H13.7c-0.3,0-0.5,0.2-0.5,0.5v131.3c0,0.3,0.2,0.5,0.5,0.5h70.8V147.8z"/>
	<path class="st1" d="M185.9,16.5h-70.4v1h69.9v130.3h-69.9v1h70.4c0.3,0,0.5-0.2,0.5-0.5V17C186.5,16.7,186.2,16.5,185.9,16.5z"/>
</g>
<path class="st1" d="M100,148.8c-0.2,0-0.4-0.1-0.6-0.2l-6.3-6.3c-0.3-0.3-0.3-0.8,0-1.2c0.3-0.3,0.8-0.3,1.2,0l5.7,5.7l5.7-5.7
	c0.3-0.3,0.8-0.3,1.2,0c0.3,0.3,0.3,0.8,0,1.2l-6.3,6.3C100.4,148.8,100.2,148.8,100,148.8z"/>
<g>
	<path class="st1" d="M125.8,64.6c-2.6,0-5.1-1.9-7.7-3.9c-2.8-2.1-5.7-4.3-8.9-4.3c-2.9,0-4.4,2-4.4,4c0,0.9,0.3,1.7,0.9,2.3
		c0.6,0.7,1.6,1,2.7,1c1.2,0,2.2-0.6,2.6-1.6c0.4-0.9,0.3-1.9-0.3-2.5c-0.2-0.2-0.2-0.5,0-0.6c0.2-0.2,0.5-0.2,0.6,0
		c0.8,0.9,1,2.3,0.5,3.5c-0.6,1.3-1.9,2.1-3.4,2.1c-1.4,0-2.5-0.4-3.4-1.3c-0.7-0.8-1.1-1.8-1.1-2.9c0-2.4,1.8-4.9,5.3-4.9
		c3.5,0,6.5,2.3,9.4,4.5c2.5,1.9,4.9,3.7,7.2,3.7c1.2,0,3.3-0.4,3.3-2.9c0-1.1-0.6-2.1-1.5-2.4c-0.9-0.4-1.9-0.1-2.6,0.6
		c-0.2,0.2-0.4,0.2-0.6,0c-0.2-0.2-0.2-0.4,0-0.6c1-1,2.3-1.4,3.6-0.9c1.3,0.5,2.1,1.8,2.1,3.3C130,63.2,128.4,64.6,125.8,64.6z"/>
	<path class="st1" d="M91.6,64.6c-1.5,0-2.8-0.8-3.4-2.1c-0.5-1.2-0.4-2.6,0.5-3.5c0.2-0.2,0.4-0.2,0.6,0c0.2,0.2,0.2,0.4,0,0.6
		c-0.6,0.6-0.7,1.6-0.3,2.5c0.4,1,1.4,1.6,2.6,1.6c1.1,0,2.1-0.4,2.7-1c0.6-0.6,0.9-1.4,0.9-2.3c0-2-1.5-4-4.4-4
		c-3.2,0-6.1,2.2-8.9,4.3c-2.6,2-5.1,3.9-7.7,3.9c-2.6,0-4.1-1.4-4.1-3.8c0-1.5,0.8-2.7,2.1-3.3c1.2-0.5,2.6-0.2,3.6,0.9
		c0.2,0.2,0.2,0.5,0,0.6c-0.2,0.2-0.5,0.2-0.6,0c-0.7-0.8-1.7-1-2.6-0.6c-0.9,0.4-1.5,1.3-1.5,2.4c0,2.5,2,2.9,3.3,2.9
		c2.3,0,4.7-1.8,7.2-3.7c2.9-2.2,5.9-4.5,9.4-4.5c3.4,0,5.3,2.5,5.3,4.9c0,1.1-0.4,2.1-1.1,2.9C94.1,64.1,92.9,64.6,91.6,64.6z"/>
	<path class="st1" d="M100,60.5c-1.2,0-1.6-0.7-2-3c-0.4-2.2-1.1-3.2-3.5-4.8c-0.1-0.1-0.2-0.2-0.2-0.4s0.1-0.3,0.3-0.4
		c0.8-0.4,2-0.6,3-0.3c0.3-3,1.1-4,2.1-5c0.2-0.2,0.5-0.2,0.6,0c1.1,1.1,1.8,2,2.1,5c1-0.4,2.2-0.1,3,0.3c0.1,0.1,0.2,0.2,0.3,0.4
		s-0.1,0.3-0.2,0.4c-2.4,1.6-3.1,2.7-3.5,4.8C101.6,59.8,101.2,60.5,100,60.5z M95.7,52.4c2,1.5,2.8,2.8,3.2,4.9
		c0.4,2.3,0.7,2.3,1.1,2.3s0.7,0,1.1-2.3c0.4-2.1,1.1-3.4,3.2-4.9c-0.6-0.1-1.4-0.2-1.9,0.3c-0.1,0.1-0.3,0.1-0.4,0.1
		c-0.1-0.1-0.3-0.2-0.3-0.4c-0.3-3.1-0.9-4.1-1.6-4.8c-0.7,0.8-1.4,1.7-1.6,4.8c0,0.2-0.1,0.3-0.3,0.4c-0.1,0.1-0.3,0-0.4-0.1
		C97.1,52.2,96.4,52.3,95.7,52.4z"/>
</g>
<g>
	<path class="st1" d="M90.8,112.6c-3.5,0-6.5-2.3-9.4-4.5c-2.5-1.9-4.9-3.7-7.2-3.7c-1.2,0-3.3,0.4-3.3,2.9c0,1.1,0.6,2.1,1.5,2.4
		c0.9,0.4,1.9,0.1,2.6-0.6c0.2-0.2,0.4-0.2,0.6,0c0.2,0.2,0.2,0.4,0,0.6c-1,1-2.3,1.4-3.6,0.9c-1.3-0.5-2.1-1.8-2.1-3.3
		c0-2.4,1.5-3.8,4.1-3.8c2.6,0,5.1,1.9,7.7,3.9c2.8,2.1,5.7,4.3,8.9,4.3c2.9,0,4.4-2,4.4-4c0-0.9-0.3-1.7-0.9-2.3
		c-0.6-0.7-1.6-1-2.7-1c-1.2,0-2.2,0.6-2.6,1.6c-0.4,0.9-0.3,1.9,0.3,2.5c0.2,0.2,0.2,0.5,0,0.6c-0.2,0.2-0.5,0.2-0.6,0
		c-0.8-0.9-1-2.3-0.5-3.5c0.6-1.3,1.9-2.1,3.4-2.1c1.4,0,2.5,0.4,3.4,1.3c0.7,0.8,1.1,1.8,1.1,2.9C96,110.1,94.2,112.6,90.8,112.6z"
		/>
	<path class="st1" d="M109.2,112.6c-3.4,0-5.3-2.5-5.3-4.9c0-1.1,0.4-2.1,1.1-2.9c0.8-0.8,2-1.3,3.4-1.3c1.5,0,2.8,0.8,3.4,2.1
		c0.5,1.2,0.4,2.6-0.5,3.5c-0.2,0.2-0.4,0.2-0.6,0c-0.2-0.2-0.2-0.4,0-0.6c0.6-0.6,0.7-1.6,0.3-2.5c-0.4-1-1.4-1.6-2.6-1.6
		c-1.1,0-2.1,0.4-2.7,1c-0.6,0.6-0.9,1.4-0.9,2.3c0,2,1.5,4,4.4,4c3.2,0,6.1-2.2,8.9-4.3c2.6-2,5.1-3.9,7.7-3.9
		c2.6,0,4.1,1.4,4.1,3.8c0,1.5-0.8,2.7-2.1,3.3c-1.3,0.5-2.6,0.2-3.6-0.9c-0.2-0.2-0.2-0.5,0-0.6c0.2-0.2,0.5-0.2,0.6,0
		c0.7,0.8,1.7,1,2.6,0.6c0.9-0.4,1.5-1.3,1.5-2.4c0-2.5-2-2.9-3.3-2.9c-2.3,0-4.7,1.8-7.2,3.7C115.7,110.4,112.7,112.6,109.2,112.6z
		"/>
	<path class="st1" d="M100,121.7c-0.1,0-0.2,0-0.3-0.1c-1.1-1.1-1.8-2-2.1-5c-1,0.4-2.2,0.1-3-0.3c-0.1-0.1-0.2-0.2-0.3-0.4
		s0.1-0.3,0.2-0.4c2.4-1.6,3.1-2.7,3.5-4.8c0.4-2.4,0.8-3,2-3s1.6,0.7,2,3c0.4,2.2,1.1,3.2,3.5,4.8c0.1,0.1,0.2,0.2,0.2,0.4
		s-0.1,0.3-0.3,0.4c-0.8,0.4-2,0.6-3,0.3c-0.3,3-1.1,4-2.1,5C100.2,121.7,100.1,121.7,100,121.7z M97.9,115.4c0.1,0,0.1,0,0.2,0
		c0.1,0.1,0.3,0.2,0.3,0.4c0.3,3.1,0.9,4.1,1.6,4.8c0.7-0.8,1.4-1.7,1.6-4.8c0-0.2,0.1-0.3,0.3-0.4c0.1-0.1,0.3,0,0.4,0.1
		c0.5,0.4,1.3,0.4,1.9,0.3c-2-1.5-2.8-2.8-3.2-4.9c-0.4-2.3-0.7-2.3-1.1-2.3s-0.7,0-1.1,2.3c-0.4,2.1-1.1,3.4-3.2,4.9
		c0.6,0.1,1.4,0.2,1.9-0.3C97.7,115.5,97.8,115.4,97.9,115.4z"/>
</g>
</svg>
