<?xml version="1.0" encoding="utf-8"?>
<!-- Generator: Adobe Illustrator 21.0.0, SVG Export Plug-In . SVG Version: 6.00 Build 0)  -->
<svg version="1.1" id="Layer_1" xmlns="http://www.w3.org/2000/svg" xmlns:xlink="http://www.w3.org/1999/xlink" x="0px" y="0px"
	 viewBox="0 0 135.5 20" style="enable-background:new 0 0 135.5 20;" xml:space="preserve">
<style type="text/css">
	.st0{fill:#807A6E;}
</style>
<g>
	<g>
		<path class="st0" d="M37.4,9.3H0.7C0.3,9.3,0,9.6,0,10s0.3,0.7,0.7,0.7h36.7V9.3z"/>
		<path class="st0" d="M134.7,9.3H98.1v1.5h36.7c0.4,0,0.7-0.3,0.7-0.7S135.2,9.3,134.7,9.3z"/>
	</g>
	<path class="st0" d="M72,0c-2.6,0-4.6,1.8-4.6,4.5c0-2.7-2-4.5-4.6-4.5c-3.1,0-6,1.9-6,6.1S61.5,17.4,67.5,20
		c6-2.6,10.6-9.5,10.6-13.8S75.1,0,72,0z"/>
</g>
</svg>
