<?xml version="1.0" encoding="utf-8"?>
<!-- Generator: Adobe Illustrator 21.0.0, SVG Export Plug-In . SVG Version: 6.00 Build 0)  -->
<svg version="1.1" id="Layer_1" xmlns="http://www.w3.org/2000/svg" xmlns:xlink="http://www.w3.org/1999/xlink" x="0px" y="0px"
	 viewBox="0 0 1266 1000" style="enable-background:new 0 0 1266 1000;" xml:space="preserve">
<style type="text/css">
	.st0{fill:#5CAFFF;}
	.st1{fill:#457FFF;}
</style>
<rect y="0" class="st0" width="1266" height="1000"/>
<g>
	<path class="st1" d="M171.3,79.4c0.4,6.4-0.9,12.3-3.5,18.2c-5.2,11.8-9.3,23.3-8.1,36.5c1.3,14.4,7.3,25.6,17.7,35.5
		c3.7,3.5,7.3,5.9,11.5,7.8c-4-5.6-6.9-11.9-8.2-18.3c-2.2-11-1.2-22.2,0.1-33.2c1.2-11.2,3.2-23,1.2-34.1c-2-11.1-7.8-19-16.4-25.2
		C168,70.7,171,74.3,171.3,79.4z"/>
	<path class="st1" d="M103.7,87.7c1.5,15.3,2.3,29.9,6.9,44.8c4.5,14.6,10.7,31.6,22.8,41.7c9.5,7.9,22.8,9.5,34.7,7.1
		c0.1,0,0.2-0.1,0.4-0.1c-20.9-6.9-36.1-28-40.8-49.1c-3.3-15-5.1-30.5-11.6-44.6c-3.3-7.3-7.4-14.2-12.6-20.3
		c-2.1-2.3-6.2-6.7-10.2-9.3C100.4,65.8,102.6,77,103.7,87.7z"/>
	<path class="st1" d="M98.4,219.8c-4.3,3.2-8.3,6.2-10,12.4c-2.4,8.4-1.7,16,2.7,23.6c4.8,8.4,10.7,16.1,11.2,25.1
		c2-4.2,3.2-8.7,2.7-13c-1-9.7-5.8-18.1-8.2-27.4c-1.4-5.5-3.4-14.3,0.5-19.4C97.7,220.5,98,220.1,98.4,219.8z"/>
	<path class="st1" d="M126.8,211.6c-0.2,0.4-0.4,0.8-0.6,1.2c-3.1,6.7-5.1,14-4.8,21.5c0.5,11.9,6.6,21,10.1,32
		c3.1,9.7,2.8,18.6-1.9,27.7c-2.3,4.6-5.1,9.9-9.1,13.7c11.9-6.7,23.1-17.6,24.1-31.7c1.1-15.3-5.2-28.1-11.4-41.6
		C130.7,228.9,127.3,219.8,126.8,211.6z"/>
	<path class="st1" d="M226.7,413.1c-7.5,19.6,0.7,44.9,14.4,59.8c5.5,6,12.7,10.7,19.4,15.2c4.6,3.1,10.5,6.7,14.3,11.4
		c2.2,2.7,3.7,5.8,3.9,9.4c-8.1-2.5-10.5,9.2-2,13.4c3.7,1.9,11.4,1.1,14.3-2.3c6.3-7.3,4.3-13.4,2.5-20.4c0-0.1,0-0.1,0-0.1
		c-3.8-15.2-20-22.9-32.6-29.9c-9.1-5.1-17.8-10.5-23.9-19.2C228,437.7,227.4,411.3,226.7,413.1z"/>
	<path class="st1" d="M485.8,509.7c0.1,5.9-1.7,11.7-5.9,16.3c-7.7,8.5-19.6,6.2-28.5,0.5c-11.4-7.3-17.4-17.1-25.3-27.1
		c-0.9-1.2-1.8-2.3-2.8-3.5c-8.7-10.3-19.2-20.5-32.6-16.9c6.6,5.6,11.5,13.1,16.1,20.5c0.5,0.8,1,1.6,1.4,2.3
		c10.2,16.7,22.3,35.3,41.6,42c11.7,4.1,23.3,1.9,31.7-7.8c5.3-6.2,10.1-14,6.4-22.4C487.3,512.2,486.6,510.9,485.8,509.7z"/>
	<path class="st1" d="M439.8,490.2c1.4,3,2.5,6.2,3.7,9.3c0.7,1.7,1.4,3.4,2.2,4.9c4.6,8.7,14.9,12.1,23.4,8
		c-5.9-2.2-9.6-5.7-12.7-12.9c-0.1-0.3-0.2-0.6-0.4-0.9c-3.4-8.4-6.5-17.5-15.2-21.9c-5.4-2.7-10.6-2.7-16-1.7
		C431.6,476.7,437,484.5,439.8,490.2z"/>
	<path class="st1" d="M173.6,336.3c-10.2-3.7-20.6-3.5-29.6,2.5c-2.7,1.8-4.7,3.6-6.2,5.4c8.5-4.6,20-6.3,28.6-3.6
		c15.3,4.8,26,22.3,30.6,34.2c5.3,13.6,6.5,32.8-9,42.8c-5.9,3.9-16.4,7.7-24.2,5.9c6.5,3.2,15.9,4.3,21.4,3
		c10.2-2.4,18.8-8.4,22.9-16.5c6.4-12.6,4.2-27.8-1.4-40.4C200.9,356.3,190.4,342.3,173.6,336.3z"/>
	<path class="st1" d="M163,407.3c3.9,1.2,10.2-1.6,12.4-3.4c3.1-2.6,4.7-6.1,4.4-10.3c-0.7-9.1-9.6-13.5-18-12.8
		c-15.2,1.2-25,15.6-25.6,30.1c-0.5,14.6,6.2,31.4,20.3,37.7c10.4,4.7,22,3.1,30.8-4.4c2.7-2.4,5-4.8,7-7.5
		c-10.1,5.8-22.9,7.1-32.9,0.8c-10.7-6.8-19.6-19.2-17.9-32.5c0.8-6.4,10-21.7,18.6-16C167.8,392.7,169.8,405.2,163,407.3z"/>
	<path class="st1" d="M227.5,338.7c-6.4-2.7-12.8-3.1-19.6-1.5c-1.6,0.4-3,0.7-4.5,0.9c20.1,6.5,27.1,34.2,37.2,49.9
		c8.6,13.5,23.4,28.7,40.5,29.9c9.9,0.7,17.3-3.3,23.9-10.4c1-1,1.9-2.2,2.8-3.3c-3.2,0.8-6.1,1.2-8.4,1.3
		c-11.8,0.6-21.5-5.2-28.7-14.3c-8.8-11-14.2-24.2-22.9-35.3C242.6,349.3,235.4,342,227.5,338.7z"/>
	<path class="st1" d="M335.7,427.7c18.4,10,30.4,28.9,48.5,39.6c9.5,5.7,21.5,9.9,31.8,3.2c10.3-6.6,15.7-17.8,10.5-29.7
		c-2.8-6.4-8.3-12.2-15.8-12.3c-3.9-0.1-7.2,1.5-8.1,5.5c-1.3,5.6,1.7,15.3,9.1,12.2c1.3-0.6,4.7,0.4,3.6,2.4
		c-10.7,20.6-36,8.4-49.2-3c-10.5-9.1-21.1-22.2-35.3-25.2c-8.7-1.7-20.7-2.4-28.2,3.1C312.9,420,328.4,423.8,335.7,427.7z"/>
	<path class="st1" d="M299,351.5c-11.2-7.6-21,6.4-19.5,15.4c2.3,13.3,21.1,23.4,33.6,16.7c9.4-5.1,14.8-16.3,13.6-26.9
		c-2.1-19-17.6-34.3-15.8-54.1c0.5-5.4,3.6-11.5,7.9-15.6c-3.7,0.2-7.2,1.5-10.2,4.6c-4.8,5-7.8,11.5-8.8,18.3
		c-1.2,8.5,0.1,18.1,4.8,25.4c3.7,5.7,8.1,10.9,11.4,16.9c4.1,7.4,4.4,19.8-4.8,23.6c-6.8,2.9-11.2,1.9-15.8-3.5
		c-1.8-2.1-0.8-4.3-0.8-4.3C303,366.5,306.2,356.3,299,351.5z"/>
	<path class="st1" d="M246.6,336.7c3.2,3,5.7,7.1,7.1,10.9c3.5,9.3,7.7,15.4,13.8,21.1c-1.9-3.5-2.6-7.7-3-12
		c-0.6-6-1.1-12.7-6.1-16.9C254.5,336.6,250.6,336.5,246.6,336.7z"/>
	<path class="st1" d="M100.5,355.4c16.5-15.3,34-30.8,56.5-35.8c19.8-4.4,43.8-5.7,55-25.6c6.8-12,6.3-27.8,0.2-40
		c-5.2-10.5-14.2-18.4-27.5-18.8c-11.5-0.4-26,9.4-26,23.1c0,6,0,14.5,11.9,20.1c3.5,1.7,11.3,1.4,13.9-1.6c6.1-7.2,3-16.2-4-16.2
		c-5.4,0-6.4,3-6.5,2.1c-0.6-11.3,10.8-20.8,21-12.6c11,8.8,7.8,26-1.7,34.5c-11.9,10.6-27.2,14.6-41.4,21
		C103.6,327.1,100.6,353.6,100.5,355.4z"/>
	<path class="st1" d="M185.3,190.4c-11.1-0.5-22.4,4.7-28.6,14.1c-5.7,8.6-6.4,17.7-3.6,26.7c3.7-14.7,20-24.5,34.8-23.2
		c14.2,1.2,25.6,14.8,31.4,28.2c0.5-8.3-0.4-16.7-4.5-24C209,202.1,197.7,191,185.3,190.4z"/>
	<path class="st1" d="M256.2,196.1c-2.6,1.3-5.1,2.6-7.2,4.8c-3.9,4.2-6.7,8.8-8.7,14.3c-4.1,11.1-6,21.5-5.4,33.4
		c0.7,16.1,0.4,31.3-7.9,44.4c6.4-3.2,12-6.8,14.9-15.2c4.7-13.5,2.5-27.3,3.5-41.3C246.1,225.1,248.8,207.8,256.2,196.1z"/>
	<path class="st1" d="M257,299.9c7.7-9.1,10.1-17.1,11.3-28.2c1-9.6,0.6-22.9,2.2-32.4c2.2-13.8,9.7-28.6,22.6-32.7
		c7-2.2,12.7-1.3,17.4,2c-6.4-9.3-19.3-16.2-31.5-9.9c-8.9,4.6-14,12.2-17.5,19.1c-8.7,17-4.4,38.5-8.6,53.8
		c-4.1,14.9-11.3,25.2-23.2,35c-3.5,2.9-22.3,15.9-34.4,19.7C231.1,330.8,250,308.1,257,299.9z"/>
	<path class="st1" d="M312.3,265c-19.5,5.8-30.4,27.1-41.2,42.7c-5.3,7.7-12.1,16.6-20.7,20.7c9,3.7,16.7-0.5,23.7-6.3
		c9.3-7.6,16.5-16.6,23.2-26.4c8.3-12.2,24.3-32.5,40.8-19.9c5.5,4.2,11.4,11.4,10.2,19c-0.5,3-2.5,12.3-7.7,10.3
		c-4.1-1.6-5.9-6.7-4.5-9.9c-10.3,0.7-11.9,9.4-10.9,13.5c2.7,11.6,16.2,11.2,22,3.7c2.6-3.3,4.7-7,6-11.1c3.2-10.5,1-22.7-7.7-30.3
		C336.2,263.1,323.2,261.7,312.3,265z"/>
	<path class="st1" d="M285.5,161.6c-10.2,0.5-19,4.4-26.4,10.2c4-2,8.2-3.4,12.8-4.2c17.4-3.1,34.2-0.9,46.5,12.7
		c10.6,11.7,17.6,27.1,14.7,43c-2.6,14.1-15.5,20.3-28.6,17.1c0,0,10.6-5.2,3.6-15c-2.5-3.4-9-4.3-13-1.8c-5.3,3.4-8.6,10.8-7,17.1
		c4.4,17,28,15.8,37.9,5.4c13.7-14.4,19.6-34.5,10.7-53.1C327.5,173.7,307.2,160.5,285.5,161.6z"/>
	<path class="st1" d="M231.4,155.4c-9.1,9.8-11.5,22.7-10,35.7c0.6,4.5,1.5,8.9,2.8,13.3c-0.1-1.8-0.1-3.5-0.1-5
		c0.3-8.8,3.4-16.6,9.7-22.9c6.2-6.1,13.7-10.9,19.3-17.4c8-9.3,7.8-18.4,6.4-28.4C255.1,141.8,240,146.2,231.4,155.4z"/>
	<path class="st1" d="M267.6,33.7c-2.4-1.1-4.8-1.8-7.2-2.4c11.7,15.4,5.1,43.1-6.6,56.7c-11.5,13.3-26.7,24.5-35.2,40.1
		c-4.6,8.4-7.2,17.4-8.3,27c-0.6,5.4-1.3,11.2-0.3,16.6c0.9-7.7,3.7-15.7,5.7-21.4c5.8-15.8,16.3-28,30.3-37.2
		c16-10.5,37-18.6,39.2-40.5C286.5,59.6,280.9,39.6,267.6,33.7z"/>
	<path class="st1" d="M234,37.9c7.3,3.5,13.8,9.2,16.7,17.4c1.3,3.5,2.4,10.8,1.8,17.2c2.1-2.8,3.7-6,4.3-10.1
		c1.6-12.3-5.9-22.8-14.9-29.6c-6.5-4.8-14.3-8.3-19-15.4c-2.2-3.2-3.9-6.7-5.4-10.4c-1.1,6.5-0.1,12.6,2.5,18.7
		C223.3,33.4,227.7,34.9,234,37.9z"/>
	<path class="st1" d="M193.9,57.9c-1.5,8.6,0,19.8,16.6,19.3c7.5-0.2,14.5-11.6,5.7-17.7c-3.6-2.5-6.9-1.6-6.9-1.6
		c3.8-7.7,14.6-6.3,19.6,0c6.5,8.4,2.9,20.1-2.4,28c-8.7,13-22,22.1-28.1,37c-3.2,7.8-6.5,17.3-6.3,25.9c0.3,11.4,5.1,21.1,9.8,31.1
		c-5.4-19.3-5.4-42.4,5.4-59.5c10.3-16.2,28.3-28.8,28.9-49.5c0.3-10.5-2.8-24.4-14.6-27.6C210.1,40.2,195.9,46.6,193.9,57.9z"/>
	<path class="st1" d="M281.4,130.3c1.7,6.5,5.1,13.2,11.6,16.1c4,1.8,8.2,2.6,12.4,3.6c-12-13.6-18.9-33.9-16.2-51.9
		C283.1,107.9,278.2,118.1,281.4,130.3z"/>
	<path class="st1" d="M321,57.7c-7.8,12.8-18.3,23.8-18.5,39.8c-0.1,15.1,5.2,29.4,13.1,42.1c-3.5-10.6-4.9-21.4-0.5-31.1
		c5.1-11.2,15.1-20.4,15.8-33.3c0.6-10.8-2.6-20.9-5.8-31.1c0.2,0.5,0.1,1,0.1,1.5C324.9,49.9,323.3,54,321,57.7z"/>
	<path class="st1" d="M342.3,246.5c3.8,0.3,7.6,0.7,11.3,0.4c9.6-0.9,16.8-8.6,21.7-16.4c9.2-14.4,9-27.8,5-43.9
		c-4.1-16.6-2.1-32.4,1-49c1-5.5,2.5-10.2,4.6-14.3c-5.6,1.2-11.3,2-15.9,6.1c-5,4.5-9.1,9.7-11.7,16c-5.7,13.9-6.5,28-5.2,42.8
		c1.2,13.1,3.5,27.3-0.4,40.2C350.7,235.3,347,241.3,342.3,246.5z"/>
	<path class="st1" d="M424.3,100.6c-10.4,5.7-19.5,14.2-24,25.4c-4.8,12-5.4,24.1-3.8,36.8c0.6,4.9,2.7,10.4,3,15.5
		c1-0.5,2.1-1.1,3-1.8c5.3-3.5,9.2-8.6,11.7-14.5c4.8-11,5.8-23.1,10.2-34.2c3.2-8,7.9-15,14.6-20.5c4.7-3.8,9.1-6.1,13.9-7.7
		c-1.7-0.4-3.5-0.9-5.3-1.4C439.8,95.8,431.7,96.5,424.3,100.6z"/>
	<path class="st1" d="M377.8,242.6c0,0,12.5,2.3,25.7-12.1c12.8-13.9,10.7-39.8,16.5-49.1c4.3-6.7,10.3-10.9,16.2-14.7
		c-10,1.2-19.2,4.4-24.3,11.5c-6.3,8.7-8.2,17.5-10.8,27.7C395.8,226.6,386.8,234.2,377.8,242.6z"/>
	<path class="st1" d="M332.3,367.2c0.4,9.9,4.7,21.6,12.1,28.4c4,3.8,8.5,5.8,13.3,7.3c-5.2-9.6-8.5-21.2-6.9-30.9
		c2.4-14.5,13.6-23.1,22.4-33.9c12.1-14.8,15.2-34.2,7.7-51.8c-2.8-6.5-6.4-13.7-11.8-18.5c-3.1-2.8-5.9-4.1-8.9-4.7
		c7.1,5.6,10.9,14.3,12.3,23.7c2.1,14.5-0.4,26.3-11,36.8C349.2,335.8,331.6,347.5,332.3,367.2z"/>
	<path class="st1" d="M387.2,276.1c12.6,16.7,22,36.4,8,55.5c-5.6,7.7-14.6,16.1-15.4,26.1c-1,11.8,6.4,21.4,17.1,23.7
		c-0.7-1.2-1.3-2.5-1.7-3.6c-4-10-4.9-18.8,0.2-28.7c7.2-13.9,15.7-25.2,14.3-41.8C408.7,293.8,401,279.4,387.2,276.1z"/>
	<path class="st1" d="M455.5,283.4c-3.2-3.6-7.3-8.1-12.4-8.8c-2.4-0.3-4.4,0-6.2,0.8c0,0.1-0.1,0.2-0.2,0.3c-1.4,1,1.4,0.4,3,1.6
		c2.5,1.9,5,3.9,7,6.3c4.1,4.9,7.1,10.1,9.2,16.1c3.5,9.9,3.2,20.9,1,31.1c9-5.7,8.7-20.8,6.8-30.2
		C462.3,294.4,459.8,288.3,455.5,283.4z"/>
	<path class="st1" d="M384.8,399c-5.2-1.4-10.6-9.2-11.1-14.9c-1.2,0.4-2.2,0.8-2.6,1.2c-4.6,5.2-6.5,13.8-1.8,19.7
		c6.1,7.6,17.2,11.7,26.9,11.6c19.4-0.3,33.4-14.1,40.6-31.1c13.7-32.3,15.4-86.2-22.7-101.7c3.3,5.3,7.4,10.1,9.7,16.2
		c4,10.8,7,22.5,7.5,34.1c0.6,15.4-0.7,32.5-8.5,46.1C415.3,393.4,400.5,403.2,384.8,399z"/>
	<path class="st1" d="M455.3,382c-12.1,16.5-15.4,33.2-13.3,52.2c1.3-13.2,10.8-23.2,21.1-32.7c7.6-7,14.2-14.7,15.7-25.4
		c1.2-9.3,0.1-18.5,0-27.7C474.6,361.5,463.3,371,455.3,382z"/>
	<path class="st1" d="M491.5,418.5c-0.1,0-0.2-0.1-0.3-0.1c-6.4-2.8-11.4-6.5-18.8-5.3c-10.9,1.7-18.5,9.3-21.6,19.3
		c2.8-3.4,6.6-5.7,11.3-6.3c5.9-0.7,15.7,2.3,20.9-0.2C487.2,423.8,489.5,421.4,491.5,418.5z"/>
	<path class="st1" d="M468,441.9c-6.9,3.2-11.6,7.1-16.3,13c-3.2,3.8-6.6,8.1-10.7,10.6c7.8,0.4,14.6-1,21.8-6.9
		c4.5-3.7,9.2-7.4,14.2-10.3c3.6-2,7.7-4,11.8-5C482.4,440.1,476.1,438.1,468,441.9z"/>
	<path class="st1" d="M532.1,414.4c7-0.4,8-5.8,8.8-6.3c-1.9-0.5-6.3-1.2-10.2-3.3c-8-4.2-9.5-8.1-14.3-12.1
		c-7.2-5.9-16.7,0.6-22.6,6.1c9.1-2.6,14.2-0.7,19.7,4.6C517.8,407.5,521.1,415.1,532.1,414.4z"/>
	<path class="st1" d="M406.8,255c-2.5,7.1,1.8,17.9,9,20.8c12.5,4.9,23-10.8,12.9-18.8c14.8-8.8,28.9,4.2,36.3,16.7
		c20.6,35.1,12.3,67.9,13.3,66.2c12.6-22.2,9.8-50.6-0.3-73.1c-8.6-19.1-27-34.6-49-29.6C419.3,239.4,410.1,245.6,406.8,255z"/>
	<path class="st1" d="M539.2,444.8c12.1,0.6,19.6-6.1,24-14.8c5.9-11.5,4.6-25.6,2-37.8c-2.9-13.6-11.3-23.2-23.5-29.6
		c-29.4-15.3-58.3,14.1-63.9,41.2c-0.3,0.7,26.8-34.2,53.6-27.3c8.8,2.3,14.2,10.7,17.6,18.6c4.4,10.2,3.8,19.3-2.3,27.5
		c-6.7-8.9-20.4-4.1-21.7,6.5C523.7,439.8,532.2,444.4,539.2,444.8z"/>
	<path class="st1" d="M582.1,432.9c5.9-8.4,2.7-15.9,1.4-25c-1.2-8.6,0.4-16.5,4.6-23.1c-5.3,2.5-9.4,5.5-11.1,11.8
		c-1.7,6.4-2,13.1-0.5,19.6c0.8,3.5,2.5,7.5,2.3,11.2c-0.1,3.2-1.8,7.7-4.3,11.6C577.4,437.5,580.1,435.7,582.1,432.9z"/>
	<path class="st1" d="M603.3,386.1c-9.1,3.3-14.1,16.1-7.3,23.8c5.1,5.9,11.6,5.8,15.9,0.9c1.3,15.5-10.4,28.7-23.3,36.6
		c-13.3,8.1-29.4,2.7-43.5,0.7c-13-1.8-27-0.2-39.5,3.5c-24.2,7.2-29.2,19.1-29.2,19.1c12.9-8,27.8-9.4,41.1-9.8
		c17.2-0.4,33.5,5.5,50.6,6.2c27.2,1.2,56.4-12.8,62.7-40.7c2.8-12.1-0.4-32.6-11.6-39.5c-1.4-0.9-3-1.5-4.7-1.9
		C611.2,384.3,607.5,384.5,603.3,386.1z"/>
	<path class="st1" d="M629.4,453.4c-6.5,1.2-12.9,3.7-17.7,8.5c-4.2,4.2-10.9,10.9-17.5,12.9c5.1,1,10.9,0.5,15.5-0.2
		c6.3-0.9,12.2-5.2,17.9-8c1.4-0.6,3.5-1.7,6-2.7c4-1.6,8.9-3.3,13.2-3.7c-4-3.8-7.5-6.9-13.2-7.1
		C632.3,453.1,630.9,453.2,629.4,453.4z"/>
	<path class="st1" d="M617.3,381.5c2.1-2.6,4.9-4.3,8.3-5.8c3.3-1.5,5.9-3.2,8-5.3c3.4-3.4,5.2-7.9,5.7-13.9
		c0.9-8.7-0.9-16.1-5.7-23c-0.4-0.6-0.9-1.2-1.3-1.8c-2.1-2.8-4.7-5.5-6.9-8.4c0.7,1.7,1.2,3.5,1.4,5.7c0.4,5.3-2.7,11.2-5.2,15.7
		C614.5,357.6,611.8,368.4,617.3,381.5z"/>
	<path class="st1" d="M595.6,331.5c-7.3,5.7-17.4,10.6-21.9,19.2c-5,9.6-1.9,18,3.1,26.2c4.1-14.3,20.6-19.2,28.4-32.2
		c5-8.2,6.9-17.2,6.6-26.8c-0.2-7.9-2.6-14.6-6.2-20.8C609.4,309.4,608.1,321.7,595.6,331.5z"/>
	<path class="st1" d="M559.1,328.3c-11.3,9.3-32,18.8-46.2,9.3c-6-3.9-13.5-19.2-4-23.8c5.2-2.5,10.9,0.5,13.1,5
		c0.1-0.4,0.1-0.7,0.2-0.9c0.7-5.6-0.7-11.9-6.9-13.6c-9.9-2.7-17.8,2.7-20.3,12.5c-4.8,18.6,8.9,37.8,29.1,35.8
		c16.2-1.6,31.6-11.8,41.5-24.5c5.8-7.4,8.8-15.3,10.3-23.3C572.4,313.9,566.6,322.1,559.1,328.3z"/>
	<path class="st1" d="M529.8,282c-11.3-10.8-16.8-25.1-30.8-33.6c-6.2-3.8-14.2-7.1-21.2-8.9c-1.8-0.5-3.8-1-5.7-1.2
		c5.5,3.1,10.4,7.8,14,11.9c8.7,9.7,14.4,21.5,22.7,31.4c11.4,13.7,28.9,23.2,45.4,11.1c6.6-4.8,11.4-10.9,13.9-18.5
		C558.6,286.1,541.8,293.6,529.8,282z"/>
	<path class="st1" d="M614.4,175.4c-4.2,8-8.1,16.4-8.5,25.6c-0.3,6,1.9,12.2,1.6,18.2c5.4-2.5,9.8-6.7,13.2-11.8
		c6.1-9.1,6.2-18,7.4-28.5c0.6-5.5,2.5-11,5.5-15.8c0.8-1.3,1.6-2.5,2.5-3.7c-0.9,0.1-1.7,0.3-2.5,0.5c-2.4,0.5-4.7,1.3-6.7,2.3
		C621.2,165.2,617.4,169.8,614.4,175.4z"/>
	<path class="st1" d="M583,196c-1,11.3-1,23.6-7.1,33.6c-8.8,14.6-26.8,26.3-44,25c0.1,0,0.1,0,0.1,0.1c6.7,3.7,15.2,5.9,22.8,4
		c8.3-2.1,16.6-6,22.1-12.7c9.1-11,12.7-25.2,14.6-39.1c1.5-10.8,1.3-30.6,9.1-41.3C589.7,168.6,583.8,187,583,196z"/>
	<path class="st1" d="M584.2,158.5c0.4-0.2,1-0.5,1.7-0.9c-3.6-0.5-6.9-1.2-9.3-1.4c-11.3-1-19.6,2.8-25.4,12.8
		c-2.2,3.8-4.1,7.9-6.3,11.8c9-1.4,16.6-3.9,23.9-10.6C573.6,165.7,578.3,161.8,584.2,158.5z"/>
	<path class="st1" d="M606.2,127.1c-4,0-6.5,3.4-6.2,7.6c0.3,3.7,3.3,6,6.7,6.8c3.2,0.8,7.1-0.2,9.2-2.8c2.4-2.9,1-7.1-1.2-9.6
		C612.5,126.4,609.1,126,606.2,127.1z"/>
	<path class="st1" d="M522.2,223.9c-19.9,1.3-39.4-5.5-59.2-4.5c-13.6,0.7-37.4,4-45.8,16.8c8.7-4.6,20.1-5.6,28.9-6.5
		c18.4-1.9,36.2-2.8,53.9,3.7c9.6,3.6,20.3,7.5,30.7,5.9c10.3-1.6,21.6-8,24.4-18.9c2.2-8.7,0.5-19.3-6.6-25.4
		c-5.3-4.5-12.7-6.7-18.7-1.9c-2.7,2.2-4.7,4.8-5.4,7.8c3.1-5.9,12.3-2.1,14.4,3.7C543.1,216.4,532.8,223.2,522.2,223.9z"/>
	<path class="st1" d="M494.4,122c-14-11.3-32.7-5.7-41.7,8.8c-5.8,9.4-10.8,25-2.6,34.7c7.4,8.8,26,11.6,29.2-2.3
		c0.5-2.1,0.8-9.1-0.4-14.4c-2,5.7-8.5,9.1-14.7,6.4c-8.8-3.9-8.2-13.5-4.6-20.9c9.7-19.9,34.2-9.7,38.2,8.7
		c5.1,24.2-17.2,42.9-37.7,49.6c-21.1,7-43.1,17.5-53.3,37.1c4.9-6.6,11.5-12.2,18.2-16.2c6.2-3.7,13.5-6.4,20.7-7.4
		c7.7-1.1,15.5-0.4,23.1-2.5c17.1-4.7,31.6-17.7,36.3-35.2C509.1,153.1,507.7,132.7,494.4,122z"/>
	<path class="st1" d="M494.5,210.3c2.3-0.2,4.7-0.7,6.8-1.5c7.9-2.9,13.1-9.6,17.9-16.1c10.2-13.9,18.1-29.7,29.9-42.3
		c7.7-8.1,17-16.1,28.1-18.8c1.3-0.3,2.8-0.5,4.3-0.6c-5-4.5-10.6-6.2-18-4.9c-5.5,1-10.4,2.8-14.6,6.5c-11.1,9.8-16.1,23.5-22,36.7
		C521.1,182.5,509.5,202.2,494.5,210.3z"/>
	<path class="st1" d="M348,91.9c-5.9,9.8-10.3,27.4-10.7,38.8c-0.3,8.9,0.7,30.6,0,33.3c7.8-19.8,9.8-37.6,22.4-54.4
		c13.4-17.8,33-30.6,54.7-35.7c16.7-4,38.1-5.3,52.3,6.5c8.5,7,13.1,20.1,4.3,26.1c4.4,0.2,10.2-1.7,12.4-2.9
		c1.6-0.9,2.7-1.8,3.8-3.5c3.6-5.4,5-11.6,2.9-17.9c-3.6-10.5-11.6-19.7-20.9-25.8c-20-13.1-48.1-17.6-73.5-7.7
		C375,56.8,359.4,72.8,348,91.9z"/>
	<path class="st1" d="M479.3,30.9c-12.5-4.1-24.1-6.1-37.1-3.8c-6.1,1.1-18.9,2.3-23.4,7.8c15.5-7.5,34.1,0.1,48.8,7.1
		c9,4.3,20.5,10.8,30.9,9.1c8.2-1.4,15.6-6.6,19.8-13.6C505.9,40.7,490,34.4,479.3,30.9z"/>
	<path class="st1" d="M509.8,83.1c-2.5-5.7-4.4-12.4-8.1-17.5c-3.3-4.4-8.7-4.9-13.8-4.1c4.3,3.4,7.5,8.3,9.6,13.3
		c2.4,5.7,3.7,12.4,7.5,17.3c1.9,2.4,4.6,5.5,7.8,5.9c2.4,0.3,4.4-1.1,6.2-2.9C514.7,93.2,511.8,87.6,509.8,83.1z"/>
	<path class="st1" d="M517.4,65.6c0.4,3.3,2.6,10.4,6.2,13.1c-2-5.1-0.5-13,2.1-16.8c5-7.3,16.7-12.6,16.3-22.7
		c-0.2-4.5-1.8-8.3-3.8-11.9c0,5.2-2.5,9.6-8.4,14.2C522,47.4,516.2,55.3,517.4,65.6z"/>
	<path class="st1" d="M564,52.4c8-3.6,16.5-7.6,21.6-15.1c3.8-5.6,5.8-11.4,6.3-17.5c-4.7,7.3-15.4,13.4-21.5,16.1
		c-7,3.1-15,6.1-20,12.2c-4,4.9-5.6,10.2-6.6,15.8C548.4,58.3,556.2,55.9,564,52.4z"/>
	<path class="st1" d="M582.1,59.5c8.1-4.2,19.3-2.1,27.9-0.8c7.5,1.1,16.8,2.9,23.6-1.7c4.1-2.7,6.2-6.1,7.7-9.9
		c-2.3,0.9-5,1.2-7.7,1.2c-4,0-8.3-0.8-12-1.7c-8.8-2.3-17.7-4.4-26.5-0.2C588.5,49.5,585.7,54.3,582.1,59.5z"/>
	<path class="st1" d="M559.3,91.4c-6.1,2.5-15.6,11.8-18.6,33.7c3.9-10,17.9-20.1,23.3-22.3c7-2.9,14-1.4,16.9,4.5
		c1.4,2.8,1.7,5.9,1,8.6c1-0.9,11.7-9.1,3-20.1C578.3,87.6,569.6,87.1,559.3,91.4z"/>
	<path class="st1" d="M545.6,76c-14.7,9.9-27,29.9-30.8,47.4c-2.3,10.5-2,31.3,0.8,43.4c0.8-3.2,4.6-16.9,5-19.6
		c2-11.4,4.7-22.1,8.4-33c5.3-15.6,16-29.5,32.5-34.5c12.8-3.9,27-2.2,36.2,8.3c8.4,9.6,9.4,22.9,2.7,32.5c5.1-1.1,9.9-6,11.7-9.5
		c5.1-10.2,1.4-22.1-3.5-28.4C590.8,60,563.2,64.3,545.6,76z"/>
	<ellipse class="st1" cx="386.8" cy="259.3" rx="11.5" ry="11.7"/>
	<path class="st1" d="M629.1,127.3c0,5.5,0,10.7,3.3,15.2c0.4,0.5,0.8,1.1,1.2,1.6c3.7,4.7,8.1,8.5,13.3,11.4
		c-0.4-2-0.8-4.1-1.2-6.1c-1.2-5.7-0.9-11.7-3.3-17.1c-2.2-4.7-5.1-8.8-8.7-12.5c-1.4-1.4-3.2-2.9-5-4.3
		C629.4,119.5,629,124,629.1,127.3z"/>
	<path class="st1" d="M87.4,599.9c11.5,19.1,30.9,44,22,67.2c4.4-4.7,7.5-10,7.6-17.2c0.1-8.6-2.1-16.6-5.6-24.4
		c-5.6-12.6-14.3-25.7-14.8-39.8c-0.5-12.6,5.3-23.2,15.9-30.1c6-4,13.2-6.8,20-5.9c-3.5-8.1-16.8-12.7-24.4-10.6
		c-9.7,2.7-17,10.5-22.2,18.8C77,572.2,79,585.9,87.4,599.9z"/>
	<path class="st1" d="M139.9,627.3c-1.2-20.1-11.4-39.2-32.4-40.4c4.7,2.4,8.7,9.1,10.7,12.8c3.3,6.3,5.4,14.4,10.5,19.5
		C132,622.5,136.1,624.7,139.9,627.3z"/>
	<path class="st1" d="M149.2,648.8c2.8,9.1,8.1,16.8,16.8,21.1c5.7,2.9,11.9,4.4,18,5.9c-7.6-7.1-16.3-13-18.5-24.2
		c-2.1-10.5-2.4-21.4-3.6-32.1c-1.3-11.8-2.6-25.1-8.4-35.7c-2.3-4.3-5.5-8.8-10.3-10.7c-2.9-1.1-5.9-1.2-8.8-0.9
		c2.3,1.2,4.4,3.3,5.7,5.6c4.9,8.6,6.2,19.4,6.7,29.1C147.7,620.7,145.1,635.4,149.2,648.8z"/>
	<path class="st1" d="M102.4,688.7c-0.9,2.1-3.4,11.9-3.1,18.7c4.6-12.3,18.6-22.5,28.1-29.8c11-8.5,16.1-20.2,12.7-34.4
		c-0.2-0.7-0.4-1.5-0.6-2.2c-1.6,10.5-7.3,20.2-16.6,27.6C115.6,674.4,106.2,679.8,102.4,688.7z"/>
	<path class="st1" d="M216.7,690.9c10.8,7.9,21.6,15.8,28.8,27.2c4.4,7.1,4.7,13.5,5.8,16.1c5-11.6,2.8-27.9-1-35
		c-7.7-14.4-20.1-27.6-35.4-38.7c-14.7-10.6-28.2-14.9-33.8-42.4c-3.2,15.7-3.7,33.1,5,44.9C194.5,674.4,205.5,682.6,216.7,690.9z"
		/>
	<path class="st1" d="M139.4,702.2c20.6-6.2,42-4.9,60.2,7c18.6,12.1,32.2,30.5,46.8,47.5c-6.4-20.7-20-38.2-37.4-49.8
		c-19.6-13-47.6-22.2-74.4-14.4c-30.1,8.8-54.9,34.6-48.3,65.9c1.4,6.6,5,13.2,12.2,14c6.9,0.7,12.3-2.2,14.1-8.8
		c-2.4-0.8-4.7-2.3-6.5-3.9c-5.5-4.8-9.1-11.1-8-19.1C100.6,720.8,122.1,707.4,139.4,702.2z"/>
	<path class="st1" d="M167.1,840.5c-0.6-1.7-1.1-3.5-1.4-5.4c-1.8-12.2-2.4-24.3-8.8-35.2c-4.8-8.4-12.3-18.3-21.9-21.6
		c-2.6-0.9-8.8-3.1-14.2-4c5.1,3.5,9.3,12.4,10.8,16.3C139.3,810.8,144,836.7,167.1,840.5z"/>
	<path class="st1" d="M114.7,884.7c-0.5-10.3,0.5-21.2,12.6-24.8c8.7-2.6,17.1,4,18.1,12.3c4.8-9.7-1.3-20.9-10.9-22.7
		c-6.3-1.1-13-0.6-18.8,2.1c-18.6,8.7-17.6,30.7-8.4,45.6c9.4,15,24.1,27.2,31.6,43.3c4.3,9.3,8.1,21.2,7.6,32.2
		c1.6-2.5,2.8-5.1,3.5-7.9c3-11.8,0.6-22.8-5.5-33.3C135.6,916,115.5,903.5,114.7,884.7z"/>
	<path class="st1" d="M171.2,797.4c5.3,4.2,9.9,8.3,12.3,15.4c3.5,10.5,4.5,21.1,2.4,32.1c-2.3,12.3-6.2,24.5-3.5,37.1
		c1.8,8.4,4.7,14.4,9.9,19.5c-4.3-15.7,5.7-30.5,9.3-47C206.8,830.8,199,798.9,171.2,797.4z"/>
	<path class="st1" d="M234.7,810.7c-3.1,0.1-6.2,0.2-9.1-1.3c-4.6-2.3-8.5-5.5-11.2-9.9c-8.1-13-12.3-28.7-21.1-41.7
		c-10.5-15.5-22-23-40.9-24.8c-11.1-1.1-29,4.6-38.1,13c9.8-0.3,30.9-2.4,39.7,0c9.9,2.8,23.2,9.3,29.7,17.4
		c9.9,12.3,12.5,18.6,17.9,29.3C207.8,805,220.3,816.6,234.7,810.7z"/>
	<path class="st1" d="M236.9,784c8.1,9.1,28,21.3,38.5,8.4c6.6-8.2,7.4-27.3-2.9-33c-19.7-10.9-25.1,24.2-4.6,20.1
		c1.2-0.2,3.4-1.9,3.4-1.9c1.5,8.2-3.8,13.4-12.1,12.9c-11.6-0.7-17.7-9.7-22.9-19.2c-7.4-13.3-13.3-27.7-24.7-38.1
		c-9.7-8.8-23-14.3-35.4-11.3c8.4,0.1,16,4.5,21.8,10.3C213.2,747.6,222.6,767.9,236.9,784z"/>
	<path class="st1" d="M256.8,916.2c1.7-12.4-5.9-22.9-14.9-29.7c-6.5-4.8-14.3-8.3-19-15.4c-2.1-3.2-3.8-6.8-5.3-10.4
		c-1.1,6.5-0.1,12.6,2.5,18.7c3.3,7.7,7.7,9.2,14,12.2c7.3,3.5,13.8,9.2,16.7,17.4c1.3,3.5,2.4,10.8,1.8,17.2
		C254.6,923.5,256.2,920.3,256.8,916.2z"/>
	<path class="st1" d="M315,962.2c5.3-11.2,15.3-20.3,16-33.2c0.6-10.8-2.6-20.9-5.8-31.1c0,0.4,0,0.9-0.1,1.4
		c-0.3,4.3-1.9,8.4-4.2,12.1c-7.8,12.8-18.3,23.9-18.5,39.8c-0.1,15.1,5.2,29.4,13.1,42.1C312,982.7,310.6,971.9,315,962.2z"/>
	<path class="st1" d="M363.8,883.6c-3.4-9.1-8.4-19.1-16.6-24.7c-5.8-4-14.2-6.8-21.7-5.5c3.9,2.2,8.2,3.9,11.6,7.1
		c5.4,5.1,10.1,11,12.9,17.9c5.2,12.7,6.2,27.6,2.1,40.7c-4.4,13.9-13.9,23.5-20.3,36.2c-4.5,9-5.4,17.6-2.7,27.4
		c0.2,0.4,0.3,0.8,0.4,1.2c0.4-10.3,2.8-20.8,6.9-28.5c6.1-11.5,15.4-20.9,22.3-31.9C366.8,910.8,369.2,898.1,363.8,883.6z"/>
	<path class="st1" d="M606.2,980.9c-4,0-6.5,3.4-6.2,7.6c0.3,3.6,3.3,5.9,6.7,6.7c3.2,0.8,7.1-0.2,9.2-2.8c2.4-2.9,1-7.1-1.2-9.6
		C612.5,980.1,609,979.8,606.2,980.9z"/>
	<path class="st1" d="M402.1,883.6c16.9-10.7,34.7-14.4,53.3-20.5c11.9-3.9,24.2-10.7,29.2-22.9c3.6-8.7,5.4-21.7-3.3-28.3
		c-10.2-7.8-22.4-4.1-27.3,7.5c-0.3,0.8-0.6,1.6-0.9,2.4c4.9-8.8,19.7-9.1,25.5-1c7.6,10.4-1.1,25.3-10.7,30.3
		c-13.8,7.2-29.4,6.8-44.2,10.2c-8.5,1.9-17.8,4.4-24.3,10.5c-8.3,7.8-16.3,20.3-19.4,32.3C385.6,895.8,393.6,888.9,402.1,883.6z"/>
	<path class="st1" d="M467.5,895.8c9,4.3,20.5,10.8,30.9,9.1c8.2-1.4,15.6-6.6,19.8-13.6c-12.3,3.2-28.2-3.1-38.9-6.6
		c-12.5-4.1-24.1-6.1-37.1-3.8c-6.1,1.1-18.9,2.3-23.4,7.8C434.2,881.1,452.8,888.7,467.5,895.8z"/>
	<path class="st1" d="M519,949c-4.3-2.1-7.3-7.7-9.2-12.1c-2.5-5.7-4.4-12.4-8.1-17.5c-3.3-4.4-8.7-4.9-13.8-4.1
		c4.3,3.4,7.5,8.3,9.6,13.3c2.4,5.7,3.7,12.4,7.5,17.3c1.9,2.4,4.6,5.5,7.8,5.9C515.2,952.2,517.2,950.8,519,949z"/>
	<path class="st1" d="M542,893c-0.2-4.5-1.8-8.3-3.8-11.9c0,5.2-2.5,9.6-8.4,14.2c-7.7,5.9-13.5,13.8-12.3,24.1
		c0.4,3.3,2.6,10.4,6.2,13.1c-2-5.1-0.5-13,2.1-16.8C530.7,908.4,542.4,903,542,893z"/>
	<path class="st1" d="M564,906.1c8-3.6,16.5-7.6,21.6-15.1c3.8-5.6,5.8-11.4,6.3-17.5c-4.7,7.4-15.4,13.4-21.5,16.1
		c-7,3.1-15,6.1-20,12.2c-4,4.9-5.6,10.2-6.6,15.8C548.4,912,556.2,909.6,564,906.1z"/>
	<path class="st1" d="M610,912.4c7.5,1.1,16.8,2.9,23.6-1.7c4.1-2.7,6.2-6.1,7.7-9.9c-2.3,0.9-5,1.2-7.7,1.2c-4.1,0-8.3-0.8-12-1.7
		c-8.8-2.3-17.7-4.4-26.5-0.2c-6.6,3.1-9.4,7.9-13,13.1C590.2,909,601.4,911.1,610,912.4z"/>
	<path class="st1" d="M559.3,945.1c-6.1,2.5-15.6,11.8-18.6,33.7c3.9-10,17.9-20.1,23.3-22.3c7-2.9,14-1.4,16.9,4.5
		c1.4,2.8,1.7,5.9,1,8.6c0.9-0.8,11.6-9,2.9-20C578.3,941.4,569.5,940.8,559.3,945.1z"/>
	<path class="st1" d="M281.4,883.7c0-0.2-0.1-0.4-0.2-0.5c-2-5.9-4.3-11.5-8.4-16.3c-7-8-16.1-13.2-25.3-18.2
		c-13.2-7.2-26.9-14.9-34.1-28.1c-1.2,11.9,3.4,24.4,10.9,33.6c7.4,9.1,16.9,12.5,27.8,15.7c9.7,2.8,21.5,5.5,28.6,13.1
		C281,883.3,281.2,883.5,281.4,883.7z"/>
	<path class="st1" d="M300.2,916.8c0.1-15.8,9.9-19.1,12.3-46.7c1.2-13.7-0.7-30.3-6.8-42.9c-6.9-14.3-24.3-30.8-45.7-25.2
		c-15.4,4-23.7,34,0.2,36.4c-4.6-4.8-5.2-11.5-4.8-13.3c3.8-16.5,23.7-8.7,29.9-2.6c11.3,11.3,14.6,28.7,12.5,44.8
		C295.5,885,288.6,896.3,300.2,916.8z"/>
	<path class="st1" d="M360.8,760.4c0.4-2.3,0.5-4.6,0.6-6.9c-12.3,1.4-25.1,1.2-34.4,10.3c-4.7,4.6-7.9,9.7-10.1,15.8
		c-0.5,1.3-2.3,5.3-3.5,8.8c4.3-3.8,10.8-6.8,14-8c7-2.6,15.2-2.1,21.9-5.5C354.8,772.3,359.7,766.8,360.8,760.4z"/>
	<path class="st1" d="M384.4,789.6c0.6-11.2-3.7-21-9.4-30.1c0.1,16.6-15.4,25.8-22.5,41c-5.5,11.7-6.1,24.4-0.3,36.2
		c1.2,2.4,5.1,12,9.2,16.6c-4.9-12,0-25.2,8.2-36C375.7,809.2,383.8,800.3,384.4,789.6z"/>
	<path class="st1" d="M391,801.1c-1.1,2.3-4.2,11.6-6.6,12.5c8.8-3.4,24.3-8.4,28.4-32.3c3.3-19.2-8.7-27.7-20.6-32.3
		c6.8,11.1,8.3,24.2,4.9,36.6C395.7,791,393.4,796.1,391,801.1z"/>
	<path class="st1" d="M388.8,852.5c4.7-3.4,9.9-6,15.7-7.2c6.5-1.4,14.5-1.6,20.2-5.4c13.6-9.1,20.7-34,14.2-48.9
		c-3.7-8.4-9.4-14.6-16-20.8c-0.1-0.1-0.2-0.2-0.3-0.3c2.8,5.8,4.4,12,3.3,18.7c-1.5,9.3-10.2,15.8-17.8,20.2
		c-18.3,10.8-33.6,31.6-26.7,52.2C383.2,857.7,385.7,854.6,388.8,852.5z"/>
	<path class="st1" d="M333.8,827c3.5-8,3.3-18.3-4.9-23.6c-9-5.8-15.8,0.5-18.6,9.4c-0.6,1.9-3.7,2.2-4.6,0.3
		c-10.8-22.6-3.5-52.3,17.1-67c12.9-9.2,33.3-11.7,49.8-7c-37.4-24.8-94,24.2-76.6,66.5C300.3,816,323.5,850.4,333.8,827z"/>
	<path class="st1" d="M296.6,715.8c-7.8,7.2-15.8,18.4-15.8,29.5c0,6.6,0.2,17.4,4.8,23.2c1.3-16.2,9.3-29.4,25.3-36.3
		c7.7-3.3,16.2-5.6,23.1-10.4c5-3.5,9.9-8.8,10.9-15.2c0.7-4.5,0.1-8.6-0.7-12.6c-5.8,3.9-12.6,5.8-19.4,7.8
		C314.6,704.7,304.5,708.5,296.6,715.8z"/>
	<path class="st1" d="M272.9,700.1c-0.3-1.4-0.5-3-0.7-4.8c-1.7,2.1-3.1,4.1-4,6c-6.2,13.8-5.6,28.6,1.9,41.8
		C279.8,731.7,275.3,713.4,272.9,700.1z"/>
	<path class="st1" d="M322.4,652.4c4.2-2.3,9.9-6.3,9.4-12c-0.3-3.4-1.3-6.5-1.8-9.7c-6.8,8.7-20.9,11.9-30.9,13.7
		c-9.9,1.8-22.6,3.2-29,12.1c-5.4,7.5-7.2,17.5-5.3,26.6c6.6-11.5,17.7-20.7,30.7-23.8C304.2,657.3,314.3,656.8,322.4,652.4z"/>
	<path class="st1" d="M394.2,666.4c8.1-10.8,14-26.5,9.3-39.9c-5.7-16.4-21.5-19.7-31.6-8.4c-5.2,5.7-4.8,17.3,3.5,19.3
		c9.2,2.4,13.4-4.9,13.4-11.7c0-3.4-2-5.1-2-5.1c24,18.9-12.7,47.6-31.4,51.2c-9.4,1.8-19.1,0.4-28.4,0.8c-8.7,0.4-18,1.9-25.7,6.4
		c-10.6,6.3-18.9,14.9-18.9,34.1c6-15.7,20.7-24,33-27.4c11.2-3.1,24.5-2.3,36-1.2c9.4,0.9,19.3-1.1,28.2-6
		C385.2,675.5,390.3,671.5,394.2,666.4z"/>
	<path class="st1" d="M381.8,587.4c7.9-4.4,17.7-10,18.9-19.9c0.9-6.6-0.7-12.5-2.9-18.4c-1.4,1.4-3,2.7-4.6,3.8
		c-11.1,7.6-24.3,13.1-30.3,26c-3,6.5-5,13.9-4.2,21.2c0.3,2.5,0.9,9.7,3.2,13.3C360.6,600.7,370.7,593.7,381.8,587.4z"/>
	<path class="st1" d="M369,551.9c2.4-5.7,1.5-13.1-1.9-18.6c-2.1,3.8-6.4,7.4-8.7,9.8c-3.7,3.8-9,7.9-10.3,13.3
		c-1.5,6.5-1.6,13.6,0.8,19.9c1.2-3.1,3.2-6,5.2-8.2C358.8,562.8,366.2,558.4,369,551.9z"/>
	<path class="st1" d="M332.7,531.1c-8.1-5.6-19-3.3-24.9,5c-4.9,6.8-5.2,17.9,3.7,21.5c9.8,3.9,19.2-8.5,12.3-15.4
		c10.5-3.4,12.9,25.4,12.7,26.3C336.3,569.2,351.7,544.4,332.7,531.1z"/>
	<path class="st1" d="M347.4,596.9c0.8,1,1.7,2,2.6,3.1c-4.1-9.8-10-18.8-18.2-25.8c-8.9-7.7-20.1-10.8-31.4-13.1
		c-8.2-1.7-27-4.9-33.6-13.8c-0.8,11.8,5.4,23.4,17,28.3c13.9,5.8,27.2,2.6,41,6C334.7,584,341,589.2,347.4,596.9z"/>
	<path class="st1" d="M252.6,589.8c6.5,14.4,15.5,17.1,28.1,13c7.6-2.5,19-5.3,23.7-5.8c-2.3-3.6-9.4-7.6-20.9-7
		c-6.5,0.4-12.7-1.5-18.4-5.1c-10.7-6.8-16.7-19-17-31.5C246.5,565.6,247.5,578.4,252.6,589.8z"/>
	<path class="st1" d="M360.5,648.8c5.3-9.7,4.5-22.4-2.1-31.4c-17.2-23.6-47-11-69.2-2.7c-15.3,5.8-31.2,11.3-47.6,7.5
		c-4-0.9-8.4-2.4-12-4.7c4.6,14.6,17.4,24.8,34.5,25.1c12.3,0.2,22.7-4.3,32.7-11.3c7.5-5.2,14.6-10,23.6-11.9
		c13.6-2.8,28.8,5.8,30.8,20.3c1.1,7.8-2.3,16.7-8.2,22.4C350.2,659.7,356.8,655.5,360.5,648.8z"/>
	<path class="st1" d="M420.1,604.2c7.2-4.7,5.3-9.5,1.6-15.3c-1.3,6.5-7.3,11.7-13.6,5.2c-8.7-9,0-25.5,12.4-26.4
		c12.5-0.9,19.1,7.7,21.2,18.2c1.4,7.2,1.9,14.5,2.4,21.9c0.4,5.1,2.6,18.2,8.4,22.3c-2.6-11.9,0.2-24.5-1.1-36.7
		c-1.5-14.4-5.1-34-26.2-34.8c-20-0.7-35.5,20.5-24.1,41.3C403.4,604.2,413.9,608.1,420.1,604.2z"/>
	<path class="st1" d="M418.7,615.2c-3,0.3-6,1-8.4,2.6c1.8,0.8,3.6,2.4,5.2,3.9c3.4,3.3,6.8,7.5,11.2,9.5c4.4,1.9,7.8,0.6,11.1-1.3
		c-2.4-1.8-4.5-4.4-6-6.1C428.3,620,424.6,614.6,418.7,615.2z"/>
	<path class="st1" d="M445.5,739.2c3,5.5,5.2,11.7,5.9,18.1c2.9-9.8,3-20.4-1.4-29.9c-3.4-7.4-8.7-13.5-14.1-19.5
		c-8.6-9.4-18-19.9-18.8-33.2c-0.8-12.6,6.8-30,22.2-27.8c7.1,1,15.9,5.4,16.1,12.2c3.5-12.8-8.7-27.4-23.2-22.2
		c-7.2,2.6-13.6,7.5-17.8,14c-10.4,15.8-10.8,41.7,1.2,57C424.4,719.2,438.4,726.4,445.5,739.2z"/>
	<path class="st1" d="M460.5,716.2c2-6.7,2.4-13.2,0.3-19.9c-2.3-7.1-7.4-12.6-11.5-18.7c-2.2-3.3-7.3-10.8-7.4-16.5
		c-8.7,10.2-6.1,24.6,1.3,35.8c4.5,6.9,12.4,14.9,15.7,23.5C459.5,719.1,460.1,717.7,460.5,716.2z"/>
	<path class="st1" d="M470.3,661.1c0.9-7.1,3.8-14.3,6.8-20.5c7.6-15.8,18.7-28,20.1-48.5c1.4-20.4-7.6-38.7-25-42.2
		c-10.4-2.1-24.4,1.2-25.4,16.3c11.4-10.9,29.8,1,30.9,19.7c0.8,14.8-5.3,26.8-9.5,40.4C464.2,639.2,465.2,650.3,470.3,661.1z"/>
	<path class="st1" d="M500.9,652.8c9.2-16.1,16.2-32.9,17.5-51.5c0.5-8.3,0.6-16.9-1.6-25c-1.1-4-2.4-8.3-5.2-11.5
		c-3.2-3.6-9.9-7.8-15-5.9c6.6-0.1,11.4,12.8,12.6,18c4.4,18.7-1.2,41.4-9.9,58.2c-8.7,16.7-22,31.9-27.1,50.2
		c-4.1,14.7-5.3,32.8-1.5,48.6c-0.6-12.1,1.3-24.3,5.7-35.5C482.6,682.2,492.3,667.9,500.9,652.8z"/>
	<path class="st1" d="M454.1,783.6c-0.2-5-1.1-9.8-4.4-14.3c-5.3-7.1-11.8-12.8-19.3-17.8c-10.3-6.9-21.8-13.1-30-22.5
		c-8-9.1-15.2-30.5-6.2-41.3c-2.3,1.4-4.5,3.1-5.4,4.2c-6.2,6.7-8.7,15.6-6.7,24.5c3.7,16.4,14.4,29.1,29.6,36.4
		C426.3,759.9,444.7,769.6,454.1,783.6z"/>
	<path class="st1" d="M351.9,721.3c7.8,1.4,17.3-1.7,19.1-10.1c0.9-4.1,0.1-9.8,1.1-14.4c-8.2,1-10.4,7.8-13.9,15.7
		C356.8,715.7,354.7,719.4,351.9,721.3z"/>
	<path class="st1" d="M460.4,778.1c0.2,0.1,0.4,0.2,0.5,0.3c1.9,1.9,5,2.5,7.5,1.9c1.3-0.3,2.4-1.1,3.2-2c2.1-1.3,3.6-3.6,3.8-6.6
		c0.2-3.9-2-8.9-6.2-9.5c-1.7-0.3-3.3,0.2-4.7,1.2c-3.5,0.3-6.3,3.4-7.5,7.1C456.1,773.5,457.8,776.4,460.4,778.1z"/>
	<path class="st1" d="M586.5,687.1c9.4,7.2,24.9,2,27.6-9.6c2.4-10.5-0.2-23-5.5-32.3c-19.1-33.3-61.4-9.7-83.9,6.7
		c-28.1,20.4-44,55.5-43.7,90c16.9-9.5,35-23.9,42.7-41.6c3.9-9,4-18.5,7.2-27.5c2.8-7.9,7.2-15.1,13.4-20.9
		c12-11.2,31.4-20.3,47.5-11.9c12,6.3,18.9,18.5,11.8,31.2c0,0-10.7-14.3-21.3-2.6C577.9,673.5,580.5,682.5,586.5,687.1z"/>
	<path class="st1" d="M567.9,650.3c-8.3,3.7-15.4,10-19.1,18.5c-3.1,7-5.4,20-11.3,27c4.4,0,8.8-0.4,12.4-3.5
		c6.8-5.8,9.5-13.7,13.4-21.5c3.3-6.6,10.8-17.2,19.1-19.4C578,649,574,647.6,567.9,650.3z"/>
	<path class="st1" d="M579.3,703.4c2.7-0.6,5.9-0.9,8.9-0.7c-2.2-2-4.7-3.5-7.7-4c-7.9-1.4-15.9,0.2-22.6,4.6
		c-10.2,6.7-17.6,16.2-25.4,25.4c-7.9,9.3-16,19.5-27.1,25.2c-4.3,2.2-13.8,4-20,2.3c0.1,0.3,0.2,0.5,0.3,0.8
		c3.2,5.8,10.6,8.4,16.9,8.5c9.2,0.1,19-2.1,26.1-8.3c11.2-9.6,15.7-23.6,24.1-35.3C559.6,712.4,567.8,705.8,579.3,703.4z"/>
	<path class="st1" d="M559.6,737.4c11.2-6.4,31.8-6.6,40-6.9c11.7-0.3,24-1.6,34-7.7c2.8-1.7,5.4-3.7,7.8-6.2
		c6.6-6.9,11.5-16.8,10.5-26.6c-0.3-2.6-0.8-5-1.5-7.3c-0.6,3.1-1.6,6-2.9,8.5c-3,5.9-8.2,10.7-14,14.4c-3.7,2.4-7.6,4.4-11.4,6
		c-11.7,4.9-23.1,5.7-35.4,7.6C573.8,721.2,565.3,726.9,559.6,737.4z"/>
	<path class="st1" d="M499.3,843.9c-7.3-3.6-16.7-0.1-19.6,8c-3.5,9.8-0.9,21.1,9.6,25.4c10.8,4.5,21.6,1.1,29.8-6.6
		c23.4-22,10.8-61.6-11.9-79.1c-17.5-13.5-58.2-6.1-59.2,19.5c-0.1,0.2,2.4-3.6,3.6-5.8c12.2-15.9,33.1-17.7,50.1-4.7
		c17.8,13.6,23,43.8,4.7,57.9C507.2,852.7,505.3,846.9,499.3,843.9z"/>
	<path class="st1" d="M605.9,815c-7.3-1.1-11.3,2.9-13.7,9.4c-3.2,8.5,5.6,18.1,13.7,19.5c12.4,2.1,22.2-7.7,27.9-18
		c0.7-1.3,1.4-2.7,2-4c5.5-12.3,2.8-27.2-2-39.4c-0.6-1.6-1.3-3.1-2-4.5c-7.2-15.4-20.8-24.4-37.5-28.5
		c-26.1-6.4-47.8,12.5-55.1,35.6c-3.8,9.5-2.4,21,0.5,29c0.3,0.8,0.3-22.2,8.9-36.4c1.9-2.9,4.1-5.5,6.3-7.7
		c9.6-9.5,25.3-14.4,38.4-11.1c13.8,3.5,23.3,17.3,27.6,29.9c4.6,13.6,3.8,25.5-5.2,35.6C615.5,819.3,611.4,815.8,605.9,815z"/>
	<path class="st1" d="M559.8,863.8c21.6-2.6,21.6-22.1,24.4-40.4c-3.4,3-7.2,5.5-10.1,7.9C564.1,839.4,555.6,850.6,559.8,863.8z"/>
	<path class="st1" d="M543.4,860.5c1.6-10.1,7.3-18.5,13.9-26.1c7.9-9.2,17.4-18.2,21.4-29.9c2.5-7.4,3.2-14.8,1.4-22.5
		c-0.3-1.5-0.8-4-1.6-6.6c-6.5,16.6-20.3,27.1-29.8,42.1c-9.3,14.8-12,36.3-4.7,53.1C543.1,867.1,542.9,863.5,543.4,860.5z"/>
	<path class="st1" d="M621.1,872c4.5-2.6,8.7-5.8,12.6-9.4c10.4-9.8,18.2-22.7,21.3-36.4c4-17.5,3.8-37.1-2-54.1
		c-2.8-8-9.8-18.7-17-23.8c-0.8-0.5-1.5-1-2.3-1.4c-8.3-4.7-16.3-3.5-22.5-2.3c8.1,2.5,17.1,7.3,22.5,16.2c0.2,0.4,0.5,0.8,0.7,1.2
		c5.9,10.9,13.6,25.8,13.7,38.6c0,13.5-6.2,25.1-14.4,35.4c-1.9,2.4-3.9,4.7-5.9,6.9c-11.8,12.9-27.6,26.4-29.3,44.9
		C603.4,880.2,613.3,876.5,621.1,872z"/>
	<path class="st1" d="M593.3,601.2c11.6,1.4,23.4,5.6,32.7,12.6c2.6,2,5.3,4.3,7.7,7c2.2,2.5,4.3,5.2,5.8,8.2
		c1.3-9.4-0.6-19.2-5.8-27.3c-1.4-2.1-2.9-4.1-4.7-5.9c-10.5-10.6-26.2-15.2-40.9-14.2c-13.9,0.9-26.1,6.2-36.8,15.1
		c-8.4,7-17.3,16.3-21.9,26.9C544,604.9,569.7,598.3,593.3,601.2z"/>
	<path class="st1" d="M557.3,569.1c7.7-4.1,16.1-7.9,22.6-13.8c5.6-5.1,10.6-13.5,8.4-20.8c-2.2,3.2-5.7,5.6-9.4,6.8
		c-10.1,3.4-20.6,3.5-30.1,9c-10.9,6.4-20.4,16.6-21.8,29.7c-0.7,6.8,1.7,12.4,4.1,18.1C530.5,584.4,545.7,575.3,557.3,569.1z"/>
	<path class="st1" d="M249.2,658c-4.9-9.1-11.4-15.8-19.1-22.3c-11.6-9.8-25.7-19.7-32.5-33.7c-5.8-11.9-6.4-29.3,6.1-37.3
		c10.3-6.5,22.1,2.3,27.1,11.3c-1.2-0.5-2.6-0.8-4-0.8c-5.6,0-10.2,4.8-10.2,10.7s4.6,11,10.2,10.7c15.3-1,10.4-19.4,8.9-22.3
		c-5.1-10-17.4-16.4-28.7-14.3c-13.5,2.5-20.4,16.4-20.4,29.2c0,14,5,28,15,37.9c8.6,8.6,19,14.9,28.2,22.8
		c11.8,10.1,21,23,26.5,37.4C255.7,677,253.9,666.8,249.2,658z"/>
	<path class="st1" d="M175.3,548c-7.7,8.6-12.1,19.5-11.4,31.1c0.6,8.6,3.7,16,6.9,23.6c4.2-41.3,31.5-49.6,44.5-59.7
		c19.4-15,10.8-35.8,6.1-41.6c-4,4.6-1.9,19.3-22.5,30.9C189.2,537.8,182.9,539.4,175.3,548z"/>
	<path class="st1" d="M87.4,544.3c2.4-7.4,9-13.6,16.5-17c14.6-6.7,29.2-2,44.2-5.1c14.6-3,27.4-11.3,37-22.6c1.9-2.2,3.6-4.5,5.3-7
		c5.4-8.2,9.7-17.1,11.9-26.7c0.2-0.7,0.3-1.5,0.4-2.2c-11.7,16.3-28.8,28.1-48.9,33.8c-2.5,0.7-5.1,1.4-7.7,2
		c-11.3,2.8-22.9,5.3-33.4,10.5C99.4,516.6,84,528.1,87.4,544.3z"/>
	<path class="st1" d="M210.7,511.5c2-3.8,1.5-10.1-2.6-11.9c-0.7-0.3-1.4-0.5-2.3-0.6c-0.2,0-0.4,0-0.7,0c-0.2-0.1-0.5-0.2-0.8-0.3
		c-1.3-0.4-2.8,0.1-3.9,0.8c-0.1,0.1-0.3,0.2-0.5,0.4c-2.6,1.9-4.3,5.4-4.1,8.6c0.2,3.9,3.6,6.6,7.3,7.2
		C206.4,516.2,209.2,514.3,210.7,511.5z"/>
	<path class="st1" d="M215.5,476.3c2.6,7.6,7.7,12.9,12.8,18.8c1.2,1.4,2.4,2.9,3.5,4.4c6.9,9.4,12.1,21.4,8.8,32.8
		c3.3-4.6,5.8-9.5,6.3-15c0.6-6.4-0.7-12.3-3.2-17.8c-1.6-3.7-3.7-7.1-6.1-10.5c-5.5-7.8-12.5-15.5-15.4-24.7
		c-1.8-5.9-2.4-11.8-2.2-17.7C214.4,455.3,212.1,466.4,215.5,476.3z"/>
	<path class="st1" d="M395.6,545.6c0.8,0,1.6-0.1,2.4-0.2c-1.4-1-2.6-2.2-3.8-3.4c-5.7-6-7.4-15.3-8.1-23.2
		c-0.5-6.2-0.4-12.9-1.3-19.3c-0.6-3.9-1.5-7.6-3.2-11.1c-4.8-9.9-11-16.4-19.5-21.8c3.9,8.1,6.7,17,7.1,26c0.1,2.3,0.1,4.6,0,6.9
		c-0.2,6.9-1,13.7-0.2,20.6C370.7,534.6,379.4,546.6,395.6,545.6z"/>
	<path class="st1" d="M289.3,536.9c-10.5,3.1-20.2-1.5-26.8-10.1c-1.7-2.3-3.3-5.1-4.1-7.8c-2.8,7.1-1.4,13.2-0.3,15.9
		c6.3,14.8,25.7,17.1,38,8c8.7-6.5,14.5-16.5,16-27.3c0.7-5.2,0.5-10.9-1-16c-1.8-6.2-5.5-11.4-11.6-13.7c4.4,3.2,7,8.1,8.1,13.7
		C310.4,514,303,532.9,289.3,536.9z"/>
	<path class="st1" d="M244.6,424c-5-4.8-9.6-11.9-12.8-19.6c-1.5-3.5-2.7-7.1-3.5-10.7c-2.7,29.1,12.2,61.3,40.6,71.5
		c16.4,5.9,34.5,0,50.4,8.3c6.8,3.6,10.8,9.8,12.7,17c0.7,2.7,1.3,5.9,1.3,8.9c0,4.6-1.3,8.9-5,11.2c2.6,0.3,5,0.3,7.2,0
		c7.3-1,12.3-5.3,15.1-11.1c5.3-10.7,3.5-26.7-4.2-37.4c-11-15.3-30.6-19.4-48.1-21.8C279.7,437.8,259.1,437.7,244.6,424z"/>
	<path class="st1" d="M579.4,499.6c6.9,4.2,14.8,6.7,22.9,3.5c2.4-1,4.6-2.2,6.5-3.6c2.8-2,5.1-4.4,7.1-7
		c-8.8,3.2-20.7,1.6-27.6-1.9c-7.6-3.9-13.4-10.9-21.3-14.2c-5.4-2.2-10.1-2.1-15.2,0.6c-0.1,0-0.2,0.1-0.3,0.2
		c6.2,3,12.6,9.6,15.7,12.6C570.7,493.2,574.8,496.8,579.4,499.6z"/>
	<path class="st1" d="M523.3,476.3c5.6,7.8,10.2,17.9,12.7,23.2c0.3,0.6,0.6,1.2,0.8,1.7c5.5,10.8,13.2,24.5,25.5,28.6
		c10.4,3.4,19.2,0.4,27.1-4.9c-10.5-1.1-21.5-8.4-27.2-15.6c-2.5-3.3-5.1-6.6-7.8-9.8C545.8,489.3,536.1,480.1,523.3,476.3z"/>
	<path class="st1" d="M497.5,500.5c5,10.6,10.3,21.6,18.5,30.3c5.8,6.2,12.9,12,21.5,13.3c5.6,1.1,9.7-0.6,13.9-2.6
		c-6.8-2-11.8-4.1-15.7-11.5c-4.4-8.4-8-17.1-12.3-25.6c-0.8-1.6-1.8-3.3-2.8-5c-9.2-15.3-25.2-30.9-42.8-24.6
		c8,4.4,16.2,18.8,19.1,24.6C497.1,499.8,497.3,500.2,497.5,500.5z"/>
	<path class="st1" d="M743.3,31.3c-9-1.5-16.4-1-21.7,5.4c2,0.8,3.9,1.8,5.8,2.8c9.9,5.4,22.3,9.5,32.5,3.4
		c6.4-3.9,10.7-11.3,13.2-18.5c1.7-4.7,1.3-8.2,1.7-9.6c-2.7,8.9-8.8,13.9-13.5,15.3C755.3,31.9,749.5,32.4,743.3,31.3z"/>
	<path class="st1" d="M794.9,81.6c1.8,10.5,6.3,19.7,3.5,29.4c1.9-1.4,3.9-2.7,5.6-4.2c5.9-5.3,7.8-13.4,8.2-21.1
		c0.5-11.7-4-21.8-7.9-32.4C799.5,62.3,793,70.4,794.9,81.6z"/>
	<path class="st1" d="M787.3,102.8c-3.1-14.6-0.4-30.1-12.8-40.3C773.1,76.5,771.4,98.5,787.3,102.8z"/>
	<path class="st1" d="M749.3,117.3c1.4-14.4-0.9-27.7-10.7-39.2c-3.9-4.5-8.3-9.4-13.8-12c-2.7-1.3-5.2-1.9-7.7-2
		c6.1,5.5,9.8,17.8,11.1,24c2.6,13,2.7,26.4,5.1,39.4c2.4,13,7.9,33.4,22.2,38.3c-3.6-5.9-6.1-12.7-7.3-19.3
		C746.2,136.6,748.2,127.2,749.3,117.3z"/>
	<path class="st1" d="M792.9,127.5c-2.2-6.2-5.7-12.3-10.6-16.7c-5.6-5.1-14-8.4-20.2-5.1c2.4,0.9,4.8,2.8,6.4,4.9
		c6.2,7.9,9.6,18.5,9.8,28.5c0.3,14.8-9.7,28.8-6.4,43.6c2.8,12.6,9.3,26.1,20,33.8c-9.3-13.1-9.2-32.1-4.7-47
		C791.2,156.5,798.1,141.2,792.9,127.5z"/>
	<path class="st1" d="M882,53c-2.3,4.1-3.5,8.6-4.8,13.1c4.1-2.8,10.2-3.3,15.4-5.2c6.6-2.4,12.6-7.2,15.8-13.8
		c1.8-3.8,3.3-8.1,3.2-12.4c-4.4,2.7-9.7,4.7-13.2,6.1C891.8,43.4,885.6,46.5,882,53z"/>
	<path class="st1" d="M900.7,77.1c-9.3,5.4-16.5,12.7-17.6,25.3c-0.6,6.8,0,13,1.7,19c1.2-10.9,9.4-16.3,17.9-23.1
		c8.1-6.4,14-15.6,13.9-27.4c-0.1-3.5-0.7-6.8-1.4-10C911.3,68.1,905.3,74.4,900.7,77.1z"/>
	<path class="st1" d="M1025,79.4c0.4,6.4-0.9,12.3-3.5,18.2c-5.2,11.8-9.3,23.3-8.1,36.5c1.3,14.4,7.3,25.6,17.7,35.5
		c3.7,3.5,7.3,5.9,11.5,7.8c-4-5.6-6.9-11.9-8.2-18.3c-2.2-11-1.2-22.2,0.1-33.2c1.2-11.1,3.2-22.9,1.2-34.1
		c-2-11.1-7.8-19-16.4-25.2C1021.8,70.7,1024.7,74.3,1025,79.4z"/>
	<path class="st1" d="M957.4,87.7c1.5,15.3,2.3,29.9,6.9,44.8c4.5,14.6,10.7,31.6,22.8,41.7c9.5,7.9,22.8,9.5,34.7,7.1
		c0.1,0,0.2-0.1,0.4-0.1c-20.9-6.9-36.1-28-40.8-49.1c-3.3-15-5.1-30.5-11.6-44.6c-3.3-7.3-7.4-14.2-12.6-20.3
		c-2.1-2.3-6.1-6.7-10.2-9.3C954.1,65.8,956.3,77,957.4,87.7z"/>
	<path class="st1" d="M663.2,188.5c4.6,6.4,9.6,8.5,16,9.6c-5.8-9.7-2.4-24.2-0.3-34.8c2.1-10.4,3-22.7-5.5-30.7
		c-1.3-1.2-2.6-2.3-4-3.4c0,0.6,0,1.3-0.1,2.1c-1.4,9.6-5.5,18-8.7,27.1C656.8,169.2,656.2,178.8,663.2,188.5z"/>
	<path class="st1" d="M697.8,202.6c4.2,4.8,8.2,8,12.9,10.5c-6.5-9.8-6.5-23.1-2-34.3c4.1-10,14.9-21.3,13.7-32.3
		c-1-8.7-6.6-15.2-11.8-22c2.9,15.1-13.4,28.7-19.3,43.3C686.4,180.5,688.8,192.1,697.8,202.6z"/>
	<path class="st1" d="M633.6,209.9c-0.9,1.3-1.8,2.8-2.8,4.3c-0.3,0.5-0.6,1-0.9,1.5c1.2,0.6,2.4,1.1,3.6,1.6
		c6.5,2.6,13.3,3.8,19.2,0.6c6.1-3.2,9-10.2,13-15.8C653.8,191.6,643.3,195.8,633.6,209.9z"/>
	<path class="st1" d="M661.4,226.5c-6.4,15.6-1.7,32.9-7.9,48c23.7-12.4,22.4-63.4,50.6-63.2c-6.8-3.4-12.8-5.9-21.6-3.2
		C674.1,210.7,665.2,217.1,661.4,226.5z"/>
	<path class="st1" d="M730.9,229.5c-12.5-9.3-31.4-10.3-42.2,2.4c-9.1,10.6-14.4,28.9-9.8,43c2,6,5,10.7,8.5,14.9
		c-6.9-21.9,0.1-48.9,24.4-53.3c9-1.6,17.9,2.3,19.4,12.4c0.6,4.1-0.7,10.8-3.7,14.8c5.6-0.9,10.7-8.1,11.1-14.6
		C739,241.6,737.1,234,730.9,229.5z"/>
	<path class="st1" d="M678.1,286.2c-2.4-2.8-5.2-4.7-8.2-6c3.3,6.6,3.7,14.5,2.6,22.8c-1.3,10.2-2.7,21.7,3.1,31.1
		c6.5,10.7,14.3,14.9,25.8,17.1c-8.9-8.4-13.3-19.7-14.7-31.7C685.4,308.4,685.6,295.7,678.1,286.2z"/>
	<path class="st1" d="M699.2,264.9c4.1,4.4,7.1,9.3,8.3,14.7c2.5,11.4-1.8,22.1-1.7,33.4c0.2,17.2,4.9,39.8,25.6,50.3
		c-2.7-3.6-4.8-7.4-5.7-11.4c-2.2-10.2,0.4-20.5,2.2-30.6C731.7,299.9,726.3,276.8,699.2,264.9z"/>
	<path class="st1" d="M740.6,175c-11.4,0.3-20.5,9.2-23.1,20.1c-2.9,12.2,3.6,28.5,18.8,30.5c6.1,0.8,12.8-1.9,16-7.2
		c1.6-2.8,2.2-9.3,0.6-12.3c-5.7-12-16.8-3.6-14.1,3.6c0.4,1.3,0.9,2.6,1.4,3.9c0.7,1.8-1.4,2.3-2.7,2c-13.1-2.8-19-19.9-7-28.6
		c15.5-11.3,30.4,8.6,30.1,23.1c-0.2,11.8-3.9,22.7-6.4,34.1c-2.9,13.7-4.7,28.1-2.5,42c2.3,14.7,8.1,28.6,18.8,39.2
		c7.6,7.5,18,15.2,29.3,10.8c0.8-0.3,1.5-0.6,2.3-0.9c-21-0.5-40.5-26.5-41.2-46c-0.6-16.4,6.1-30.9,9.7-46.5
		c3.1-13.3,3.2-27.5-1-40.7C765.5,189,756.2,174.6,740.6,175z"/>
	<path class="st1" d="M826.9,120.7c-19,28.3-31.2,60.7-24.3,95.1c3,14.8,7.8,29.8,16.8,42.1c9.5,13.1,31.9,32.7,48.7,20.5
		c9.5-6.8,20.1-24.7,10.2-33.8c-0.4-0.3-0.9-0.7-1.3-1.1l-0.1-0.1c-1.3-0.9-2.8-1.7-4.6-2.3c-5.9-2.1-14.2-1.7-15.8,5.8
		c-0.8,3.5-0.5,7.8,1.6,10.9c5.8,8.6,11.6-3.1,13.2-6c0.9-1.7,3.8,0.6,3.4,2.1c-4.5,18.1-22.3,20.2-35.9,9.8
		c-18.5-14-27.1-42.7-27-65c0.2-26.1,9.9-50.9,23.5-72.9c10.5-16.9,24-32.5,40.9-42.9C856.1,90.1,839.7,101.8,826.9,120.7z"/>
	<path class="st1" d="M824.6,180.6c0.1,13.7-3.9,27.9,0.2,40.8c1.8,5.6,4.6,11.6,9.8,14.9c4.9,3.1,9,3.5,13.5,2.4
		c-5.7-1-10-6.5-11.7-13.4c-1.5-5.8-2.2-12-1.8-18C835.1,196.9,829.9,188.8,824.6,180.6z"/>
	<path class="st1" d="M870.3,143.8c3.3-0.5,6.8,0.6,8.3,3.9c1,2.2,1.3,3.9,1.2,5.5c3.3-4.1,3.7-9.8,1.5-14.9
		c-4.7-11.2-17.9-13.8-27.2-5.7c-11.9,10.5-16.3,26.5-13.1,41.9c3.3,15.9,11.5,29.4,20.4,42.7c3.9,5.8,7.8,11.1,12.3,16.1
		c-3.7-7.6-6.5-15.8-9.3-22.3c-6.2-14.3-12.9-31.1-9.9-47.1C855.9,156.3,861.6,145.2,870.3,143.8z"/>
	<path class="st1" d="M936.4,102.1c-0.1-0.1-0.1-0.2-0.2-0.3c-4,12-22.4,23.9-28,30.3c-14.9,16.8-16.4,42.9-6,62.9
		c-0.2-4.8,1-9.9,3.1-14c5.7-11.2,14.5-12.8,24.1-18.9c11.9-7.5,17.7-25.4,14.5-39.5C942.3,115.4,940.1,108.2,936.4,102.1z"/>
	<path class="st1" d="M903,267.4c4.1-7.5,8.2-14.7,6.8-24.3c-1.9-12.9-8.8-24.3-15.2-35.5c-6.6-11.6-14.8-26.7-14.2-40.5
		c-3.2,6.6-5.6,13.4-5.5,20.9c0.1,11.8,4.5,22.6,10.1,32.9C892.8,235.4,901.3,251,903,267.4z"/>
	<path class="st1" d="M934.1,175.2c-18.1,11.3-32,61.2,5.6,93.7c0.1,0,0.1,0.1,0.2,0.2c1.9,1.6-21.3-27.4-14.8-62.6
		c1.6-8.5,4.1-17.3,11-22.8c5.2-4.1,12-4.2,18-2.6c5,1.3,11.5,5.3,9.7,12c-0.4,1.6-1.2,2.9-2.4,3.9c-3,2.1-4.9,0.6-5.8-4.6
		c0.1-0.4-0.1-0.8-0.3-1c-4,1.3-8.4,19,8.9,18.6c7.9-0.2,13.2-11.8,11.7-19.7C972.5,172.6,954.3,162.3,934.1,175.2z"/>
	<path class="st1" d="M952.1,219.8c-4.3,3.2-8.3,6.2-10,12.4c-2.4,8.4-1.7,16,2.7,23.6c4.8,8.4,10.7,16.1,11.2,25.1
		c2-4.2,3.2-8.7,2.7-13c-1-9.7-5.8-18.1-8.2-27.4c-1.4-5.5-3.4-14.3,0.5-19.4C951.4,220.5,951.8,220.1,952.1,219.8z"/>
	<path class="st1" d="M980.5,211.6c-0.2,0.4-0.4,0.8-0.6,1.2c-3.1,6.7-5.1,14-4.8,21.5c0.5,11.9,6.6,21,10.1,32
		c3.1,9.7,2.8,18.6-1.9,27.7c-2.3,4.6-5.1,9.9-9.1,13.7c11.9-6.7,23.1-17.6,24.1-31.7c1.1-15.3-5.2-28.1-11.4-41.6
		C984.4,228.9,981,219.8,980.5,211.6z"/>
	<path class="st1" d="M753.3,313.4c-3.6-6.8-8.1-12.2-13.6-17.4c8.5,14.2,7.1,28.9,3.1,46.1c-3.1,12.9-5.1,27,1.5,39.3
		c4.9,9.2,11.9,16.8,19.4,23.9c-0.5-1.1-1-2.1-1.5-3.1c-5.7-12.3-7.1-24.5-5.9-37.7C757.9,347.7,761.8,329.2,753.3,313.4z"/>
	<path class="st1" d="M682.2,360.3c-5.1,4.1-10.9,11.1-7.6,21c5.4,16,24.5,8.8,20.6-3.2c-1.5,3.5-4.1,7.7-8.2,5.4
		c-2.8-1.5-4.1-6.1-3.9-9c1.8-18.6,25.4-3.7,31.6,3.3c14.9,16.7,24.1,37.8,39,54.6c15.8,17.8,39.4,26.8,61.1,18.9
		c-13-1.6-25.5-7.4-35.9-15.7c-16.6-13-26.5-32.4-39.9-48.4C728.1,374.2,700.6,345.5,682.2,360.3z"/>
	<path class="st1" d="M803.8,291.8c-6.1-6.8-12.9-14.8-15-23.8c-1.8-7.5-3-22,0.9-31.7c-16.4,17.5-7.7,51.6,4.2,70.1
		c7.6,11.7,17.6,19.6,28.3,28.3c7.7,6.3,15.5,13.5,18.9,23.2c4.9,13.8,0.3,40.1-19.4,38.6c-8-0.6-16.4-4.6-19.9-12.3
		c-1.6-3.4-2.2-6.9-1.7-9.9c-6.8,5.3-5.4,19.3-0.1,26c9.3,11.8,26.4,14.6,40,4.5c27.1-20.2,16.1-62.2-4.7-82.7
		C825,312,813.5,302.7,803.8,291.8z"/>
	<path class="st1" d="M831.2,427.8c-19-2.8-40.3-12.5-45.1-33.1c-3.5-15.2,1.6-40.8,21.9-38c13.1,1.8,9,18.2,2.7,19.6
		c3.1,4.6,10.2-2.6,11.8-5.1c2.1-3.4,3.3-6.8,2-10.8c-3.1-9.8-14.2-14.8-24-12.1c-20.6,5.7-31.1,30.7-24.6,49.9
		c3.2,9.4,11,22.5,19.4,28.4c8.7,6.1,19,9.7,29.4,11.6c16.2,3,32.3-5.2,45.5-12.3C857.4,429.6,842.7,429.5,831.2,427.8z"/>
	<path class="st1" d="M860.5,350.1c0.5,18.6,5.1,38.7,18.3,51.6c0.5,0.5,1,1,1.6,1.5c-10.1-17.7-14.9-39.1-9.5-59.2
		c4.2-15.4,13.4-28.7,18.5-43.8c5.5-16.2,4.7-28.8-1.2-44.4c0.4,14.7-4.5,26.6-11.9,39.6C866.6,312.5,859.9,329.5,860.5,350.1z"/>
	<path class="st1" d="M898,300.5c-17.3,22.6-25.2,67.4-6,92c-4-8.6-3.7-18.8-3.6-28.1c0.2-12.9,0.2-25.8,5.1-38.1
		c12.7-31.8,44.1-29.7,44.1-29.7s-8.7,10.1,2,14.7c9.7,4.2,15.3-6.5,13.3-13.1C945.6,273.9,908.7,286.6,898,300.5z"/>
	<path class="st1" d="M961.2,309.6c-1.3,4.8-3.4,9.3-7.9,13.7c-7.5,7.3-18.2,9.8-26.7,15.8c-10.4,7.4-18.6,17.5-22.4,29.9
		c-2.3,7.6-4.1,15.8-2.4,23.6c0.8,3.7,2.2,7.2,3.6,10.8c-2.7-19.3,5-40.2,21.9-50.8c13.6-8.5,27.2-15.9,32.1-32.5
		C960.4,316.5,961,313,961.2,309.6z"/>
	<path class="st1" d="M914.6,398.2c8.7-10.9,26.9-18.9,39.5-20.5c12.3-1.6,25.4,6.2,37.6,4.6c7.8-1,15.5-6.8,20.6-13.2
		c2.4-3,3.7-6.1,4.4-9.2c-4.3,4.8-10,8.5-16.2,9.8c-12.4,2.7-21.6-2-33.2-5.3C944.8,357.9,920.5,376.2,914.6,398.2z"/>
	<path class="st1" d="M859.5,440c-8.5,0.5-20.4,3.6-26.7,10.3c-6.3,6.6-9.2,15.5-12.9,23.9c5.4-5.7,10.3-9.4,18.1-8.9
		c14.6,0.8,30.2-0.7,41.4-13c3.8-4.2,6.1-9,8-14C878.6,441.1,868.1,439.5,859.5,440z"/>
	<path class="st1" d="M868.9,474.6c-7.8,4.2-12.2,10.8-15.2,17.9c5.9-4.6,15.5-6.6,22.8-10.3c7.6-3.9,15.3-9.5,19.1-16.6
		c1.3-2.4,2.2-4.7,2.6-7.1c-3.6,3.2-8.5,6-11.9,7.8C880.6,469.4,874.5,471.6,868.9,474.6z"/>
	<path class="st1" d="M896.9,442.9c5.8,31.7,37.6,19.5,54.5,29.2c1.8,1,3.5,2.2,5.2,3.5c-0.5-1.3-1.1-2.5-1.7-3.7
		c-7-13.7-18.1-27-30.5-26.6C917.6,445.6,903.9,449.6,896.9,442.9z"/>
	<path class="st1" d="M900.7,417.9c0-0.1,0-0.2-0.1-0.2c-2.3-1.4-4.4,0-5.9,2.1c-1.4,1.1-2.5,2.5-2.7,4.4c-0.2,2.1,0.6,4.4,1.9,6.2
		c0.6,1.3,1.4,2.4,2.4,3.4c6.3,6.2,14.3-2.1,14.1-9C910.3,419.9,905.2,417.8,900.7,417.9z"/>
	<path class="st1" d="M946.9,410.6c-15.6-2.7-22.7,7.8-29.1,19.3c14.1-7.2,39.2,5.3,47.8,14.9c11.5,12.9,17.8,32.8,37.9,34.5
		c13.2,1.1,21.5-7.6,27.1-18.5c-4.7,2.5-9.6,4.2-13.5,4.9c-13,2.6-23.3-7.8-29.4-18C977.7,430.9,968.1,414.3,946.9,410.6z"/>
	<path class="st1" d="M741.8,424.3c-1.1-1.1-2.2-2.2-3.4-3.2c-5.2-4.2-11-8.3-17.3-10.8c-12.4-4.8-26.9-4.6-38.3,2.8
		c-20.3,13.2-27.9,42.6-17.6,64.5c3.9,8.3,10.8,16.5,19.2,21.9c10.8,7.1,23.9,9.6,36.1,2.1c1-0.6,2-1.4,3-2.1
		c8.1-6.8,12.4-19,5.7-28.5c-5.4-7.7-16.7-10.1-22-1.2c-4.5,7.5,1.5,16.8,10.1,15c1.7-0.4,2.5,2.3,1.3,3.5
		c-11.4,11.5-25.8,10.6-37.5,0c-12-11-16.8-29.2-11-44.4C681.8,412.7,715.7,411.2,741.8,424.3z"/>
	<path class="st1" d="M751.6,486c2.7,2.5,5.9,5,9.6,5.8c4.7,1.2,7.8,0.2,11-1.8c-5-0.9-9.5-4.9-13.2-8.9c-3.7-4.1-7-8.8-11.2-12.3
		c-5.4-4.4-8.7-2-12.8,1.5c2.9,1.1,6.7,4.2,7.7,5.2C746,478.7,748.2,482.9,751.6,486z"/>
	<path class="st1" d="M765.3,453.4C754,443,738.6,431.7,723,433.3c-14.2,1.4-23.3,9.9-28,23.3c5.4-5.7,13.9-9.8,19.1-11.1
		c16.4-3.9,30.5,6.8,42.9,17.3c13,11,25.3,28,41.6,33c8.8,2.7,19.7,4.7,28-0.9c0.5-0.3,0.9-0.6,1.3-1c-9.9,1.5-20-2.5-29.3-8.1
		C785.3,477.8,776.8,464.1,765.3,453.4z"/>
	<path class="st1" d="M1007.6,497.5c-2.5,0.7-5.1,1.4-7.7,2c-11.3,2.8-22.9,5.3-33.4,10.5c-13.4,6.6-28.8,18.1-25.4,34.3
		c2.4-7.4,9-13.6,16.4-17c14.6-6.7,29.2-2,44.3-5.1c14.6-3,27.4-11.3,37-22.6c1.9-2.2,3.6-4.5,5.3-7c5.4-8.2,9.7-17.1,11.9-26.7
		c0.2-0.7,0.3-1.5,0.4-2.2C1044.7,480,1027.6,491.8,1007.6,497.5z"/>
	<path class="st1" d="M1069.3,476.3c2.6,7.6,7.7,12.9,12.8,18.8c1.2,1.4,2.4,2.9,3.5,4.4c6.9,9.4,12.1,21.4,8.8,32.8
		c3.1-4.6,5.6-9.6,6.2-15c0.6-6.4-0.7-12.3-3.2-17.8c-1.6-3.7-3.7-7.1-6.1-10.5c-5.5-7.8-12.5-15.5-15.4-24.7
		c-1.8-5.9-2.4-11.8-2.2-17.7C1068.2,455.2,1065.9,466.3,1069.3,476.3z"/>
	<path class="st1" d="M1027.4,336.3c-10.2-3.7-20.6-3.5-29.6,2.5c-2.7,1.8-4.7,3.6-6.2,5.4c8.5-4.6,20-6.3,28.6-3.6
		c15.3,4.8,26,22.3,30.6,34.2c5.3,13.6,6.5,32.8-9,42.8c-5.9,3.9-16.4,7.7-24.2,5.9c6.5,3.2,15.9,4.3,21.4,3
		c10.2-2.4,18.8-8.4,22.9-16.5c6.4-12.6,4.2-27.8-1.4-40.4C1054.6,356.3,1044.1,342.3,1027.4,336.3z"/>
	<path class="st1" d="M1016.7,407.3c4,1.2,10.2-1.6,12.4-3.4c3.1-2.6,4.7-6.1,4.4-10.3c-0.7-9.1-9.6-13.5-18-12.8
		c-15.1,1.2-24.9,15.7-25.5,30.1c-0.5,14.6,6.2,31.4,20.3,37.7c10.5,4.7,22,3.1,30.8-4.4c2.7-2.4,5-4.8,7-7.5
		c-10.1,5.8-22.9,7.1-32.9,0.8c-10.7-6.8-19.6-19.2-17.9-32.5c0.8-6.4,10-21.7,18.6-16C1021.5,392.7,1023.5,405.2,1016.7,407.3z"/>
	<path class="st1" d="M1124.4,391.2c-8.8-11-14.2-24.2-22.9-35.3c-5.2-6.7-12.4-14-20.3-17.3c-6.4-2.7-12.8-3.1-19.6-1.5
		c-1.6,0.4-3,0.7-4.5,0.9c20.1,6.5,27.1,34.2,37.2,49.9c8.6,13.5,23.4,28.7,40.5,29.9c9.9,0.7,17.3-3.3,23.9-10.4
		c1-1,1.9-2.1,2.8-3.2c-3.2,0.8-6.1,1.2-8.4,1.3C1141.3,406.1,1131.6,400.3,1124.4,391.2z"/>
	<path class="st1" d="M1152.1,440.3c-18.6-2.5-39.2-2.6-53.7-16.3c-5-4.8-9.6-11.9-12.8-19.6c-1.5-3.5-2.7-7.1-3.5-10.7
		c-2.7,29.1,12.3,61.3,40.6,71.5c16.4,5.9,34.5,0,50.4,8.3c6.8,3.6,10.8,9.8,12.7,17c0.7,2.7,1.3,5.9,1.3,8.9c0,4.6-1.3,8.9-5,11.2
		c2.6,0.3,5,0.3,7.2,0c7.3-1,12.3-5.3,15.1-11.2c5.3-10.7,3.5-26.7-4.2-37.4C1189.2,446.8,1169.6,442.7,1152.1,440.3z"/>
	<path class="st1" d="M1152.6,351.4c-11.2-7.6-21,6.4-19.5,15.4c2.3,13.3,21.1,23.4,33.6,16.7c9.5-4.9,14.9-16.2,13.7-26.8
		c-2.1-19-17.6-34.3-15.8-54.1c0.5-5.4,3.6-11.5,7.9-15.6c-3.7,0.2-7.2,1.5-10.2,4.6c-4.8,5-7.8,11.5-8.8,18.3
		c-1.2,8.5,0.1,18.1,4.8,25.4c3.7,5.7,8.1,10.9,11.4,16.9c4.1,7.4,4.4,19.8-4.8,23.6c-6.8,2.9-11.2,1.9-15.8-3.5
		c-1.8-2.1-0.8-4.3-0.8-4.3C1156.7,366.5,1159.8,356.3,1152.6,351.4z"/>
	<path class="st1" d="M1112.2,339.8c-3.9-3.2-7.8-3.3-11.8-3.1c3.2,3,5.7,7.1,7.1,10.9c3.5,9.3,7.6,15.4,13.8,21.1
		c-1.9-3.5-2.6-7.7-3-12C1117.7,350.7,1117.2,344,1112.2,339.8z"/>
	<path class="st1" d="M954.2,355.4c16.5-15.3,34-30.8,56.5-35.8c19.8-4.4,43.8-5.7,55-25.6c6.8-12,6.3-27.8,0.2-40
		c-5.2-10.4-14.2-18.3-27.4-18.7c-11.5-0.4-26,9.4-26,23.1c0,6,0,14.5,11.9,20.1c3.5,1.7,11.3,1.4,13.9-1.6c6.1-7.2,3-16.2-4-16.2
		c-5.4,0-6.4,3-6.5,2.1c-0.6-11.3,10.8-20.8,21-12.6c11,8.8,7.8,26-1.7,34.5c-11.9,10.6-27.2,14.6-41.4,21
		C957.3,327.1,954.4,353.6,954.2,355.4z"/>
	<path class="st1" d="M1039.1,190.4c-11.1-0.5-22.4,4.7-28.6,14.1c-5.7,8.6-6.4,17.7-3.6,26.7c3.7-14.7,20-24.5,34.8-23.2
		c14.2,1.2,25.6,14.8,31.4,28.2c0.5-8.3-0.4-16.7-4.5-24C1062.7,202.1,1051.4,191,1039.1,190.4z"/>
	<path class="st1" d="M1109.9,196.1c-2.6,1.3-5.1,2.6-7.2,4.8c-3.9,4.2-6.7,8.8-8.7,14.3c-4.1,11.1-5.9,21.5-5.4,33.4
		c0.7,16.1,0.4,31.3-7.9,44.4c6.4-3.2,12-6.8,14.9-15.2c4.7-13.5,2.5-27.3,3.5-41.3C1099.9,225.1,1102.5,207.8,1109.9,196.1z"/>
	<path class="st1" d="M1110.7,299.9c7.7-9.1,10.1-17.1,11.3-28.2c1-9.6,0.6-22.9,2.2-32.4c2.2-13.8,9.7-28.6,22.6-32.7
		c7-2.2,12.7-1.3,17.4,2c-6.4-9.3-19.3-16.2-31.5-9.9c-8.9,4.6-14,12.2-17.5,19.1c-8.7,17-4.4,38.5-8.6,53.8
		c-4.1,14.9-11.3,25.2-23.2,35c-3.5,2.9-22.3,15.9-34.4,19.7C1084.9,330.8,1103.7,308.1,1110.7,299.9z"/>
	<path class="st1" d="M1166,265c-19.5,5.8-30.4,27.1-41.2,42.7c-5.3,7.7-12.1,16.6-20.7,20.7c9,3.7,16.7-0.5,23.7-6.3
		c9.3-7.6,16.5-16.6,23.2-26.4c8.3-12.2,24.3-32.5,40.8-19.9c5.5,4.2,11.4,11.4,10.2,19c-0.5,3-2.5,12.3-7.7,10.3
		c-4.1-1.6-5.9-6.7-4.5-9.9c-10.3,0.7-11.9,9.4-10.9,13.5c2.7,11.6,16.2,11.2,22,3.7c2.6-3.3,4.7-7,6-11.1c3.2-10.5,1-22.7-7.7-30.3
		C1189.9,263.1,1176.9,261.7,1166,265z"/>
	<path class="st1" d="M1139.3,161.6c-10.2,0.5-19,4.4-26.4,10.2c4-2,8.3-3.4,12.8-4.2c17.4-3.1,34.2-0.9,46.5,12.7
		c10.6,11.7,17.6,27.1,14.7,43c-2.6,14.1-15.5,20.3-28.6,17.1c0,0,10.6-5.2,3.6-15c-2.5-3.4-9-4.3-13-1.8c-5.3,3.4-8.6,10.8-7,17.1
		c4.4,17,28,15.8,37.9,5.4c13.7-14.4,19.6-34.5,10.7-53.1C1181.3,173.7,1161,160.5,1139.3,161.6z"/>
	<path class="st1" d="M1113.5,130.7c-4.7,11.2-19.8,15.5-28.3,24.7c-9.1,9.8-11.5,22.7-10,35.7c0.6,4.5,1.5,8.9,2.8,13.3
		c-0.1-1.8-0.1-3.5-0.1-5c0.3-8.8,3.4-16.6,9.7-22.9c6.2-6.1,13.7-10.9,19.3-17.4C1115.1,149.7,1114.9,140.7,1113.5,130.7z"/>
	<path class="st1" d="M1121.3,33.7c-2.4-1.1-4.8-1.8-7.2-2.4c11.7,15.4,5.1,43.1-6.6,56.7c-11.5,13.3-26.6,24.5-35.2,40.1
		c-4.6,8.4-7.2,17.4-8.3,27c-0.6,5.4-1.3,11.2-0.3,16.6c0.9-7.7,3.7-15.7,5.7-21.4c5.8-15.8,16.3-28,30.3-37.2
		c16-10.5,37-18.6,39.2-40.5C1140.2,59.6,1134.6,39.6,1121.3,33.7z"/>
	<path class="st1" d="M1087.8,37.9c7.3,3.5,13.8,9.2,16.7,17.4c1.3,3.5,2.4,10.8,1.8,17.2c2.1-2.8,3.7-6,4.3-10.1
		c1.6-12.3-6-22.8-15-29.6c-6.5-4.8-14.3-8.3-19-15.4c-2.1-3.2-3.8-6.8-5.3-10.4c-1.1,6.5-0.2,12.6,2.5,18.7
		C1077.1,33.4,1081.5,34.9,1087.8,37.9z"/>
	<path class="st1" d="M1047.7,57.9c-1.5,8.6,0,19.8,16.6,19.3c7.5-0.2,14.5-11.6,5.7-17.7c-3.6-2.5-6.9-1.6-6.9-1.6
		c3.8-7.7,14.6-6.3,19.6,0c6.5,8.4,2.9,20.1-2.4,28c-8.7,13-22,22.1-28.1,37c-3.2,7.8-6.5,17.3-6.3,25.9c0.3,11.4,5.1,21.1,9.8,31.1
		c-5.4-19.3-5.4-42.4,5.4-59.5c10.3-16.2,28.3-28.8,28.9-49.5c0.3-10.5-2.8-24.4-14.6-27.6C1063.8,40.2,1049.7,46.6,1047.7,57.9z"/>
	<path class="st1" d="M1135.2,130.3c1.7,6.5,5.1,13.2,11.6,16.1c3.9,1.8,8.2,2.6,12.3,3.6c-12-13.6-18.9-33.9-16.2-51.9
		C1136.8,107.9,1131.9,118.1,1135.2,130.3z"/>
	<path class="st1" d="M1174.7,57.7c-7.8,12.8-18.3,23.8-18.5,39.8c-0.1,15.1,5.2,29.4,13.1,42.1c-3.5-10.6-4.9-21.4-0.5-31.1
		c5.1-11.2,15.1-20.4,15.8-33.3c0.6-10.8-2.6-20.9-5.8-31.1c0.2,0.5,0.2,1,0.1,1.5C1178.6,49.9,1177,54,1174.7,57.7z"/>
	<path class="st1" d="M1203.8,25.3c5.2,12.7,6.2,27.6,2.1,40.7c-4.4,13.9-13.9,23.5-20.3,36.2c-4.5,9-5.4,17.6-2.7,27.4
		c0.1,0.4,0.2,0.8,0.3,1.1c0.4-10.3,2.8-20.8,6.9-28.5c6.1-11.5,15.4-20.9,22.3-31.9c8.2-12.6,10.6-25.3,5.2-39.8
		c-3.4-9.1-8.4-19.1-16.6-24.7c-5.8-4-14.2-6.8-21.7-5.5c4,2.2,8.2,3.9,11.6,7.1C1196.3,12.5,1201,18.4,1203.8,25.3z"/>
	<path class="st1" d="M1196,246.5c3.8,0.3,7.6,0.7,11.3,0.4c9.6-0.9,16.8-8.6,21.7-16.4c9.2-14.4,9-27.8,5-43.9
		c-4.1-16.6-2.1-32.4,1-49c1-5.5,2.5-10.2,4.7-14.3c-5.6,1.2-11.3,2-15.9,6.1c-5,4.5-9.1,9.7-11.7,16c-5.7,13.9-6.5,28-5.2,42.8
		c1.2,13.1,3.5,27.3-0.4,40.2C1204.5,235.3,1200.7,241.3,1196,246.5z"/>
	<path class="st1" d="M1186,367.2c0.4,9.9,4.7,21.6,12.1,28.4c4,3.8,8.5,5.8,13.3,7.3c-5.2-9.6-8.5-21.2-6.9-30.9
		c2.5-14.5,13.7-23.1,22.5-33.9c12.1-14.8,15.2-34.2,7.7-51.8c-2.8-6.5-6.4-13.7-11.8-18.5c-3.1-2.8-5.9-4.1-8.9-4.7
		c7.1,5.6,10.9,14.3,12.3,23.7c2.1,14.5-0.4,26.3-11,36.8C1202.9,335.8,1185.3,347.5,1186,367.2z"/>
	<path class="st1" d="M1265.8,307.3c-1.1-13.5-8.9-27.9-22.6-31.2c12.6,16.7,22,36.4,8,55.5c-5.6,7.7-14.6,16.1-15.4,26.1
		c-1,11.8,6.4,21.4,17.1,23.7c-0.7-1.2-1.3-2.5-1.7-3.6c-4-10-4.9-18.8,0.2-28.7C1258.7,335.2,1267.2,323.9,1265.8,307.3z"/>
	<path class="st1" d="M730.6,44.3c-11.4-6.1-30-3.9-41.8,1.8c-27.1,13.1-34.9,48.8-16.1,69c8.5,9.2,23.1,7.5,32.8-0.8
		c4.8-4,8.3-10,8.5-16c0.1-0.5,0.1-1,0.1-1.5c0-6.4-5.2-11.7-11.7-11.7s-11.7,5.2-11.7,11.7c0,5.5,3.8,10.1,9,11.3
		c-11.1,6.8-21.8-2.7-24.7-15.1c-3-12.6,4.3-28.3,14.9-35.5c12.6-8.6,42.4-5.5,62.4,8.6C751.5,65.6,746.9,53.1,730.6,44.3z"/>
	<ellipse class="st1" cx="1240.6" cy="259.3" rx="11.5" ry="11.7"/>
	<path class="st1" d="M629.9,19.9c-4.1,2.9-8,6-11.6,9.5c-1.3,1.2-2.5,2.5-3.7,3.7c2.2-0.1,4.5,0.1,6.5,0.2
		c4.3,0.2,8.4,0.5,12.5,1.2c3.7,0.6,7.3,1.5,11.1,2.8c9.5,3.3,19,6.9,28.9,3c6.5-2.6,11.6-6.5,16.5-10.7c-3.8-0.5-7.6-2.2-11-4.1
		c-7.1-4-14.1-7.8-22.1-9.7c-8.1-2.1-16.1-1.8-23.4,1.9C632.3,18.3,631.1,19.1,629.9,19.9z"/>
	<path class="st1" d="M661.3,417.6c5.1-4.9,9-10.8,11.2-18.9c0.5-1.6,0.8-3.3,1.1-5c-5,3.2-10.7,4.1-16.3,6.2
		c-13,4.8-14.2,19.3-16.1,34.3C646.7,427,656,422.7,661.3,417.6z"/>
	<path class="st1" d="M660.8,346.7c-2.9-6.5-3.9-14.2-8.4-20.1c-3.4-4.4-7-4.1-11-3.2c3.8,4.4,4.3,12.6,5,17.1
		c0.9,5.8,1.9,12.9,6.5,17.3c5,4.8,12.7,7,18.6,1.7c1.9-1.7,3.6-3.4,5.4-5.1C670.1,355.2,664.1,354.3,660.8,346.7z"/>
	<path class="st1" d="M641.1,224.6c-2.4-1.6-4.9-2.7-7.4-3.4c-18.1-4.5-37.9,15-44.5,30.3c-0.6,1.5,11.6-11.7,22.4-14.1
		c6.8-1.5,13-2.5,19.1,0.5c1.1,0.5,2.1,1.3,3,2.3c3.5,3.7,5.5,9.8,1.9,12.8c0.4-2.6-0.5-4.9-1.9-6.6c-3.5-4.1-10.7-5-14.8,1.2
		c-4,5.9-3.8,15.5,2.1,20.2c3.8,3.1,8.3,4.1,12.7,3.5c3.3-0.4,6.5-1.7,9.5-3.7C658.9,257.1,655.4,234.3,641.1,224.6z"/>
	<path class="st1" d="M641.6,95.1c-1.9-5.3-2.6-11.1-4.9-16.3c-0.8-1.8-1.9-3.3-3.1-4.5c-5.2-5-13.6-4.7-20.9-2.9
		c5.6,4.2,10.2,13.5,11.6,17.6c2.1,6.2,4,14.5,9.1,19c0.1,0.1,0.1,0.1,0.2,0.2c6.7,5.8,13.7,3.9,19.8-0.2
		C647.7,107.1,643.7,100.9,641.6,95.1z"/>
	<path class="st1" d="M635.3,302.4c-0.6-0.4-1.1-0.8-1.6-1.2c-5-3.8-9.4-9.2-12.5-14.4c-5-8.3-6.7-15.8-16.9-24.2
		c-28.1-23.4-61.3,8.5-60.5,8.6c0.2,0,14.4-2.9,22.6-1.9c10.6,1.3,18.9,6.7,27.7,12.4c11,7.2,18,18,27.6,26.6c3.4,3,7.5,5.4,12,6.6
		c3.2,0.9,6.5,1.2,9.7,0.8c6.5-0.8,13.5-7.4,13.8-14c0,0-2.4,1.9-5.5,2.9C644.7,306,641.3,306.5,635.3,302.4z"/>
	<path class="st1" d="M765.2,550.9c-0.8-8.5-5.2-14.6-9.8-20.9c0.7,3.1,0.9,6.2,0.2,9.3c-1.5,6.4-4.8,11.7-8.7,17.2
		c-4.2,6.1-10.7,14.2-8.6,21.7c2,7.1,8,11.4,14.7,14.6c-1.8-4.5-1.7-10.5-0.3-13.8C757,569.4,766.4,562.2,765.2,550.9z"/>
	<path class="st1" d="M694.2,586.3c-3.6-1-7.2-4.2-10.3-6.5c-12.3-9.5-29.5-5.9-36,6.6c4.7-0.4,9.7,1.4,14.1,3.5
		c3.6,1.7,7.2,3.7,11,4.9C681.6,597.5,689.8,593,694.2,586.3z"/>
	<path class="st1" d="M807.8,571.4c10.5-14.4,4-32.5-3.5-47c6.3,18.1-7.6,29.9-24.3,37.9c-13.4,6.4-22.1,18.6-20.9,33.5
		c0.9,11.2,6,20.1,11.1,29.2c-0.7-2.6-1.5-5.1-2.2-7.5c-1.8-5.9-3.4-11.8-2.3-18c1.5-7.6,8.6-12,15.4-14.6
		C790,581.5,802,579.4,807.8,571.4z"/>
	<path class="st1" d="M827.7,552.3c-5.9,8.7-7.7,19.6-1.2,28.7c1.7,2.3,3.5,4.3,5.5,6.2c0-5.9,3.3-11.9,6.6-17.9
		c5.3-9.7,6.2-18.3,3.6-29.3c-0.3-1.4-0.7-2.8-1-4.2C837.7,541.5,832.1,545.9,827.7,552.3z"/>
	<path class="st1" d="M923.1,541.2c-10.9,7-23,7.3-35.5,7.1c-13.8-0.2-28.7-0.1-36.4,13.3c-4.3,7.4-8.1,17.7-5.3,26.3
		c4.1-17.2,24.3-17.8,40.3-18.6c11-0.5,23.5-1.9,31.6-10.3c4.7-4.9,8.6-11.6,10.6-18.1c0.6-1.9,1-3.9,1.2-5.8
		C927.8,537.5,925.6,539.6,923.1,541.2z"/>
	<path class="st1" d="M705.8,668.5c8.3,1.4,18.1-0.6,21.6-9.2c2.2-5.3,3.2-11.6,1.2-17.2c-2.5-6.8-8.4-13.1-16.4-10.8
		c-0.7,0.2-1.3,0.4-2,0.6c3.1,0.3,5.9,1.8,6.8,5.2c2.1,7.6-5.4,16.1-13.3,16.2c-15.7,0.3-20.4-16.9-15.7-29.3
		c5.8-15.4,20.1-25,36.6-20c18.8,5.8,40.9,28.8,42.3,49.8c0.9-23.8-13-49.6-34.5-59.9c-24.3-11.6-56,0.4-57.4,29.8
		C674.1,643.4,684.7,665.1,705.8,668.5z"/>
	<path class="st1" d="M739.2,636.6c8.7,13.1,12.3,28.7,14.4,44.3c2.6,19,2.3,44.2,13.3,60.4c2.4,3.5,5.2,6.8,8.1,10
		c-2.3-5.9-4.5-11.8-5.7-18c-3.3-16.3-2.6-32.8-4.3-49.3c-1.8-17.5-7.3-33.9-18.2-47.5c-4.5-5.7-10.2-12.2-17.3-14.2
		c-4.6-1.3-9-0.6-13.3,0.5C725.5,624.2,733,627.3,739.2,636.6z"/>
	<path class="st1" d="M801.7,613.7c-4.8-1.6-9.2-0.7-13.5,0.8c5.6,4,12.6,14.4,13.9,16.6c4.7,7.8,12.6,10.4,19.5,15.6
		c1.3,1,2.7,2.1,4,3.4c-0.3-1.7-0.7-3.4-1.3-5c-2.1-6.4-4.6-12.9-8.4-18.5C812.4,621.5,807.9,615.7,801.7,613.7z"/>
	<path class="st1" d="M839,673.9c1.2,12.7,4.4,25.2,10.9,36.2c6.6,11.4,15,20,25.8,27.4c0.6,0.4,1.1,0.8,1.7,1.1
		c-13.8-26.7-16.2-60.9-22.2-89c-4.2-19.8-11.4-40.8-25-56.3c-6.8-7.8-17.4-17.2-28.8-13.1c-7,2.6-11,7.7-13.8,13.8
		c5.8-4.4,16.6-4.3,22.3-1c14.5,8.3,22.4,27.1,26.3,42.6C839.4,648.1,837.8,661.2,839,673.9z"/>
	<path class="st1" d="M878.4,709c0.3,14.7,4.1,33.5,16.8,42.7c3.8,2.8,8.1,5,12.3,7.3c-8.7-12.2-17.3-24.9-19-39.9
		c-2.1-18.4,4.9-36.2,8.3-54c1.9-10,3.4-21.1,0.1-31c-3.4-10.2-12.1-22.3-24.4-20.1c-8.4,1.5-16.8,8.7-13.2,18.2
		c1.8,4.8,4.4,8,9.3,9.7c1.7,0.6,5.2,1.6,7.9,1.4c-2.7-1.7-5.7-5.3-6.4-6.8c-3.1-6.4-1.3-11.9,5.3-15.1c13.4-6.5,15.8,15,15.8,23
		C891.3,667,877.5,686.5,878.4,709z"/>
	<path class="st1" d="M909.3,675.6c0.9,7.5,3.5,18.1,10.3,22.5c10,6.5,19.5-7,19.6-16c0.1-9.5-5.1-19.2-15.4-11.1
		c-1.5,1.2-4.2-0.2-3.9-2.1c2.5-14.2,1.6-29.3-1.9-43.3c-2.9-11.6-6.6-24.4-15.8-32.8c-9-8.3-23.1-14.4-34.8-7.7
		c-5.7,3.3-10.2,8-12.8,13.5c8.4-6.9,23.8-5.8,32.9-0.9c13.8,7.4,22.8,24.9,23.5,40.1C911.6,650.3,907.8,663.2,909.3,675.6z"/>
	<path class="st1" d="M963.2,667.1c4.4-4.7,7.5-10,7.6-17.2c0.1-8.6-2.1-16.6-5.6-24.4c-5.6-12.6-14.3-25.7-14.8-39.8
		c-0.5-12.6,5.3-23.2,15.9-30.1c6-4,13.2-6.8,20-5.9c-3.5-8.1-16.8-12.7-24.4-10.6c-9.7,2.7-17,10.5-22.2,18.8c-9,14.3-7,28,1.5,42
		C952.7,619,972.1,643.9,963.2,667.1z"/>
	<path class="st1" d="M961.2,586.9c4.7,2.4,8.7,9.1,10.7,12.8c3.3,6.3,5.4,14.4,10.5,19.5c3.3,3.3,7.4,5.5,11.2,8.1
		C992.4,607.2,982.3,588.1,961.2,586.9z"/>
	<path class="st1" d="M1002.9,648.8c2.8,9.1,8.1,16.8,16.8,21.1c5.7,2.9,11.9,4.4,18,5.9c-7.6-7.1-16.3-13-18.5-24.2
		c-2.1-10.5-2.4-21.4-3.6-32.1c-1.3-11.8-2.6-25.1-8.4-35.7c-2.3-4.3-5.5-8.8-10.3-10.7c-2.9-1.1-5.9-1.2-8.8-0.9
		c2.4,1.2,4.4,3.3,5.7,5.6c4.9,8.6,6.2,19.4,6.7,29.1C1001.4,620.7,998.8,635.4,1002.9,648.8z"/>
	<path class="st1" d="M981.1,677.6c11-8.5,16.1-20.2,12.7-34.4c-0.2-0.7-0.4-1.5-0.6-2.2c-1.6,10.5-7.3,20.2-16.6,27.6
		c-7.3,5.8-16.7,11.2-20.5,20.1c-0.9,2.1-3.4,11.9-3.1,18.7C957.7,695.1,971.7,684.9,981.1,677.6z"/>
	<path class="st1" d="M947.5,696.5c1.9-4.8,2.4-9.4,2.4-14.2c-5.5,13.6-22.8,21.1-31.1,33.5c-6.8,10.2-9.4,23.3-4.4,34.9
		c2.7,6.4,6.4,12.7,13,15.7c2.5,1.2,5.2,2,7.8,2.9c-5.5-5.8-10.7-12.1-11.9-20.2c-1.2-8.3-2.1-19.6,2.5-27
		C931.7,712.7,943.3,707.1,947.5,696.5z"/>
	<path class="st1" d="M1070.4,690.9c10.8,7.9,21.6,15.8,28.8,27.2c4.4,7.1,4.7,13.5,5.8,16.1c5.1-11.6,2.9-27.9-1-35
		c-7.7-14.4-20.1-27.6-35.4-38.7c-14.7-10.6-28.2-14.9-33.8-42.4c-3.2,15.7-3.7,33.1,5,44.9C1048.2,674.4,1059.2,682.6,1070.4,690.9
		z"/>
	<path class="st1" d="M816.6,715.6c8.6,55.3,34.9,54.2,60.9,49c-17.7-1.9-33.9-13.6-39.8-21.3c-6.9-8.9-11-20.1-13.3-31.2
		c-2.6-12.5-2.3-24-3.1-36.6c-0.8-12.8-5.3-26.9-19.5-30.1c-11.1-2.6-21.7,4.2-23.4,15.7c-2.9,20.1,26.1,23.1,23.2,1.4
		c-0.2-1.7,2.4-1.8,3.4-1.1C822.1,673.5,813.9,698.1,816.6,715.6z"/>
	<path class="st1" d="M844.1,788.5c3.1-0.1,6-0.6,9-1c-19.6-3.9-35.1-19.3-44.6-36.1c-5.5-9.8-9.6-20.1-11.3-31.1
		c-1.6-10.8-0.1-21.4,1.1-32.1c-5.2,8.2-12.3,15.6-14.8,25.3c-3.4,13.7,0.2,27.9,7.2,40c7.1,12.2,17.6,22.5,30.6,28.8
		C828.4,785.7,836,789,844.1,788.5z"/>
	<path class="st1" d="M787,786.6c1.1,0.7,2.3,1.3,3.4,1.8c-7.8-7.8-14.1-18-19.3-26.8c-12.6-21.2-22.2-45.6-38.5-64.1
		c-8.5-9.8-20.2-18.4-33.7-16.8c-12,1.5-24.8,10.4-27.5,23.2c-2.5,12,5.4,30.9,20.4,29.2c7.7-0.9,11.2-4.6,11.7-11.1
		c0.9-11.6-13.5-13.2-16.8-3.8c-0.6,1.8-3.3,0.2-3.8-1.1c-6-14.1,0.8-29.8,16.2-32.8c14.8-2.9,22.9,8.2,30.4,19.6
		c12.2,18.4,21.1,39,33.5,57.2C769.4,770.5,777.1,780.8,787,786.6z"/>
	<path class="st1" d="M749.2,772.4c-10.4-20.9-13.4-45.7-37-55.8c2.1,2.8,3.6,6,4.4,10.3c3,16.6,3.5,33.4,16,46.9
		c9.2,10,20.2,16.1,33.8,18.3C758.5,788.1,752.9,779.7,749.2,772.4z"/>
	<path class="st1" d="M707.4,784.4c7.2,4.8,19.9,9.8,29.2,6.7c-10.7-5-19.5-17.1-25.5-25.8c-5.6-8.5-11.6-19.2-20.9-24.3
		c-6.9-3.8-16-6.3-23.4-3.4c8.4,2.4,16,17,19.8,22.9C692.2,769.3,698.6,778.6,707.4,784.4z"/>
	<path class="st1" d="M716,872.7c-10.9-1.1-20-11.3-25-20.6c-6-11.3-3.9-27.3,5.2-36.5c9-9.1,23.6-13.7,35.6-7.2
		c5,2.7,10.9,9.9,11.8,16.5c1.2-3,1.9-6.2,2.2-8.1c1.5-10.7-8.8-17.8-18-20.1c-15.8-3.9-33.7-0.6-42.7,14.1
		c-7.7,12.5-9.1,29-3.5,42.7C687,866.8,702.7,880,716,872.7z"/>
	<path class="st1" d="M756.9,856.5c8.8-12.4,8.1-28.6,18-40.7c3.4-4.1,7.9-8.3,13.4-10.7c3.4-1.5,6.9-2.3,10.5-3
		c-12.5-1.7-25.1,0.6-32,10.5c-3.8,5.5-6.3,11.4-8.9,17.3c-4.3,9.8-10.1,23.1-24.6,25.8c-6.8,1.3-13.2,0.3-16-7.9
		c-3.2-9.4,7.3-15.3,8.5-9.1c-0.4-5-2.4-7.2-8.5-7c-3.6,0.1-7.4,1.9-9.6,4.4c-3.9,4.6-4.8,10.9-3,16.3c2.3,6.9,9.5,14.4,18.9,15.7
		C740.2,870.4,750.9,865,756.9,856.5z"/>
	<path class="st1" d="M773.1,878.2c1.7-4.7,1.3-8.2,1.7-9.6c-2.7,8.8-8.8,13.8-13.5,15.3c-6,1.8-11.8,2.3-18,1.2
		c-9-1.5-16.4-1-21.7,5.4c2,0.8,3.9,1.8,5.8,2.8c9.9,5.4,22.3,9.5,32.5,3.4C766.3,892.8,770.6,885.4,773.1,878.2z"/>
	<path class="st1" d="M804.5,890.4c7.8-15,4.7-31.3,6.1-47.5c1.1-12.4,8.2-24.9,16.3-34c4.3-4.9,8.6-9.5,13.9-13.3
		c0.3-0.2,0.6-0.4,0.9-0.6c-17.8,0.8-35.4,10.6-45.2,25.7c-9.2,14.2-11.4,30.3-9.2,46.8c1,7.8,3.7,26-0.5,36.5
		C794.1,902.6,800.4,898.2,804.5,890.4z"/>
	<path class="st1" d="M905.4,781.4c0.3,0.6,0.7,1.1,1.1,1.6c0.8,1.5,2.1,2.7,3.6,3.1c0.9,0.4,2,0.7,3.2,0.7c5,0,8.7-5,8-9.7
		c-0.5-3.9-3.7-7.6-7.7-8.2c-4.2-0.6-8.5,2.3-9.1,6.5c-0.1,1,0,2.1,0.3,3.1C904.7,779.4,904.9,780.4,905.4,781.4z"/>
	<path class="st1" d="M993.1,702.2c20.6-6.2,42-4.9,60.2,7c18.6,12.1,32.2,30.5,46.8,47.5c-6.4-20.7-20-38.2-37.5-49.8
		c-19.6-13-47.6-22.2-74.4-14.4c-30.1,8.8-54.9,34.6-48.3,65.9c1.4,6.6,5,13.2,12.2,14c6.9,0.7,12.3-2.2,14.1-8.8
		c-2.4-0.8-4.7-2.3-6.5-3.9c-5.5-4.8-9.1-11.1-8-19.1C954.4,720.8,975.9,707.4,993.1,702.2z"/>
	<path class="st1" d="M886.7,788.9c2.8-1.8,7.5-4.5,11.9-5.4c-6.9-3.4-18.4-0.5-23.9,2.8c-7.8,4.6-13.9,11.6-18.2,19.5
		c-10,18.5-10.6,38.6-7.5,59.1c2.4,15.7,6.9,32.2,5,48.2c-0.9,7.3-2.6,15.5-7.4,21.2c34-18.1,7.9-72.8,14.3-103.1
		C864.3,815.6,872.7,797.8,886.7,788.9z"/>
	<path class="st1" d="M841.3,904.3c-2-13-6.2-25.9-5.8-39.1c0.2-8.7,0.7-18.9,3.9-28.2c-4.5,3.7-10.3,6.7-13.1,11.2
		c-4.2,6.6-6.8,13.5-7.2,20.7c-0.8,15.2,4.6,30,6.5,45.1c1.6,12.8,1.8,26.7-5.9,38.7c-4.1,6.4-9.8,12-16.5,17
		C835.4,957.8,845,928.2,841.3,904.3z"/>
	<path class="st1" d="M804,960.5c5.9-5.3,7.8-13.4,8.2-21.1c0.5-11.7-4-21.8-7.9-32.4c-4.8,9-11.3,17.1-9.4,28.3
		c1.8,10.5,6.3,19.7,3.5,29.4C800.3,963.4,802.3,962.1,804,960.5z"/>
	<path class="st1" d="M787.3,956.6c-3.1-14.7-0.4-30.2-12.8-40.3C773.1,930.3,771.4,952.3,787.3,956.6z"/>
	<path class="st1" d="M1020.8,840.5c-0.6-1.7-1.1-3.5-1.4-5.4c-1.7-12.2-2.4-24.3-8.8-35.2c-4.8-8.4-12.3-18.3-21.9-21.6
		c-2.6-0.9-8.8-3.1-14.2-4c5.1,3.5,9.3,12.4,10.8,16.3C993,810.8,997.8,836.7,1020.8,840.5z"/>
	<path class="st1" d="M980.8,820.8c-7.4-4.2-12.6-12.4-17.5-19.4c-4.1-5.9-9.1-14.1-16.4-16.2c-6-1.7-11.9-0.9-17.2,1.5
		c4.7,2.3,10,7.5,12.3,10c3.8,4.1,6.7,8.9,10.5,13C959.9,818.1,970.3,823.5,980.8,820.8z"/>
	<path class="st1" d="M947.2,828.8c-6.5-0.7-13.8-4.2-17.4-6.6c-8.2-5.3-18.6-14.7-29.2-12c-6.5,1.6-10.7,4.9-13.4,9.9
		c6.1,0.2,15.2,6.4,18.7,9.1c6.5,4.9,12.8,9.6,21.3,10C937.2,839.7,942.7,835.4,947.2,828.8z"/>
	<path class="st1" d="M904,854c-8.8,0.5-18.6,0.9-24.5,8.6c-1.3,1.8-2.3,3.6-3.2,5.4c6.1-0.8,14.4,5.8,20,6.1
		c14.5,0.8,21.3-13.3,27.1-24.6C917.8,852.4,912.1,853.5,904,854z"/>
	<path class="st1" d="M882,906.8c-2.3,4.1-3.5,8.6-4.8,13.1c4.1-2.8,10.2-3.3,15.4-5.2c6.6-2.4,12.6-7.3,15.8-13.9
		c1.8-3.8,3.3-8.1,3.2-12.4c-4.4,2.7-9.7,4.7-13.2,6.1C891.8,897.1,885.6,900.2,882,906.8z"/>
	<path class="st1" d="M916.6,924.7c-0.1-3.5-0.7-6.8-1.4-10c-3.9,7.2-9.9,13.5-14.5,16.2c-9.3,5.4-16.5,12.7-17.6,25.2
		c-0.6,6.8,0,13,1.7,19c1.2-10.9,9.4-16.3,17.9-23C910.8,945.7,916.7,936.5,916.6,924.7z"/>
	<path class="st1" d="M934.9,869.4c9.4-16.6,27.7-29.6,47.1-30.7c17.5-1,36.5,15,34.5,33.7c-1.7,16.7-22.2,18.8-32.4,8.7
		c-3.8,15.4,24.5,30.5,34.5,8.1c12.2-27.4-8.7-63.3-40.9-57.1c-27,5.2-50.7,26.6-55.2,54.1c-2.1,12.6-1.9,26.2,3.1,38.2
		c4.3,10.5,11,22.2,20.3,29.5c-6.7-15-15.3-27.4-17.2-44.5C927.2,895.9,928,881.5,934.9,869.4z"/>
	<path class="st1" d="M968.4,884.7c-0.5-10.3,0.5-21.2,12.6-24.8c8.7-2.6,17.1,4,18.1,12.3c4.8-9.7-1.3-20.9-10.9-22.7
		c-6.2-1.1-13-0.6-18.8,2.1c-18.6,8.7-17.6,30.7-8.4,45.6c9.4,15,24.1,27.2,31.6,43.3c4.3,9.3,8.1,21.2,7.6,32.2
		c1.6-2.5,2.8-5.1,3.5-7.9c3-11.8,0.6-22.8-5.5-33.3C989.3,916,969.2,903.5,968.4,884.7z"/>
	<path class="st1" d="M1024.9,797.4c5.3,4.2,9.9,8.3,12.3,15.4c3.5,10.5,4.5,21.1,2.4,32.1c-2.3,12.3-6.2,24.5-3.5,37.1
		c1.8,8.4,4.7,14.4,9.9,19.5c-4.3-15.7,5.7-30.5,9.3-47C1060.5,830.8,1052.7,798.9,1024.9,797.4z"/>
	<path class="st1" d="M1088.5,810.7c-3.1,0.1-6.2,0.2-9.1-1.3c-4.6-2.3-8.5-5.5-11.3-9.9c-8.1-13-12.3-28.7-21.1-41.7
		c-10.5-15.5-21.9-23-40.9-24.8c-11.1-1.1-29,4.6-38.1,13c9.8-0.3,30.9-2.4,39.7,0c9.9,2.8,23.2,9.3,29.8,17.4
		c9.9,12.3,12.5,18.6,17.9,29.3C1061.6,805,1074.1,816.6,1088.5,810.7z"/>
	<path class="st1" d="M1090.8,784c7.9,9.1,27.9,21.3,38.3,8.4c6.7-8.2,7.4-27.3-2.9-33c-19.7-10.9-25.1,24.2-4.6,20.1
		c1.2-0.2,3.4-1.9,3.4-1.9c1.5,8.2-3.8,13.4-12.1,12.9c-11.6-0.7-17.7-9.7-22.9-19.2c-7.2-13.3-13.1-27.7-24.5-38.1
		c-9.7-8.8-23-14.3-35.4-11.3c8.4,0.1,16,4.5,21.8,10.3C1067.1,747.6,1076.5,767.9,1090.8,784z"/>
	<path class="st1" d="M1110.5,916.2c1.7-12.4-5.9-22.9-14.9-29.7c-6.5-4.8-14.3-8.3-19-15.4c-2.1-3.2-3.8-6.8-5.3-10.4
		c-1.1,6.5-0.2,12.6,2.5,18.7c3.3,7.7,7.7,9.2,14,12.2c7.3,3.5,13.8,9.2,16.7,17.4c1.3,3.5,2.4,10.8,1.8,17.2
		C1108.3,923.5,1109.9,920.3,1110.5,916.2z"/>
	<path class="st1" d="M1168.7,962.2c5.3-11.2,15.4-20.3,16-33.2c0.6-10.8-2.6-20.9-5.8-31.1c0,0.4,0,0.9-0.1,1.4
		c-0.3,4.3-1.9,8.4-4.2,12.1c-7.8,12.8-18.3,23.9-18.5,39.8c-0.1,15.1,5.2,29.4,13.1,42.1C1165.7,982.7,1164.3,971.9,1168.7,962.2z"
		/>
	<path class="st1" d="M1217.5,883.6c-3.4-9.1-8.4-19.1-16.6-24.7c-5.8-4-14.2-6.8-21.7-5.5c4,2.2,8.2,3.9,11.6,7.1
		c5.4,5.1,10.1,11,12.9,17.9c5.2,12.7,6.2,27.6,2.1,40.7c-4.4,13.9-13.9,23.5-20.3,36.2c-4.5,9-5.4,17.6-2.7,27.4
		c0.2,0.4,0.3,0.8,0.4,1.2c0.4-10.3,2.8-20.8,6.9-28.5c6.1-11.5,15.4-20.9,22.3-31.9C1220.5,910.8,1222.9,898.1,1217.5,883.6z"/>
	<path class="st1" d="M1135.2,883.7c-0.1-0.2-0.1-0.4-0.2-0.5c-2-5.9-4.3-11.5-8.4-16.3c-7-8-16.1-13.2-25.3-18.2
		c-13.2-7.2-26.9-14.9-34.1-28.1c-1.2,11.9,3.4,24.4,10.9,33.6c7.4,9.1,16.9,12.5,27.8,15.7c9.7,2.8,21.5,5.5,28.6,13.1
		C1134.8,883.3,1135,883.5,1135.2,883.7z"/>
	<path class="st1" d="M1153.9,916.8c0.1-15.8,9.9-19.1,12.3-46.7c1.2-13.7-0.7-30.3-6.8-42.9c-6.9-14.3-24.3-30.8-45.7-25.2
		c-15.4,4-23.7,34,0.2,36.4c-4.6-4.8-5.2-11.5-4.8-13.3c3.8-16.5,23.7-8.7,29.9-2.6c11.4,11.3,14.6,28.7,12.5,44.8
		C1149.2,885,1142.3,896.3,1153.9,916.8z"/>
	<path class="st1" d="M1214.5,760.4c0.4-2.3,0.5-4.6,0.6-6.9c-12.3,1.4-25.1,1.2-34.4,10.3c-4.7,4.6-7.9,9.7-10.1,15.8
		c-0.5,1.3-2.3,5.3-3.5,8.8c4.3-3.8,10.8-6.8,14-8c7-2.6,15.2-2.1,21.9-5.5C1208.5,772.3,1213.4,766.8,1214.5,760.4z"/>
	<path class="st1" d="M1228.8,759.4c0,16.6-15.5,25.8-22.6,41c-5.5,11.7-6.1,24.4-0.3,36.2c1.2,2.4,5.1,12,9.2,16.6
		c-4.9-12,0-25.2,8.2-36c6.1-8.1,14.3-17,14.9-27.7C1238.8,778.3,1234.5,768.5,1228.8,759.4z"/>
	<path class="st1" d="M1187.5,827c3.5-8,3.3-18.3-4.9-23.6c-9-5.8-15.8,0.5-18.6,9.4c-0.6,1.9-3.7,2.2-4.6,0.3
		c-10.8-22.6-3.5-52.3,17.1-67c12.9-9.2,33.3-11.7,49.8-7c-37.4-24.8-94,24.2-76.6,66.5C1154,816,1177.3,850.4,1187.5,827z"/>
	<path class="st1" d="M1164.7,732.1c7.6-3.2,16.2-5.5,23-10.4c5-3.5,9.9-8.8,10.9-15.2c0.7-4.5,0.1-8.6-0.7-12.6
		c-5.8,3.9-12.6,5.8-19.4,7.8c-10.2,2.9-20.3,6.7-28.2,14c-7.8,7.2-15.8,18.4-15.8,29.5c0,6.6,0.2,17.4,4.8,23.2
		C1140.7,752.3,1148.7,739,1164.7,732.1z"/>
	<path class="st1" d="M1126.6,700.1c-0.3-1.4-0.5-3-0.7-4.8c-1.7,2.1-3.1,4.1-4,6c-6.2,13.8-5.6,28.6,1.9,41.8
		C1133.5,731.7,1129,713.4,1126.6,700.1z"/>
	<path class="st1" d="M1176.1,652.4c4.2-2.3,9.9-6.3,9.4-12c-0.3-3.4-1.3-6.5-1.8-9.7c-6.8,8.7-20.9,11.9-30.9,13.7
		c-9.9,1.8-22.6,3.2-29,12.1c-5.4,7.5-7.2,17.5-5.3,26.6c6.6-11.5,17.7-20.7,30.7-23.8C1157.9,657.3,1168.1,656.8,1176.1,652.4z"/>
	<path class="st1" d="M1247.9,666.3c8.1-10.8,14-26.5,9.3-39.9c-5.7-16.4-21.5-19.7-31.6-8.4c-5.2,5.7-4.8,17.3,3.5,19.3
		c9.2,2.4,13.4-4.9,13.4-11.7c0-3.4-2-5.1-2-5.1c23.9,19-12.7,47.7-31.4,51.3c-9.4,1.8-19.1,0.4-28.4,0.8c-8.7,0.4-18,1.9-25.7,6.4
		c-10.6,6.3-18.9,14.9-18.9,34.1c6-15.7,20.7-24,33-27.4c11.2-3.1,24.5-2.3,36-1.2c9.4,0.9,19.3-1.1,28.2-6
		C1238.9,675.5,1244,671.5,1247.9,666.3z"/>
	<path class="st1" d="M1235.6,587.5c7.9-4.4,17.7-10,18.9-19.9c0.9-6.6-0.7-12.5-2.9-18.4c-1.5,1.3-3,2.6-4.6,3.7
		c-11.1,7.6-24.3,13.1-30.3,26c-3,6.5-5,13.9-4.2,21.2c0.3,2.5,0.9,9.7,3.2,13.3C1214.4,600.7,1224.5,593.7,1235.6,587.5z"/>
	<path class="st1" d="M1222.7,551.9c2.4-5.7,1.5-13.1-1.9-18.6c-2.1,3.8-6.4,7.4-8.7,9.8c-3.7,3.8-9,7.9-10.3,13.3
		c-1.5,6.5-1.6,13.6,0.8,19.9c1.2-3.1,3.2-6,5.2-8.2C1212.5,562.8,1220,558.4,1222.7,551.9z"/>
	<path class="st1" d="M1186.4,531.1c-8.1-5.6-19-3.3-24.9,5c-4.9,6.8-5.2,17.9,3.7,21.5c9.8,3.9,19.2-8.5,12.3-15.4
		c10.5-3.4,12.9,25.4,12.7,26.3C1190.1,569.2,1205.4,544.4,1186.4,531.1z"/>
	<path class="st1" d="M1201.1,596.9c0.8,1,1.7,2,2.6,3.1c-4.1-9.8-10-18.8-18.2-25.8c-8.9-7.7-20.1-10.8-31.4-13.1
		c-8.1-1.7-27-4.9-33.6-13.8c-0.8,11.8,5.4,23.4,17,28.3c13.9,5.8,27.2,2.6,41,6C1188.4,584,1194.8,589.2,1201.1,596.9z"/>
	<path class="st1" d="M1106.3,589.7c6.5,14.5,15.5,17.2,28.1,13.1c7.6-2.5,19-5.3,23.7-5.8c-2.3-3.7-9.4-7.7-20.9-7.1
		c-6.5,0.4-12.7-1.5-18.4-5.1c-10.7-6.8-16.7-19-17-31.5C1100.2,565.5,1101.2,578.3,1106.3,589.7z"/>
	<path class="st1" d="M1214.1,648.7c5.3-9.7,4.5-22.4-2.1-31.4c-17-23.5-46.8-10.9-69-2.6c-15.3,5.8-31.2,11.3-47.7,7.5
		c-4-0.9-8.4-2.4-12-4.7c4.6,14.6,17.4,24.8,34.5,25.1c12.4,0.2,22.7-4.3,32.7-11.3c7.4-5.2,14.6-10,23.6-11.9
		c13.6-2.8,28.8,5.8,30.8,20.3c1.1,7.8-2.3,16.7-8.2,22.4C1203.9,659.6,1210.5,655.4,1214.1,648.7z"/>
	<path class="st1" d="M1224.7,711.2c0.9-4.1,0.1-9.8,1.1-14.4c-8.2,1-10.4,7.8-13.9,15.7c-1.4,3.2-3.5,6.9-6.3,8.8
		C1213.4,722.7,1222.9,719.6,1224.7,711.2z"/>
	<path class="st1" d="M730.6,898c-11.4-6.2-30-3.9-41.8,1.8c-27.1,13.1-34.9,48.8-16.1,69c8.5,9.2,23,7.5,32.8-0.8
		c4.8-4,8.3-10,8.5-16c0.1-0.5,0.1-1,0.1-1.5c0-6.4-5.2-11.7-11.7-11.7s-11.7,5.2-11.7,11.7c0,5.5,3.8,10.1,9,11.3
		c-11.1,6.8-21.8-2.7-24.7-15.1c-3-12.6,4.3-28.3,14.9-35.5c12.6-8.6,42.4-5.5,62.4,8.6C751.5,919.3,746.9,906.8,730.6,898z"/>
	<path class="st1" d="M1070.3,585.8c0,5.9,4.6,11,10.2,10.7c15.3-1,10.4-19.4,8.9-22.3c-5.1-10-17.4-16.4-28.7-14.3
		c-13.5,2.5-20.4,16.4-20.4,29.2c0,14,5,28,15,37.9c8.6,8.6,19,14.9,28.2,22.8c11.8,10.1,21,23,26.5,37.4
		c-0.7-10.2-2.4-20.4-7.1-29.2c-4.9-9.1-11.4-15.8-19.1-22.3c-11.5-9.7-25.7-19.7-32.5-33.6c-5.8-11.9-6.4-29.3,6.1-37.3
		c10.3-6.6,22.1,2.3,27.1,11.3c-1.2-0.5-2.6-0.8-4-0.8C1074.9,575.2,1070.3,579.9,1070.3,585.8z"/>
	<path class="st1" d="M1052.8,532.3c-9.7,5.5-16,7.1-23.6,15.7c-7.7,8.6-12.1,19.5-11.4,31.1c0.6,8.6,3.7,16,6.9,23.6
		c4.1-41.3,31.3-49.7,44.4-59.7c19.4-15,10.8-35.8,6.1-41.6C1071.3,506,1073.3,520.7,1052.8,532.3z"/>
	<path class="st1" d="M673.6,893.9c6.5-2.6,11.6-6.5,16.5-10.7c-3.8-0.5-7.6-2.2-11-4.1c-7.1-4-14.1-7.8-22.1-9.7
		c-8.1-1.9-16.1-1.7-23.4,2c-1.3,0.6-2.5,1.4-3.7,2.2c-4.1,2.9-8,6-11.6,9.5c-1.3,1.2-2.5,2.5-3.7,3.7c2.2-0.1,4.5,0.1,6.5,0.2
		c4.3,0.2,8.4,0.5,12.5,1.2c3.7,0.6,7.3,1.5,11.1,2.8C654.1,894.3,663.7,897.8,673.6,893.9z"/>
	<path class="st1" d="M673.3,784.1c6,3.2,12,4.2,18.4,5c-2.7-3-5-6.8-6.7-9.6c-3.8-6.2-6.9-12.9-10.7-19.1
		c-3.7-6.2-8.2-13-14.8-16.4c-3.5-1.8-6.8-2.3-10.2-2.4c7,5.6,8.7,17.4,11.3,25.2C663.1,773.9,666.3,780.4,673.3,784.1z"/>
	<path class="st1" d="M662.9,624.8c-4.5,8.2-14.6,12.7-23.2,17.5c-2.2,1.2-4.2,2.6-6.1,4.1c-6.1,4.9-10.6,11.3-11.8,19.6
		c-1.1,8,0.3,15.7,1,23.5c2.6-4.4,6.5-8.2,10.8-11.8c6.1-5.1,13-9.7,17.7-14.8c6.5-7,10.9-15.5,11.6-25.2
		C663.2,633.5,663.2,629.2,662.9,624.8z"/>
	<path class="st1" d="M641.6,948.9c-1.9-5.3-2.6-11.1-4.9-16.3c-0.8-1.8-1.9-3.3-3.1-4.5c-5.2-4.9-13.6-4.7-20.9-2.9
		c5.6,4.2,10.2,13.5,11.6,17.6c2.1,6.2,4,14.5,9.1,19c0.1,0.1,0.1,0.1,0.2,0.2c6.7,5.8,13.7,3.9,19.8-0.2
		C647.7,960.8,643.7,954.6,641.6,948.9z"/>
	<path class="st1" d="M654.6,548.6c0.4-8.3-4-19.4-11.8-23.4c-2.7-1.4-6-1.7-9.1-1.2c-5.4,0.9-10.2,4.6-10,10.6
		c0.2,8.4,5.5,9.7,10,9.3c3.4-0.3,6.4-1.7,6.4-1.7c0.3,6.6-2,12.9-6.4,16.4c-3.5,2.9-8.4,4-14.3,2.1c-11-3.5-17.1-8.9-33.4-2.2
		c-9.4,3.8-19.9,15.7-23.2,25.4c9.5-6.8,18-10.5,27.2-13.5c17.8-5.7,29.6,0.7,43.6-2.1c1.8-0.4,3.6-0.9,5.4-1.6
		C646.9,563.6,654.1,557.6,654.6,548.6z"/>
	<path class="st1" d="M700.9,525.1c-2.2-5.2-4.9-10.2-8.5-14.9c-7.2-9.2-23.7-16.5-33.9-9.1c-0.3,0.2,12.6,0.3,21.9,34.4
		c2,7.4,5.8,13,10.5,17.1c0.7,2.9,1,5.8,1.3,8.5c0.6,6.4,0.4,13.5,4.9,19.1c5.9,7.2,22.1,8.9,38.1,4.8c-12.2-0.8-18.3-6-20.3-13
		c-0.9-3.4-1.2-6.9-1.9-10.3c3,0.2,5.9,0,8.6-0.5c2.6-0.5-4.6-3.2-11.1-13.8c15.7,4.2,33.4-0.6,42.3-19.1c4.2-8.8,8-18.9,17.4-23.3
		c2.9-1.5,6.3-2.7,9.8-3.1c-1.4-1-2.9-1.8-4.5-2.4c-2.1-0.7-4.4-0.8-7,0c-0.4,0.1-0.9,0.3-1.3,0.4c-7.1,2.7-12.1,7.9-18,12.5
		c-7.6,6-14.9,13.8-24.6,15.4C718.8,528.7,708.4,528.3,700.9,525.1z"/>
	<path class="st1" d="M900.7,499.5c-1.7,0.6-3.3,1.4-4.8,2.5c-5.7,4.2-16,14.2-22.9,9.9c5.4,10.5,16.9,14.9,26,11.6
		c5.4-1.9,10.7-4.8,16.2-6.1s10.5-1.3,15,1c-1.3-9.9-7.8-16.4-15.4-18.9C910.2,498,905.1,497.9,900.7,499.5z"/>
	<path class="st1" d="M814.9,503.3c-36.2-9.1-49.2,15.7-46.1,32.4c1.4,7.8,8.7,17.7,19.5,16.6c8.5-0.9,16.4-8.1,9.8-20.3
		c-0.7,3.2-1.6,4.2-3.5,6.7c-3.8,5.1-10.2,2.2-13.3-0.9c-4.2-4.2-2.8-13.2,0.9-17.1c4.7-4.9,12.2-7.1,18.9-7.2
		c24.5-0.6,39.1,21.6,61,28.2c25.2,7.8,50.3,2.2,66.2-18.1c-13.8,7.8-29.7,11.7-45.8,10.2c-12-1.1-22.1-4.3-31.8-11.7
		C840.4,514.3,830.9,507.3,814.9,503.3z"/>
	<path class="st1" d="M956.3,503.8c7.5,0.5,16.3,0.4,23.2-4.3c1.3-0.9,2.5-1.9,3.6-3.1c0.4-0.5,0.9-1,1.3-1.5
		c-12.7,0.2-27-6.5-36-12c-7.6-4.7-15.7-10-24.3-10.2c-7.5-0.1-27.1,0-44.3,20.5c11.6-9.3,27.3-9.8,38.1-8.2
		c9.9,1.4,17.4,9.4,26,14.5C947.7,501.8,951.7,503.5,956.3,503.8z"/>
	<path class="st1" d="M1053.7,499.9c-2.6,1.9-4.3,5.4-4.1,8.6c0.2,3.9,3.6,6.6,7.3,7.2c3.3,0.5,6.1-1.4,7.6-4.2
		c2-3.8,1.5-10.1-2.6-11.9c-0.7-0.3-1.4-0.5-2.3-0.6c-0.2,0-0.4,0-0.7,0c-0.3-0.1-0.5-0.2-0.8-0.3c-1.3-0.4-2.8,0.1-3.9,0.8
		C1054,499.6,1053.8,499.7,1053.7,499.9z"/>
	<path class="st1" d="M1080.4,413.1c-7.5,19.6,0.7,44.9,14.4,59.8c5.5,6,12.7,10.7,19.4,15.2c4.6,3.1,10.5,6.7,14.3,11.4
		c2.2,2.7,3.8,5.8,3.9,9.4c-8.1-2.5-10.5,9.2-2,13.4c3.7,1.9,11.4,1.1,14.3-2.3c6.3-7.3,4.3-13.4,2.5-20.4v-0.1
		c-3.8-15.2-20-22.9-32.6-29.9c-9.1-5.1-17.8-10.5-23.9-19.2C1081.7,437.7,1081.1,411.3,1080.4,413.1z"/>
	<path class="st1" d="M1239.9,518.8c-0.5-6.2-0.4-12.9-1.4-19.3c-0.6-3.9-1.5-7.6-3.2-11.1c-4.8-9.9-11-16.4-19.5-21.8
		c3.9,8.1,6.7,17,7.1,26c0.1,2.3,0.1,4.6,0,6.9c-0.2,6.9-1,13.7-0.2,20.6c1.7,14.5,10.4,26.5,26.6,25.5c0.8,0,1.6-0.1,2.4-0.2
		c-1.4-1-2.6-2.2-3.8-3.4C1242.3,536,1240.6,526.7,1239.9,518.8z"/>
	<path class="st1" d="M1143,536.9c-10.5,3.1-20.2-1.5-26.8-10.1c-1.7-2.3-3.3-5.1-4.1-7.8c-2.8,7.1-1.4,13.2-0.3,15.9
		c6.3,14.8,25.7,17.1,38,8c8.7-6.5,14.5-16.5,16-27.3c0.7-5.2,0.5-10.9-1-16c-1.8-6.2-5.5-11.4-11.5-13.7c4.4,3.2,7,8.1,8.1,13.7
		C1164.1,514,1156.7,532.9,1143,536.9z"/>
	<path class="st1" d="M54.7,47.1c1.8-3.8,3.3-8.1,3.1-12.4c-4.4,2.7-9.7,4.7-13.2,6.1C38,43.4,31.8,46.5,28.2,53
		c-2.3,4.1-3.5,8.6-4.8,13.1c4.1-2.8,10.2-3.3,15.4-5.2C45.5,58.5,51.5,53.7,54.7,47.1z"/>
	<path class="st1" d="M48.9,98.3c8.1-6.4,14-15.6,13.8-27.4c-0.1-3.5-0.7-6.8-1.4-10c-3.9,7.2-9.9,13.5-14.5,16.2
		c-9.3,5.4-16.5,12.7-17.6,25.3c-0.6,6.8,0,13,1.7,19C32.2,110.5,40.4,105.1,48.9,98.3z"/>
	<path class="st1" d="M22.5,82.9C14.4,85.8,6.9,89.4,0,94v7.5C6.7,94.4,14.2,88,22.5,82.9z"/>
	<path class="st1" d="M14.4,278.4c9.5-6.8,20.1-24.7,10.2-33.8c-0.4-0.3-0.9-0.7-1.3-1.1l-0.1-0.1c-1.3-0.9-2.8-1.7-4.6-2.3
		c-5.9-2.1-14.2-1.7-15.8,5.8c-0.8,3.5-0.5,7.8,1.6,10.9c5.8,8.6,11.6-3.1,13.2-6c0.9-1.7,3.8,0.6,3.4,2.1
		c-2.9,11.8-11.6,16.8-21,16v12.2C5,282.6,9.9,281.7,14.4,278.4z"/>
	<path class="st1" d="M16.5,143.8c3.3-0.5,6.8,0.6,8.3,3.9c1,2.2,1.3,3.9,1.2,5.5c3.3-4.1,3.7-9.8,1.5-14.9
		c-4.7-11.2-17.8-13.8-27.1-5.7c-0.1,0.1-0.3,0.3-0.4,0.4v37.3c0.1-2.2,0.3-4.3,0.7-6.4C2.1,156.3,7.8,145.2,16.5,143.8z"/>
	<path class="st1" d="M19.9,233.3c-3.7-7.6-6.5-15.8-9.3-22.3C5.7,199.7,0.5,186.8,0,174v31.3c2.4,4,5,8,7.6,11.9
		C11.5,223,15.4,228.3,19.9,233.3z"/>
	<path class="st1" d="M82.7,102.1c-0.1-0.1-0.1-0.2-0.2-0.3c-4,12-22.4,23.9-28.1,30.3C39.5,148.9,38,175,48.4,195
		c-0.2-4.8,1-9.9,3.1-14c5.7-11.2,14.5-12.8,24.1-18.9c11.9-7.5,17.7-25.4,14.5-39.5C88.5,115.4,86.3,108.2,82.7,102.1z"/>
	<path class="st1" d="M21.1,188c0.1,11.8,4.5,22.6,10.1,32.9c7.8,14.5,16.3,30.1,18,46.5c4.1-7.5,8.2-14.7,6.8-24.3
		c-1.9-12.9-8.8-24.3-15.2-35.5C34.2,196,26,180.9,26.6,167.1C23.4,173.7,21.1,180.5,21.1,188z"/>
	<path class="st1" d="M80.4,175.2c-18.1,11.3-32.1,61.2,5.6,93.7c0,0,0.1,0.1,0.2,0.2c1.9,1.6-21.3-27.4-14.8-62.6
		c1.6-8.5,4.1-17.3,11-22.8c5.2-4.1,12-4.2,18-2.6c5,1.3,11.5,5.3,9.7,12c-0.4,1.6-1.2,2.9-2.4,3.9c-3,2.1-4.9,0.6-5.8-4.6
		c0.1-0.4-0.1-0.8-0.3-1c-4,1.3-8.4,19,8.9,18.6c7.9-0.2,13.2-11.8,11.7-19.7C118.8,172.6,100.6,162.3,80.4,175.2z"/>
	<path class="st1" d="M0,354.2v31.9C3.4,376.2,3,364.9,0,354.2z"/>
	<path class="st1" d="M0,428.7v5.3c5.9-2.4,11.5-5.3,16.6-8.1C11.3,427.4,5.6,428.3,0,428.7z"/>
	<path class="st1" d="M35.6,300.2c5.5-16.2,4.7-28.8-1.2-44.4c0.4,14.7-4.5,26.6-11.9,39.6c-9.6,17.1-16.3,34.2-15.7,54.7
		c0.5,18.6,5.1,38.7,18.3,51.6c0.5,0.5,1,1,1.6,1.5c-10.1-17.7-14.9-39.1-9.5-59.2C21.3,328.6,30.5,315.3,35.6,300.2z"/>
	<path class="st1" d="M34.7,364.5c0.2-12.9,0.2-25.8,5.1-38.1c12.7-31.8,44.1-29.7,44.1-29.7s-8.7,10.1,2,14.7
		c9.7,4.2,15.3-6.5,13.3-13.1c-7.4-24.5-44.3-11.7-55,2.2c-17.3,22.6-25.2,67.4-6,92C34.3,383.9,34.6,373.7,34.7,364.5z"/>
	<path class="st1" d="M73.6,352.6c13.6-8.5,27.2-15.9,32.1-32.5c1-3.6,1.6-7.1,1.8-10.5c-1.3,4.8-3.4,9.3-7.9,13.7
		c-7.5,7.3-18.3,9.8-26.7,15.8c-10.4,7.4-18.6,17.5-22.4,29.9c-2.3,7.6-4.1,15.8-2.4,23.6c0.8,3.7,2.2,7.2,3.6,10.8
		C49,384.1,56.7,363.2,73.6,352.6z"/>
	<path class="st1" d="M100.4,377.7c12.3-1.6,25.4,6.2,37.6,4.6c7.8-1,15.5-6.8,20.6-13.2c2.4-3,3.7-6.1,4.4-9.2
		c-4.3,4.8-10,8.5-16.2,9.8c-12.4,2.7-21.6-2-33.2-5.3c-22.5-6.5-46.8,11.8-52.7,33.8C69.6,387.3,87.8,379.3,100.4,377.7z"/>
	<path class="st1" d="M25.6,452.3c3.8-4.2,6.1-9,8-14c-8.7,2.9-19.2,1.3-27.8,1.8C4,440.2,2,440.4,0,440.8v24.1
		C9.4,463.6,18.4,460.2,25.6,452.3z"/>
	<path class="st1" d="M41.9,465.6c1.3-2.4,2.2-4.7,2.6-7.1c-3.6,3.2-8.5,6-11.9,7.8c-5.7,3.1-11.8,5.3-17.4,8.3
		C7.4,478.8,3,485.4,0,492.5c5.9-4.6,15.5-6.6,22.8-10.3C30.4,478.3,38.1,472.7,41.9,465.6z"/>
	<path class="st1" d="M97.7,472.1c1.8,1,3.5,2.2,5.2,3.5c-0.5-1.3-1.1-2.5-1.7-3.7c-7-13.7-18.1-27-30.5-26.6
		c-6.9,0.2-20.6,4.3-27.5-2.4C49,474.6,80.8,462.4,97.7,472.1z"/>
	<path class="st1" d="M42.5,433.8c6.3,6.2,14.3-2.1,14.1-9c-0.1-5-5.2-7.1-9.7-7c0,0,0,0.1-0.1,0c0,0,0,0,0.1,0c0,0,0-0.1-0.1-0.1
		c-2.3-1.4-4.4,0-5.9,2.1c-1.4,1.1-2.5,2.5-2.7,4.4c-0.2,2.1,0.6,4.4,1.9,6.2C40.7,431.7,41.5,432.8,42.5,433.8z"/>
	<path class="st1" d="M111.9,444.8c11.5,12.9,17.8,32.8,37.9,34.5c13.2,1.1,21.5-7.6,27.1-18.5c-4.7,2.5-9.6,4.2-13.5,4.9
		c-13,2.6-23.3-7.8-29.4-18c-10-16.8-19.6-33.4-40.8-37.1c-15.6-2.7-22.7,7.8-29.1,19.3C78.1,422.7,103.2,435.2,111.9,444.8z"/>
	<path class="st1" d="M26,493.2c11.6-9.3,27.3-9.8,38.1-8.2c9.8,1.4,17.4,9.4,26,14.5c3.8,2.3,7.9,4,12.4,4.3
		c7.5,0.5,16.3,0.4,23.2-4.3c1.3-0.9,2.5-1.9,3.6-3.1c0.4-0.5,0.9-1,1.3-1.5c-12.7,0.2-27-6.5-36-12c-7.6-4.7-15.7-10-24.3-10.2
		C62.8,472.6,43.2,472.7,26,493.2z"/>
	<path class="st1" d="M64,559c4.7-4.9,8.6-11.6,10.6-18.1c0.6-1.9,1-3.9,1.2-5.8c-1.7,2.4-3.9,4.5-6.4,6.1c-10.9,7-23,7.3-35.5,7.1
		C21.6,548.1,8.2,548.2,0,558v18.2c8.4-5.9,21.5-6.3,32.4-6.9C43.4,568.8,55.9,567.4,64,559z"/>
	<path class="st1" d="M22.1,737.4c0.6,0.4,1.1,0.8,1.7,1.1c-13.9-26.8-16.3-60.9-22.3-89c-0.5-2.2-1-4.4-1.5-6.5v72.9
		C6,724.4,13.3,731.3,22.1,737.4z"/>
	<path class="st1" d="M24.7,709c0.3,14.7,4.1,33.5,16.8,42.7c3.8,2.8,8.1,5,12.3,7.3c-8.7-12.2-17.3-24.9-19-39.9
		c-2.1-18.4,4.9-36.2,8.3-54c1.9-10,3.4-21.1,0.1-31c-3.4-10.2-12.1-22.3-24.4-20.1c-8.4,1.5-16.8,8.7-13.2,18.2
		c1.8,4.8,4.4,8,9.3,9.7c1.7,0.6,5.2,1.6,7.9,1.4c-2.7-1.7-5.7-5.3-6.4-6.8c-3.1-6.4-1.3-11.9,5.3-15.1c13.4-6.5,15.8,15,15.8,23
		C37.6,667,23.8,686.5,24.7,709z"/>
	<path class="st1" d="M64.2,625.6c-2.9-11.6-6.6-24.4-15.8-32.8c-9-8.3-23-14.4-34.8-7.7c-5.7,3.3-10.2,8-12.8,13.5
		c8.4-6.9,23.8-5.8,32.9-0.9c13.8,7.4,22.8,24.9,23.5,40.1c0.7,12.5-3.1,25.4-1.7,37.8c0.9,7.5,3.5,18.1,10.3,22.5
		c10,6.5,19.5-7,19.6-16c0.1-9.5-5.1-19.2-15.4-11.1c-1.5,1.2-4.2-0.2-3.9-2.1C68.6,654.7,67.7,639.6,64.2,625.6z"/>
	<path class="st1" d="M93.8,696.5c1.9-4.8,2.4-9.4,2.4-14.2c-5.5,13.6-22.8,21.1-31.1,33.5c-6.8,10.2-9.4,23.3-4.4,34.9
		c2.7,6.4,6.4,12.7,13,15.7c2.5,1.2,5.2,2,7.8,2.9c-5.5-5.8-10.7-12.1-11.9-20.2c-1.2-8.3-2.1-19.6,2.5-27
		C78,712.7,89.5,707.1,93.8,696.5z"/>
	<path class="st1" d="M23.8,764.6c-8.6-0.9-16.9-4.2-23.8-8.2v10.3C7.6,767.4,15.8,766.2,23.8,764.6z"/>
	<path class="st1" d="M51.7,781.4c0.3,0.6,0.7,1.1,1.1,1.6c0.8,1.5,2.1,2.7,3.6,3.1c0.9,0.4,2,0.7,3.1,0.7c5,0,8.7-5,8-9.7
		c-0.5-3.9-3.7-7.6-7.7-8.2c-4.1-0.6-8.4,2.3-9,6.5c-0.2,1,0,2.1,0.3,3.1C51,779.4,51.2,780.4,51.7,781.4z"/>
	<path class="st1" d="M7.2,831.2c3.3-15.6,11.8-33.4,25.8-42.3c2.8-1.8,7.5-4.5,11.9-5.4c-6.9-3.4-18.4-0.5-23.9,2.8
		c-7.8,4.6-13.9,11.6-18.2,19.5c-1,1.9-2,3.9-2.8,5.8v81.7c0.5,4.2,0.8,8.3,0.8,12.5c0-4.1-0.3-8.2-0.8-12.4v21.9v0.1v13.8
		C22.9,907.5,1.3,859,7.2,831.2z"/>
	<path class="st1" d="M127,820.8c-7.4-4.2-12.6-12.4-17.5-19.4c-4.1-5.9-9.1-14.1-16.5-16.2c-6-1.7-11.9-0.9-17.2,1.5
		c4.7,2.3,10,7.5,12.3,10c3.8,4.1,6.8,8.9,10.5,13C106.2,818.1,116.6,823.5,127,820.8z"/>
	<path class="st1" d="M93.5,828.8c-6.5-0.7-13.8-4.2-17.4-6.6c-8.2-5.3-18.6-14.7-29.2-12c-6.6,1.6-10.7,4.9-13.4,9.9
		c6.1,0.2,15.2,6.4,18.7,9.1c6.5,4.9,12.8,9.6,21.3,10C83.5,839.7,89,835.4,93.5,828.8z"/>
	<path class="st1" d="M50.3,854c-8.8,0.5-18.6,0.9-24.5,8.6c-1.3,1.8-2.3,3.6-3.2,5.4c6.1-0.8,14.4,5.8,20,6.1
		c14.5,0.8,21.3-13.3,27.1-24.6C64.1,852.4,58.3,853.5,50.3,854z"/>
	<path class="st1" d="M28.2,906.8c-2.3,4.1-3.5,8.6-4.8,13.1c4.1-2.8,10.2-3.3,15.4-5.2c6.7-2.4,12.7-7.3,15.9-13.9
		c1.8-3.8,3.3-8.1,3.1-12.4c-4.4,2.7-9.7,4.7-13.2,6.1C38,897.1,31.8,900.2,28.2,906.8z"/>
	<path class="st1" d="M62.7,924.7c-0.1-3.5-0.7-6.8-1.4-10c-3.9,7.2-9.9,13.5-14.5,16.2c-9.3,5.4-16.5,12.7-17.6,25.2
		c-0.6,6.8,0,13,1.7,19c1.3-10.9,9.5-16.3,18-23C57,945.7,62.9,936.5,62.7,924.7z"/>
	<path class="st1" d="M81.1,869.4c9.4-16.6,27.7-29.6,47.1-30.7c17.5-1,36.5,15,34.5,33.7c-1.7,16.7-22.2,18.8-32.4,8.7
		c-3.8,15.4,24.6,30.5,34.5,8.1c12.2-27.4-8.7-63.3-40.9-57.1c-27,5.2-50.7,26.6-55.2,54.1c-2.1,12.6-1.9,26.2,3.1,38.2
		c4.3,10.5,11,22.2,20.3,29.5c-6.7-15-15.3-27.4-17.2-44.5C73.4,895.9,74.2,881.5,81.1,869.4z"/>
	<path class="st1" d="M22.5,936.6c-8.1,2.9-15.6,6.5-22.5,11v7.6C6.7,948.1,14.2,941.7,22.5,936.6z"/>
	<path class="st1" d="M19.3,511.9c5.3,10.5,16.8,14.9,26,11.6c5.4-1.9,10.7-4.8,16.2-6.1s10.5-1.3,15,1c-1.3-9.9-7.8-16.4-15.4-18.9
		c-4.6-1.5-9.7-1.6-14.1,0c-1.7,0.6-3.3,1.4-4.8,2.5C36.5,506.2,26.2,516.2,19.3,511.9z"/>
	<path class="st1" d="M74.7,523.5c-13.8,7.8-29.7,11.7-45.8,10.2c-10.8-1-20.1-3.7-28.9-9.6v14.2c2.8,1.3,5.6,2.5,8.5,3.4
		C33.7,549.4,58.9,543.9,74.7,523.5z"/>
	<path class="st1" d="M506.4,4.9c1.9-1.5,3.5-3.1,5-4.9h-5C506.7,1.6,506.7,3.2,506.4,4.9z"/>
	<path class="st1" d="M192.2,47.7c-4.2-15.6,5.8-30.5,9.4-47c0.1-0.2,0.1-0.5,0.1-0.7H184c-2,9.3-3.7,18.6-1.7,28.2
		C184.1,36.6,187,42.6,192.2,47.7z"/>
	<path class="st1" d="M402,29.9c16.9-10.7,34.7-14.4,53.3-20.5c6.5-2.1,13.1-5.1,18.6-9.4H462c-12.2,4.5-25.5,4.7-38.3,7.6
		c-8.5,1.9-17.8,4.4-24.3,10.5c-8.3,7.8-16.3,20.3-19.4,32.3C385.6,42.1,393.5,35.3,402,29.9z"/>
	<path class="st1" d="M252.1,16.2c9.7,2.8,21.5,5.5,28.6,13.2c0.2,0.2,0.4,0.4,0.6,0.7c0-0.2-0.1-0.4-0.2-0.5
		c-2-5.9-4.3-11.5-8.4-16.3C268,7.8,262.2,3.7,256.1,0H224c0.1,0.2,0.2,0.3,0.3,0.5C231.7,9.6,241.2,13,252.1,16.2z"/>
	<path class="st1" d="M312.6,16.4c0.5-5.2,0.5-10.8,0-16.4h-14.2c0.3,4.5,0.1,9.1-0.5,13.6c-2.3,17.7-9.2,29,2.4,49.5
		C300.4,47.3,310.2,44,312.6,16.4z"/>
	<path class="st1" d="M387.2,0h-7.3c0.2,2.5,0.7,4.9,1.5,7.4C382.9,4.5,384.8,2,387.2,0z"/>
	<path class="st1" d="M489.3,23.6c10.8,4.5,21.6,1.1,29.8-6.6c5.2-4.9,8.7-10.7,10.6-17h-18.3c-1.4,1.8-3.1,3.4-5,4.9
		c0.2-1.7,0.2-3.3,0-4.9h-27.3C476.5,9.3,479.4,19.6,489.3,23.6z"/>
	<path class="st1" d="M576.9,0h-18c-0.4,3.2-0.2,6.6,0.9,10.1C568.5,9.1,573.6,5.3,576.9,0z"/>
	<path class="st1" d="M543.4,6.7c0.4-2.3,1-4.5,1.7-6.7H540c0.4,5.8,1.8,11.5,4,16.8C543.1,13.3,542.9,9.8,543.4,6.7z"/>
	<path class="st1" d="M715.9,19c-10.3-1-19-10.2-24.1-19h-10.2C687.1,13.2,702.8,26.3,715.9,19z"/>
	<path class="st1" d="M723.6,14.4c16.6,2.3,27.3-3.1,33.3-11.6c0.6-0.9,1.2-1.8,1.8-2.8h-19.2c-1.8,0.9-3.9,1.6-6.2,2
		c-4.6,0.9-9,0.7-12.2-2h-15.9C707.9,6.5,714.8,13.2,723.6,14.4z"/>
	<path class="st1" d="M786.7,50.2c7.4-1.4,13.6-5.7,17.7-13.5C810.5,25,810,12.6,810.1,0h-23.6c-0.1,4.5,0.1,9.1,0.7,13.7
		C788.2,21.5,790.9,39.7,786.7,50.2z"/>
	<path class="st1" d="M846.6,80.5C873.2,66.3,863,29.8,860.4,0h-12.7c0.3,3.7,0.8,7.4,1.3,11.1c2.4,15.7,6.9,32.2,5,48.2
		C853.1,66.6,851.4,74.8,846.6,80.5z"/>
	<path class="st1" d="M803.2,115.9c32.2-12,41.8-41.6,38.1-65.5c-2-12.8-6.1-25.7-5.8-38.9c0.1-3.6,0.2-7.5,0.6-11.5h-12.9
		c-2.3,4.9-3.8,10-4.1,15.2c-0.8,15.2,4.6,30,6.5,45c1.6,12.8,1.8,26.7-5.9,38.7C815.6,105.3,809.9,110.9,803.2,115.9z"/>
	<path class="st1" d="M1016.4,18.6c-1.7,16.7-22.2,18.8-32.4,8.7c-3.7,15.4,24.6,30.6,34.5,8.2c5.2-11.6,4.4-24.7-0.6-35.5h-6.5
		C1015.1,5.4,1017.2,11.8,1016.4,18.6z"/>
	<path class="st1" d="M925.5,70.7c4.3,10.5,11,22.2,20.3,29.5c-6.7-15-15.3-27.4-17.2-44.5c-1.5-13.5-0.7-27.9,6.2-40
		c3.3-5.8,7.6-11.1,12.6-15.7h-8.7c-8.3,9-14.2,20.1-16.3,32.5C920.3,45.1,920.5,58.7,925.5,70.7z"/>
	<path class="st1" d="M1046,47.7c-4.2-15.7,5.8-30.5,9.4-47c0-0.2,0.1-0.5,0.1-0.7h-17.8c-1.9,9.3-3.6,18.6-1.6,28.2
		C1037.9,36.6,1040.8,42.6,1046,47.7z"/>
	<path class="st1" d="M1105.8,16.2c9.7,2.8,21.5,5.5,28.6,13.2c0.2,0.2,0.4,0.4,0.6,0.7c-0.1-0.2-0.1-0.4-0.2-0.5
		c-2-5.9-4.3-11.5-8.4-16.3c-4.8-5.5-10.5-9.6-16.6-13.3h-32.1c0.1,0.2,0.2,0.3,0.3,0.5C1085.4,9.6,1094.9,13,1105.8,16.2z"/>
	<path class="st1" d="M1166.3,16.4c0.5-5.2,0.5-10.8,0-16.4h-14.2c0.3,4.5,0.1,9.1-0.5,13.6c-2.3,17.7-9.2,29,2.4,49.5
		C1154.1,47.3,1163.9,44,1166.3,16.4z"/>
	<path class="st1" d="M1240.9,0h-7.3c0.2,2.5,0.7,4.9,1.5,7.4C1236.5,4.5,1238.5,2,1240.9,0z"/>
	<path class="st1" d="M621,18.2c4.5-2.6,8.7-5.8,12.6-9.4c2.9-2.7,5.6-5.7,8-8.8h-24.3c-9,9.8-17.6,20.6-18.9,33.9
		C603.4,26.5,613.3,22.7,621,18.2z"/>
	<path class="st1" d="M6.6,0H0v40.4v20.4v14.5C17.4,58.7,9,26.6,6.6,0z"/>
	<path class="st1" d="M162.6,18.6c-1.7,16.8-22.2,18.8-32.3,8.7c-3.7,15.4,24.6,30.6,34.6,8.2c5.1-11.6,4.4-24.7-0.7-35.5h-6.7
		C161.3,5.4,163.4,11.8,162.6,18.6z"/>
	<path class="st1" d="M71.8,70.7c4.3,10.5,11,22.2,20.3,29.5c-6.7-15-15.3-27.4-17.2-44.5c-1.5-13.5-0.7-27.9,6.2-40
		C84.4,9.9,88.7,4.6,93.8,0H85c-8.3,9-14.2,20.1-16.3,32.5C66.6,45.1,66.8,58.7,71.8,70.7z"/>
	<path class="st1" d="M165.7,920.3c2.5,4,5.4,7.7,5.8,12.8c0.4,6.4-0.9,12.3-3.5,18.2c-5.2,11.8-9.3,23.3-8.1,36.5
		c0.4,4.4,1.2,8.4,2.4,12.2h17.3c-0.1-6.8,0.5-13.6,1.3-20.4c1.2-11.1,3.2-22.9,1.2-34.1C180.1,934.4,174.3,926.5,165.7,920.3z"/>
	<path class="st1" d="M116,941.2c-3.3-7.3-7.4-14.2-12.6-20.3c-2-2.3-6-6.7-10.1-9.3c7.1,7.9,9.3,19.1,10.4,29.8
		c1.5,15.3,2.3,29.9,6.9,44.8c1.4,4.5,2.9,9.2,4.7,13.8h17c-2-4.6-3.6-9.4-4.7-14.2C124.3,970.8,122.5,955.3,116,941.2z"/>
	<path class="st1" d="M243.3,1000h16.5c1.1-5.1,0.7-10.2,0-15.6C256.9,991.3,250.1,995.6,243.3,1000z"/>
	<path class="st1" d="M267.5,887.4c-2.4-1.1-4.8-1.8-7.2-2.4c11.7,15.4,5.1,43.1-6.6,56.7c-11.5,13.3-26.6,24.5-35.2,40.1
		c-3.2,5.8-5.4,11.9-6.8,18.2h5.6c6-13.9,15.9-24.8,28.6-33.2c16-10.5,37-18.6,39.2-40.5C286.4,913.3,280.8,893.3,267.5,887.4z"/>
	<path class="st1" d="M221.7,897.2c-11.6-3.2-25.8,3.2-27.8,14.5c-1.5,8.6,0,19.8,16.6,19.3c7.5-0.2,14.5-11.6,5.7-17.7
		c-3.6-2.5-6.9-1.6-6.9-1.6c3.8-7.7,14.6-6.3,19.6,0c6.5,8.4,2.9,20.1-2.4,28c-8.7,13-22,22.1-28.1,37c-2.9,7-5.8,15.4-6.3,23.3h6.6
		c1.1-9.2,3.8-18.1,8.6-25.8c10.4-16.1,28.4-28.7,29-49.4C236.6,914.3,233.5,900.4,221.7,897.2z"/>
	<path class="st1" d="M289.2,951.8c-6.1,9.8-11,20-7.8,32.2c1.7,6.4,5,13,11.4,16h9.6C292.3,986.6,286.8,968.2,289.2,951.8z"/>
	<path class="st1" d="M358.3,999.1c-0.1,0.3-0.2,0.6-0.3,0.9h21.8c0.5-2.9,1-5.8,1.5-8.7c1-5.5,2.5-10.2,4.6-14.3
		c-5.6,1.2-11.3,2-15.9,6.1C365,987.6,360.9,992.8,358.3,999.1z"/>
	<path class="st1" d="M447.6,952c-7.8-2.4-15.9-1.7-23.3,2.3c-10.4,5.7-19.5,14.2-24,25.4c-2.7,6.7-4.1,13.4-4.5,20.3h23.3
		c1.6-6.2,3-12.4,5.3-18.4c3.2-8,7.9-15,14.6-20.5c4.7-3.8,9.1-6.1,13.9-7.7C451.2,953,449.4,952.5,447.6,952z"/>
	<path class="st1" d="M494.5,975.7c-14-11.3-32.7-5.7-41.7,8.8c-2.6,4.3-5.1,9.8-6.2,15.5h10.8c-0.5-3.9,0.5-8.2,2.3-12
		c9.7-19.9,34.2-9.7,38.2,8.7c0.2,1.1,0.4,2.2,0.5,3.3h8.3C505.6,990.6,501.9,981.6,494.5,975.7z"/>
	<path class="st1" d="M563.5,979.8c-5.5,1-10.4,2.8-14.6,6.5c-4.5,4-8.1,8.7-11,13.7h15.3c6.9-6.6,14.8-12.5,24-14.7
		c1.3-0.3,2.8-0.5,4.3-0.6C576.5,980.2,570.9,978.5,563.5,979.8z"/>
	<path class="st1" d="M414.5,927.6c16.7-4,38.1-5.3,52.3,6.5c8.5,7,13.1,20.1,4.3,26.1c4.4,0.2,10.2-1.7,12.4-2.9
		c1.6-0.9,2.7-1.8,3.8-3.5c3.6-5.4,5-11.6,2.9-17.9c-3.6-10.6-11.6-19.8-20.9-25.8c-20-13.1-48.1-17.6-73.5-7.7
		c-20.7,8.1-36.3,24.1-47.7,43.2c-5.9,9.8-10.3,27.4-10.7,38.8c-0.1,3.7,0,9.7,0.1,15.6h5.9c4.1-12.9,7.7-25.1,16.4-36.7
		C373.2,945.5,392.8,932.7,414.5,927.6z"/>
	<path class="st1" d="M600.4,974.2c5.1-1.1,9.9-6,11.7-9.5c5.1-10.2,1.4-22.1-3.5-28.4c-17.8-22.6-45.3-18.3-62.9-6.5
		c-14.7,9.8-27,29.8-30.9,47.3c-1.2,5.6-1.7,14.3-1.5,22.9h7.4c2.1-11.1,4.7-21.5,8.3-32.1c5.3-15.6,16-29.5,32.5-34.5
		c12.8-3.9,27-2.3,36.2,8.3C606.1,951.3,607.1,964.6,600.4,974.2z"/>
	<path class="st1" d="M633.7,973.7c-1.4-1.4-3.2-2.8-5-4.3c0.7,4,0.3,8.5,0.4,11.8c0,5.3,0,10.5,3.3,15.1c0.4,0.5,0.8,1.1,1.2,1.6
		c0.6,0.7,1.2,1.4,1.8,2.1h9.8c-0.6-4.7-0.8-9.5-2.8-13.8C640.2,981.5,637.3,977.4,633.7,973.7z"/>
	<path class="st1" d="M724.9,920c-2.7-1.3-5.2-1.9-7.7-2c6.1,5.5,9.8,17.8,11.1,24c2.5,13,2.5,26.4,5,39.4c1,5.5,2.6,12.2,5.1,18.6
		h9.7c-1.8-9.8,0.1-19,1.2-28.8c1.6-14.5-0.8-27.8-10.6-39.2C734.8,927.5,730.4,922.6,724.9,920z"/>
	<path class="st1" d="M782.3,964.5c-5.6-5.1-14-8.4-20.2-5.1c2.4,0.9,4.8,2.8,6.4,4.9c6.2,7.9,9.6,18.5,9.8,28.5
		c0,2.4-0.2,4.8-0.6,7.2H794c1.3-6.4,1.3-12.8-1-18.9C790.7,975,787.2,968.9,782.3,964.5z"/>
	<path class="st1" d="M1019.4,920.3c2.5,4,5.4,7.7,5.8,12.8c0.4,6.4-0.9,12.3-3.5,18.2c-5.2,11.8-9.3,23.3-8.1,36.5
		c0.4,4.4,1.2,8.4,2.4,12.2h17.2c0-6.8,0.6-13.6,1.4-20.4c1.2-11.1,3.2-22.9,1.2-34.1C1033.8,934.4,1028,926.5,1019.4,920.3z"/>
	<path class="st1" d="M969.7,941.2c-3.3-7.3-7.4-14.2-12.6-20.3c-2-2.3-6-6.7-10.1-9.3c7.1,7.9,9.3,19.1,10.4,29.8
		c1.5,15.3,2.3,29.9,6.9,44.8c1.4,4.5,2.9,9.2,4.7,13.8h17c-2-4.6-3.6-9.4-4.7-14.2C978,970.8,976.2,955.3,969.7,941.2z"/>
	<path class="st1" d="M669.4,983c0,0.6,0,1.3-0.1,2.1c-0.8,5.2-2.3,10.1-4.1,14.9H680c-0.6-5.1-2.5-9.8-6.6-13.6
		C672.1,985.2,670.8,984.1,669.4,983z"/>
	<path class="st1" d="M704.4,1000h18.1c-1.1-8.6-6.6-15.1-11.8-21.8C712.1,985.7,708.8,992.9,704.4,1000z"/>
	<path class="st1" d="M876.2,936.6c-20,7.1-36.4,18.7-49.1,37.7c-5.5,8.2-10.5,16.8-14.6,25.7h11.7c3.3-7.1,7.1-13.9,11.1-20.5
		C845.8,962.6,859.3,947,876.2,936.6z"/>
	<path class="st1" d="M854,986.4c-4.4,3.9-7.8,8.5-10.1,13.6h20.9c1.7-1.2,3.5-2,5.5-2.3c2.7-0.4,5.5,0.3,7.2,2.3h5.1
		c0.2-2.6-0.2-5.3-1.3-7.8C876.5,980.8,863.3,978.2,854,986.4z"/>
	<path class="st1" d="M936.4,955.8c-0.1-0.1-0.1-0.2-0.2-0.3c-4,12-22.4,23.9-28,30.3c-3.7,4.2-6.6,9-8.7,14.2h42.2
		c3-7.5,3.8-16.2,2.1-23.7C942.3,969.2,940.1,962,936.4,955.8z"/>
	<path class="st1" d="M1097,1000h16.5c1.2-5.1,0.8-10.2,0-15.6C1110.6,991.3,1103.8,995.6,1097,1000z"/>
	<path class="st1" d="M1121.2,887.4c-2.4-1.1-4.8-1.8-7.2-2.4c11.7,15.4,5.1,43.1-6.6,56.7c-11.5,13.3-26.6,24.5-35.2,40.1
		c-3.2,5.8-5.4,11.9-6.8,18.2h5.6c6-13.9,16-24.8,28.6-33.2c16-10.5,37-18.6,39.2-40.5C1140.1,913.3,1134.5,893.3,1121.2,887.4z"/>
	<path class="st1" d="M1075.4,897.2c-11.6-3.2-25.8,3.2-27.8,14.5c-1.5,8.6,0,19.8,16.6,19.3c7.5-0.2,14.5-11.6,5.7-17.7
		c-3.6-2.5-6.9-1.6-6.9-1.6c3.8-7.7,14.6-6.3,19.6,0c6.5,8.4,2.9,20.1-2.4,28c-8.7,13-22,22.1-28.1,37c-2.9,7-5.8,15.4-6.3,23.3h6.6
		c1.1-9.2,3.8-18.1,8.6-25.8c10.4-16.1,28.5-28.7,29-49.4C1090.3,914.3,1087.2,900.4,1075.4,897.2z"/>
	<path class="st1" d="M1142.9,951.8c-6.1,9.8-11,20-7.7,32.2c1.7,6.4,5,13,11.4,16h9.5C1146,986.6,1140.5,968.2,1142.9,951.8z"/>
	<path class="st1" d="M1212.1,999.1c-0.1,0.3-0.2,0.6-0.3,0.9h21.7c0.5-2.9,1-5.8,1.5-8.7c1-5.5,2.5-10.2,4.7-14.3
		c-5.6,1.2-11.3,2-15.9,6.1C1218.8,987.6,1214.7,992.8,1212.1,999.1z"/>
	<path class="st1" d="M0.2,986.4c-0.1,0.1-0.1,0.1-0.2,0.2v13.4h11v0h12.7h5.1c0.2-2.6-0.2-5.3-1.3-7.8
		C22.7,980.8,9.5,978.2,0.2,986.4z"/>
	<path class="st1" d="M82.6,955.8c-0.1-0.1-0.1-0.2-0.2-0.3c-4,12-22.4,23.9-28.1,30.3c-3.7,4.2-6.6,9-8.7,14.2h42.3
		c3-7.5,3.8-16.2,2.1-23.7C88.5,969.2,86.3,962,82.6,955.8z"/>
	<path class="st1" d="M1266,428.7c-0.6,0-1.2-0.1-1.8-0.1c-3.9-0.1-7.2,1.5-8.1,5.5c-1.3,5.6,1.7,15.3,9.1,12.2
		c0.2-0.1,0.5-0.1,0.8-0.2V428.7z"/>
	<path class="st1" d="M1156.2,423.6c10.3-3.5,25.8,0.3,33.1,4.2c18.4,10,30.4,28.9,48.5,39.6c8.4,5.1,18.8,8.9,28.2,5.1V453
		c-11.8,14.3-34.2,3.2-46.4-7.3c-10.5-9.1-21.1-22.2-35.3-25.2C1175.6,418.7,1163.7,418,1156.2,423.6z"/>
	<path class="st1" d="M1256.1,176.5c4.2-2.8,7.4-6.5,9.9-10.9v-56.8c-5.2,4.8-9.5,10.5-12.2,17.1c-4.8,12-5.4,24.1-3.8,36.8
		c0.6,4.9,2.7,10.4,3,15.5C1254.1,177.8,1255.2,177.2,1256.1,176.5z"/>
	<path class="st1" d="M1231.4,242.6c0,0,12.5,2.3,25.7-12.1c4.4-4.8,7.1-11,8.9-17.5v-35.3c-0.2,0.2-0.3,0.4-0.5,0.6
		c-6.3,8.7-8.2,17.5-10.8,27.7C1249.3,226.6,1240.4,234.2,1231.4,242.6z"/>
	<path class="st1" d="M1266,392.5c-7.7,6.1-17.5,9.2-27.6,6.5c-5.2-1.4-10.6-9.2-11.1-14.9c-1.2,0.4-2.2,0.8-2.6,1.2
		c-4.6,5.2-6.5,13.8-1.8,19.7c6.1,7.6,17.2,11.7,26.9,11.6c5.9-0.1,11.3-1.4,16.2-3.7V392.5z"/>
	<path class="st1" d="M1266,246.1c-2.5,2.5-4.5,5.5-5.7,8.9c-2.1,5.9,0.6,14.4,5.7,18.7V246.1z"/>
	<path class="st1" d="M1266,221.1c-2.1,2.6-4.1,5.5-5.7,8.6c1.7-2.3,3.6-4.5,5.7-6.5V221.1z"/>
	<path class="st1" d="M1249.3,48.7c-20.7,8.1-36.3,24.1-47.7,43.2c-5.9,9.8-10.3,27.4-10.7,38.8c-0.3,8.9,0.7,30.6,0,33.3
		c7.8-19.8,9.8-37.6,22.4-54.4c13-17.2,31.8-29.8,52.7-35.2V44.3C1260.4,45.1,1254.8,46.6,1249.3,48.7z"/>
	<path class="st1" d="M1233.6,904.1c5.6-8.3,13.5-15.1,22-20.5c3.4-2.2,6.9-4,10.4-5.7v-13.5c-4.8,1.7-9.3,4-13,7.4
		C1244.7,879.6,1236.7,892.1,1233.6,904.1z"/>
	<path class="st1" d="M1266,805.9c-1.5,1-3,2-4.5,2.8c-18.2,11-33.5,31.8-26.6,52.4c1.7-3.5,4.3-6.5,7.4-8.7c4.7-3.4,9.9-6,15.6-7.2
		c2.5-0.5,5.3-0.9,8.1-1.4V805.9z"/>
	<path class="st1" d="M1266,570.7v-9.5c-13,6.2-20.3,22.6-11.5,38.7c1.6,2.9,6.5,5.6,11.5,6V597c-1.4-0.5-2.9-1.4-4.4-2.9
		C1255,587.2,1258.4,576,1266,570.7z"/>
	<path class="st1" d="M1266,616.7c-0.8,0.3-1.5,0.6-2.2,1.1c0.7,0.3,1.5,0.8,2.2,1.3V616.7z"/>
	<path class="st1" d="M1266,703.2v-49C1258.4,668.4,1258,688.8,1266,703.2z"/>
	<path class="st1" d="M1253.9,729c-8-9.1-15.2-30.5-6.2-41.3c-2.3,1.4-4.5,3.1-5.4,4.2c-6.2,6.7-8.7,15.6-6.7,24.5
		c3.7,16.4,14.4,29.1,29.6,36.4c0.3,0.1,0.5,0.2,0.8,0.4v-13.5C1261.6,736.5,1257.5,733,1253.9,729z"/>
	<path class="st1" d="M1266,484.9c-6.3-5.1-13.5-8.1-21.8-5.9c6.6,5.6,11.5,13.1,16.1,20.5c0.5,0.8,1,1.6,1.4,2.3
		c1.4,2.3,2.8,4.6,4.3,6.9V484.9z"/>
	<path class="st1" d="M1255.6,29.9c3.4-2.2,6.9-4,10.4-5.7V10.7c-4.8,1.7-9.3,4-13,7.4c-8.3,7.8-16.3,20.3-19.4,32.3
		C1239.2,42.1,1247.1,35.3,1255.6,29.9z"/>
	<path class="st1" d="M1253.8,979.7c-2.7,6.7-4.1,13.4-4.5,20.3h16.6v-37.3C1260.8,967.4,1256.5,973.1,1253.8,979.7z"/>
	<path class="st1" d="M1201.6,945.6c-5.9,9.8-10.3,27.4-10.7,38.8c-0.1,3.7,0,9.7,0.1,15.6h5.9c4-12.9,7.7-25.1,16.4-36.7
		c13-17.2,31.8-29.8,52.7-35.2V898c-5.6,0.8-11.2,2.3-16.7,4.4C1228.6,910.5,1213,926.5,1201.6,945.6z"/>
	<path class="st1" d="M138.9,86.8c4.3,9.3,8.1,21.2,7.6,32.2c1.5-2.4,2.8-5,3.5-7.8c3-11.8,0.6-22.8-5.5-33.3
		c-8.9-15.5-29-28-29.8-46.8c-0.5-10.4,0.4-21.3,12.6-24.9c8.7-2.6,17.1,4,18.1,12.3c3.3-6.6,1.5-13.9-3-18.5H112
		c-14.7,9.8-13.2,29.7-4.7,43.5C116.7,58.5,131.4,70.7,138.9,86.8z"/>
	<path class="st1" d="M896.3,20.4C909,21.1,915.8,10.3,921.2,0h-14.1c-0.9,0.1-1.9,0.1-3,0.2c-8.9,0.6-18.7,0.9-24.6,8.7
		c-1.3,1.7-2.3,3.6-3.2,5.4C882.4,13.5,890.7,20.1,896.3,20.4z"/>
	<path class="st1" d="M992.6,86.8c4.3,9.3,8.1,21.2,7.6,32.2c1.5-2.4,2.8-5,3.5-7.8c3-11.8,0.6-22.8-5.5-33.3
		c-8.9-15.5-29-28-29.8-46.8c-0.5-10.4,0.5-21.3,12.6-24.9c8.7-2.6,17.1,4,18.1,12.3c3.3-6.6,1.5-13.9-3-18.5h-30.4
		C951,9.8,952.5,29.7,961,43.5C970.4,58.5,985.1,70.7,992.6,86.8z"/>
	<path class="st1" d="M42.6,20.4C55.3,21.1,62.1,10.3,67.5,0H53.4c-1,0.1-2,0.1-3.1,0.2c-8.9,0.6-18.7,0.9-24.5,8.7
		c-1.3,1.7-2.3,3.6-3.2,5.4C28.7,13.5,37,20.1,42.6,20.4z"/>
	<path class="st1" d="M349.9,24.7c5.2,12.7,6.2,27.6,2.1,40.7c-4.4,13.9-13.9,23.5-20.3,36.2c-4.5,9-5.4,17.6-2.7,27.4
		c0.1,0.4,0.2,0.8,0.3,1.1c0.4-10.3,2.8-20.8,6.9-28.5c6.1-11.5,15.4-20.9,22.3-31.9c8.2-12.7,10.6-25.4,5.2-39.9
		c-3.2-9-8.2-18.9-16.5-24.6c-3.4-2.3-7.7-4.3-12.2-5.2h-9c3.8,2.1,7.8,3.7,11,6.8C342.4,11.9,347.1,17.8,349.9,24.7z"/>
	<path class="st1" d="M1246,749c6.8,11.1,8.3,24.2,4.9,36.6c-1.5,5.4-3.8,10.5-6.1,15.5c-1.1,2.3-4.2,11.6-6.6,12.5
		c8.4-3.2,22.9-8,27.8-29.2v-17.3h0C1262.9,757.5,1254.5,752.3,1246,749z"/>
</g>
</svg>
