<?xml version="1.0" encoding="utf-8"?>
<!-- Generator: Adobe Illustrator 21.0.0, SVG Export Plug-In . SVG Version: 6.00 Build 0)  -->
<svg version="1.1" id="Layer_1" xmlns="http://www.w3.org/2000/svg" xmlns:xlink="http://www.w3.org/1999/xlink" x="0px" y="0px"
	 viewBox="0 0 209 63.3" style="enable-background:new 0 0 209 63.3;" xml:space="preserve">
<style type="text/css">
	.st0{fill:#807A6E;}
</style>
<g>
	<path class="st0" d="M194.6,63.3c-9.2,0-17.8-6.5-27-13.5c-9.7-7.4-19.8-15-30.9-15c-10,0-15.2,7-15.2,13.8c0,3.1,1.1,5.9,3,8
		c2.2,2.3,5.5,3.5,9.5,3.5c4.1,0,7.5-2.1,9.1-5.6c1.4-3.1,1-6.6-1.1-8.9c-0.6-0.6-0.5-1.6,0.1-2.2c0.6-0.6,1.6-0.5,2.2,0.1
		c2.9,3.1,3.5,7.9,1.7,12.2c-2.1,4.7-6.5,7.5-11.9,7.5c-4.8,0-8.9-1.6-11.7-4.5c-2.5-2.6-3.9-6.2-3.9-10.1c0-8.2,6.4-16.9,18.3-16.9
		c12.2,0,22.6,7.9,32.8,15.6c8.7,6.6,17,12.9,25.1,12.9c4.2,0,11.3-1.3,11.3-10.1c0-3.9-2-7.2-5.3-8.5c-3.1-1.2-6.6-0.4-9.1,2.3
		c-0.6,0.6-1.6,0.7-2.2,0.1c-0.6-0.6-0.7-1.6-0.1-2.2c3.4-3.6,8.2-4.7,12.5-3c4.5,1.8,7.3,6.1,7.3,11.3
		C209,58.3,203.6,63.3,194.6,63.3z"/>
	<path class="st0" d="M75.1,63.3c-5.4,0-9.8-2.8-11.9-7.5c-1.9-4.3-1.2-9.1,1.7-12.2c0.6-0.6,1.6-0.7,2.2-0.1
		c0.6,0.6,0.7,1.6,0.1,2.2c-2.1,2.2-2.5,5.7-1.1,8.9c1.5,3.5,4.9,5.6,9.1,5.6c4,0,7.2-1.2,9.5-3.5c2-2,3-4.9,3-8
		c0-6.9-5.2-13.8-15.2-13.8c-11.1,0-21.2,7.6-30.9,15c-9.2,6.9-17.8,13.5-27,13.5C5.4,63.3,0,58.3,0,50c0-5.2,2.8-9.6,7.3-11.3
		c4.4-1.7,9.1-0.6,12.5,3c0.6,0.6,0.6,1.6-0.1,2.2c-0.6,0.6-1.6,0.5-2.2-0.1c-2.5-2.6-6-3.5-9.1-2.3c-3.3,1.3-5.3,4.5-5.3,8.5
		c0,8.8,7.1,10.1,11.3,10.1c8.1,0,16.4-6.2,25.1-12.9c10.1-7.7,20.6-15.6,32.8-15.6c11.9,0,18.3,8.7,18.3,16.9
		c0,3.9-1.4,7.5-3.9,10.1C83.9,61.7,79.9,63.3,75.1,63.3z"/>
	<path class="st0" d="M104.5,49c-4,0-5.6-2.4-6.9-10.6c-1.2-7.5-4-11.3-12.2-16.9c-0.5-0.3-0.7-0.8-0.7-1.4c0-0.6,0.4-1,0.9-1.3
		c2.9-1.3,7-2.2,10.4-0.9c1.2-10.6,3.7-13.9,7.4-17.6c0.6-0.6,1.6-0.6,2.2,0c3.7,3.7,6.2,7,7.4,17.6c3.4-1.2,7.5-0.4,10.4,0.9
		c0.5,0.2,0.8,0.7,0.9,1.3c0,0.6-0.2,1.1-0.7,1.4c-8.2,5.6-10.9,9.4-12.2,16.9C110.1,46.7,108.5,49,104.5,49z M89.6,20.8
		c7,5.2,9.8,9.7,11,17.2c1.3,8,2.4,8,3.9,8c1.4,0,2.6,0,3.9-8c1.2-7.5,4-12,11-17.2c-2.2-0.5-4.9-0.6-6.7,0.9
		c-0.4,0.3-1,0.4-1.6,0.2c-0.5-0.2-0.9-0.7-0.9-1.3c-0.9-10.8-3.1-14.1-5.7-16.9c-2.6,2.7-4.7,6.1-5.7,16.9c0,0.6-0.4,1.1-0.9,1.3
		c-0.5,0.2-1.1,0.2-1.6-0.2C94.5,20.3,91.8,20.3,89.6,20.8z"/>
</g>
</svg>
