<?xml version="1.0" encoding="utf-8"?>
<!-- Generator: Adobe Illustrator 21.0.0, SVG Export Plug-In . SVG Version: 6.00 Build 0)  -->
<svg version="1.1" id="Layer_1" xmlns="http://www.w3.org/2000/svg" xmlns:xlink="http://www.w3.org/1999/xlink" x="0px" y="0px"
	 viewBox="0 0 612 612" style="enable-background:new 0 0 612 612;" xml:space="preserve">
<style type="text/css">
	.st0{fill:url(#SVGID_1_);}
	.st1{fill:#807A6E;}
	.st2{fill:none;}
</style>
<linearGradient id="SVGID_1_" gradientUnits="userSpaceOnUse" x1="612.1" y1="612.1" x2="-1.818989e-12" y2="-1.136868e-13">
	<stop  offset="0" style="stop-color:#DDDDDD"/>
	<stop  offset="1" style="stop-color:#FFFFFF"/>
</linearGradient>
<rect class="st0" width="612.1" height="612.1"/>
<g>
	<g>
		<path class="st1" d="M161.6,466c-0.5,0-0.6,0-0.6,0s0-0.2,0-0.5s0.1-0.6,0.3-0.6c1.4-1,2.6-3.1,3.7-6.1c0.5-1.2,0.9-2.7,1.4-4.3
			l1.8-5.9c3.4-11.1,8.7-22.8,16.1-35.3l-11.5,14.2l-8.3,9.6l-5.1,5.8c-10.4,11.3-18.5,18.4-24.3,21.1c-2.1,0.9-4,1.5-5.6,1.5
			c-1.6,0-3-0.2-4.1-0.5c-1.1-0.3-1.9-0.7-2.7-1.3c-1.4-1-2.1-2.4-2.1-4.1c0-1.1,0.4-1.9,1-2.4c0.9-0.7,1.9-1.2,2.6-1.2
			c1.8,0,2.6,0.6,2.6,1.9c0,0.6-0.3,1.1-0.7,1.5c-0.5,0.5-1.1,0.6-1.9,0.6s-1.4-0.2-1.9-0.5v0.3c0,1.3,0.6,2.3,1.7,3.1
			c1.1,0.8,2.6,1.2,4.4,1.2s3.7-0.4,5.6-1.2c1.9-0.8,4.1-2.1,6.5-4c5.4-4,11.8-10.1,19.3-18.6l11.9-13.6
			c9.7-11.7,15.2-18.5,16.5-20.2c0.6-0.6,0.9-0.9,1.1-0.9s0.4,0.1,0.4,0.3s-0.1,0.4-0.2,0.6l-0.6,1.1c-1,1.8-1.9,3.6-2.4,5.6
			s-1,3.5-1.3,4.7s-0.6,2.4-1,3.7l-1.5,4.6c-2,6.4-4.5,12.3-7.4,17.9l-7.5,13.5l13-15.5l5.8-6.5l5.9-6.5l5.8-6.2
			c10.9-11.3,20.1-18.2,27.6-20.6c2.5-0.8,5.1-1.2,7.9-1.3c2.7,0,4.8,0.6,6.4,1.9c1.6,1.3,2.3,3.2,2.3,5.7c0.1,2.7-1.3,5.8-4.1,9.1
			c-2.9,3.4-6.6,6.2-10.9,8.4c-1,0.5-1.8,0.7-2.2,0.7c-0.5,0-0.6-0.1-0.6-0.3s0.6-0.6,1.7-1c1.1-0.5,2.5-1.2,4.3-2.4
			c1.8-1.2,3.3-2.5,4.7-4c3.2-3.3,4.6-6.6,4.6-9.7c0-2.2-0.6-4-1.9-5.3c-1.2-1.2-3-1.9-5.3-1.9c-2.3,0-4.8,0.5-7.5,1.5
			c-2.7,1-5.7,2.6-8.8,4.8c-6.3,4.4-13.8,11.3-22.7,21.1l-9.9,11.2l-8.4,9.8l-11.3,13.5C162.8,465.4,162,466,161.6,466z
			 M153.4,415.8c-0.6,0.6-1,0.9-1.7,0.9c-0.6,0-1.1-0.2-1.5-0.6c-0.5-0.4-0.6-0.8-0.6-1.3c0-0.6,0.2-1,0.6-1.4
			c0.4-0.4,0.8-0.6,1.5-0.6c0.6,0,1.1,0.1,1.7,0.4c0.5,0.3,0.9,0.6,1.4,1.2c0.8,1.1,1.3,2.5,1.3,4.3c0,1.7-0.4,3.2-1.1,4.6
			s-1.8,2.6-3.1,3.6c-2.7,2.1-5.8,3.2-9.3,3.2c-3.6,0-6.5-1-8.8-3c-2.6-2.1-3.9-5.1-3.9-8.9c0-4.1,1.8-7.4,5.4-10.2
			c3.6-2.8,8.3-4.1,13.9-4.1c3.4,0,6,0.3,7.8,0.8c1.8,0.6,3.2,1,4.5,1.6c1.3,0.6,2.6,1.1,3.9,1.8l4.4,2c2.2,0.9,4.1,1.4,5.5,1.4
			c2.7,0,5.1-0.9,7.2-2.9c0.2-0.1,0.3-0.2,0.5-0.2s0.3,0.1,0.3,0.3s-0.2,0.6-0.6,1c-1.7,1.7-4.3,2.9-7.6,3.6
			c-0.9,0.2-1.8,0.3-2.5,0.3c-0.7,0-1.7-0.1-2.8-0.3c-1-0.2-2.1-0.4-3.2-0.6c-2.2-0.6-4.2-1.5-6-2.5c-1.8-1-3.3-1.9-4.6-2.4
			c-1.3-0.6-2.4-1-3.4-1.4c-1.7-0.6-3.5-0.8-5.6-0.8s-4.1,0.3-5.9,0.9c-1.9,0.6-3.6,1.6-5,2.7c-3.2,2.5-4.6,5.6-4.6,9.3
			c0,3.1,1,5.6,3.1,7.5c2,2,4.7,3,8.1,3c3.2,0,5.9-0.9,8.4-2.8c2.7-2,4-4.5,4-7.6C154.6,417.6,154.2,416.7,153.4,415.8z"/>
		<path class="st1" d="M212.3,458.3c-1,0-1.9-0.5-2.3-1.3c-3.4,3.9-7.1,6.4-11,7.7c-1.3,0.4-2.6,0.6-3.8,0.6s-2.3-0.2-3.2-0.5
			c-0.9-0.3-1.6-0.6-2.2-1.2c-2.3-2-2.5-5.5-0.6-10.4c0.7-1.9,1.7-3.7,2.8-5.4s2.4-3.2,3.8-4.6c1.4-1.5,3-2.7,4.5-3.8
			c3.7-2.5,7.3-3.7,10.9-3.7c1.5,0,2.8,0.4,3.9,1.2c1.1,0.7,1.7,1.9,1.8,3.4c0.1,1.5,0,2.9-0.3,4.2c-0.3,1.3-0.6,2.6-1.1,3.9
			c-1,2.6-2.5,5.1-4.4,7.5c0.2,0.8,0.7,1.2,1.7,1.2s1.8-0.2,2.6-0.6c0.8-0.4,1.7-0.9,2.4-1.6c0.8-0.6,1.6-1.3,2.4-2
			c0.8-0.7,1.5-1.5,2.1-2.1l1.7-1.8c0.5-0.6,0.7-0.9,1-1.1l0.9,0.7c-0.4,0.4-0.8,0.8-1.4,1.5c-0.6,0.6-1.2,1.3-1.9,2l-2.3,2.2
			C217.1,457,214.5,458.3,212.3,458.3z M194.5,463.6c0.5,0.2,1.1,0.4,1.9,0.4c1.9,0,4.3-1,7.1-3.2c2.2-1.6,4.3-3.4,5.9-5.6v-0.2
			c0-2.4,0.9-4.3,2.8-5.5c0.5-0.4,0.9-0.6,1.4-0.7c1.4-2.9,2-5.3,1.9-7.1c-0.2-3-1.3-4.5-3.2-4.5c-3.3,0-8.1,3.8-14.2,11.4
			c-3.9,4.9-5.8,8.7-5.6,11.5C192.5,461.9,193.2,463,194.5,463.6z"/>
		<path class="st1" d="M289.5,437.9c0-0.4,0.2-0.7,0.8-1.1c0.6-0.4,1.7-0.5,3.3-0.5s3.1,0.4,4.4,1.1c4-1.7,7.5-4.6,10.7-8.9
			c3.2-4.3,4.6-8.2,4.5-11.7c-0.1-2.3-1-4.3-2.7-5.8c-7.1,4.7-14.3,12.6-21.8,23.5c-11.6,16.2-21.7,26-30.3,29.3
			c-2.7,1-4.9,1.6-6.9,1.6c-1.9,0-3.4-0.2-4.6-0.5c-1.2-0.3-2.1-0.7-2.9-1.3c-1.5-1-2.2-2.4-2.2-4.2s0.8-2.9,2.6-3.4
			c0.5-0.1,0.9-0.2,1.4-0.2c0.5,0,0.9,0.2,1.4,0.5c0.5,0.3,0.7,0.7,0.7,1.4s-0.3,1.2-0.7,1.6c-0.5,0.5-1.1,0.6-1.9,0.6
			s-1.4-0.2-1.9-0.5v0.3c0,1.3,0.6,2.3,1.8,3.2c1.2,0.8,2.7,1.2,4.4,1.2c1.7,0,3.2-0.1,4.3-0.4c1.1-0.3,2.3-0.7,3.5-1.5
			c1.2-0.7,2.5-1.7,3.9-2.9c1.4-1.2,2.9-2.9,4.6-4.8c1.8-1.9,3.6-4.4,5.8-7.1l7.4-9.9c6.1-8.6,13.1-15.8,20.8-21.6
			c4.1-3.2,7.1-5.1,8.8-6c-3.4-2.3-8.5-3.4-15.3-3.4c-6.3,0-12.4,1.4-18.5,4.2c-5.5,2.5-9.9,5.8-13.3,9.8s-5,7.8-4.9,11.3
			c0.1,2.1,0.8,3.7,2.4,4.9c1.2,0.9,2.7,1.4,4.4,1.4s3.4-0.5,5.2-1.4c1.8-0.9,3.4-2.1,5.1-3.6c1.7-1.5,3.2-3.2,4.6-4.9
			c1.5-1.9,2.7-3.6,3.8-5.5c2.3-3.7,3.6-6.8,3.9-8.9c0.1-0.9,0.3-1.5,0.6-1.5s0.5,0.1,0.5,0.3c0,0.2,0.1,0.8,0.1,1.9
			c0,1.1-0.2,2.6-0.6,4.5c-0.5,1.9-1.1,3.8-2,5.8c-0.9,1.9-2.1,3.7-3.5,5.4c-1.4,1.8-3,3.2-4.7,4.5c-3.9,2.9-8.2,4.4-12.9,4.4
			c-1.9,0-3.8-0.6-5.4-1.9c-1.8-1.4-2.6-3.2-2.7-5.5c-0.1-2.2,0.5-4.5,1.5-6.7c1-2.2,2.5-4.4,4.4-6.3c1.9-1.9,4.1-3.8,6.7-5.5
			c2.5-1.7,5.3-3.1,8.2-4.3c6.1-2.5,12.3-3.7,18.7-3.7s11.5,1.3,15.5,4c4.3-2.1,7.3-3.2,9.3-3.2c0.6,0,0.8,0.1,0.8,0.4
			c0,0.2-0.1,0.4-0.3,0.6c-0.2,0.1-0.6,0.3-1.5,0.4c-1.8,0.3-4.1,1.4-7,3.1c3.3,2.7,5.1,6.1,5.2,10.4c0.2,3.7-1.4,7.1-4.6,10.5
			c-3.2,3.4-7.6,5.9-13,7.5c0.8,0.8,1.3,1.9,1.3,3.1c0,1.2,0,2.2-0.2,3.2c-0.2,0.9-0.6,1.9-1.1,3.2c-1.2,2.2-3.6,5.2-7.3,8.9
			c-1.7,1.4-2.5,2.8-2.4,4.2c0,2.1,1.5,3.2,4.5,3.2c3.5,0,7.1-1.9,10.9-5.6c3.8-3.8,6.7-8.4,8.5-13.9c0.3-0.8,0.5-1.3,0.6-1.3
			c0.6,0,0.7,0.6,0.7,1.9c0,1.2-0.3,2.7-0.9,4.4c-0.6,1.7-1.5,3.2-2.6,4.8c-1.1,1.6-2.3,3-3.8,4.4c-1.5,1.4-3,2.5-4.5,3.4
			c-3.3,2.1-6.2,3.2-8.8,3.2s-4.5-0.5-5.7-1.5c-1.3-1-1.9-2.2-1.9-3.8c-0.1-1.6,0.1-3,0.6-4.4c0.5-1.4,1-2.6,1.8-3.7
			c0.7-1.2,1.6-2.2,2.5-3.2l2.7-2.9c2-1.7,3.2-3.2,3.4-4.5c0.1-0.4,0.1-0.7,0.1-1.2c0-0.4-0.1-0.7-0.3-1.1c-1.3,0.3-2.6,0.5-3.9,0.5
			c-1.3,0-2.2-0.2-2.9-0.5C289.9,438.7,289.5,438.3,289.5,437.9z M296.2,438c-0.8-0.5-1.9-0.6-3.2-0.6c-1.3,0-1.9,0.1-1.9,0.4
			c0,0.6,0.6,0.8,1.8,0.8C293.9,438.6,295.1,438.4,296.2,438z"/>
		<path class="st1" d="M335.9,461.5c-1.9,1.2-3.8,2.1-5.8,2.9c-2.1,0.7-4.1,1.1-6,1.1c-1.9,0-3.3-0.2-4.4-0.6
			c-1-0.4-1.8-0.9-2.4-1.6c-2.7-2.9-2.7-7.2,0-12.9c1.2-2.5,3-4.8,5.3-6.9c2.4-2,4.5-3.6,6.3-4.6c3.5-2,6.8-3,9.8-3
			c3.1,0,4.6,0.9,4.7,2.9c0.2,3.1-3.5,6.4-11.1,10c-2.8,1.3-6.3,2.7-10.6,4.1c-1.7,2.8-2.5,5-2.5,6.7c0,1.8,0.5,3,1.4,3.7
			c0.9,0.7,2.2,1.1,4,1.1c1.8,0,3.6-0.4,5.7-1.1c2-0.7,3.9-1.7,5.7-2.9c1.8-1.1,3.3-2.4,4.8-3.7c1.4-1.4,2.7-2.6,3.8-3.9
			c1.1-1.2,2-2.3,2.7-3.2c0.7-0.9,1.2-1.5,1.4-1.7l0.9,0.7c-0.4,0.3-0.9,0.9-1.7,1.9c-0.7,0.9-1.8,2-2.9,3.3c-1.2,1.2-2.5,2.6-4,3.9
			C339.4,459.1,337.7,460.3,335.9,461.5z M322.8,451.2c8.6-3.1,14.2-6,16.7-9.1c0.8-1,1.2-1.9,1.2-2.9c0-1.6-0.7-2.4-2.2-2.4
			c-2.6,0-5.9,2.3-9.8,7C325.9,446.9,323.9,449.4,322.8,451.2z"/>
		<path class="st1" d="M357,472.5c12.1-6,22.4-14.3,31-24.7l0.8,0.7c-9.1,11-20.3,19.7-33.5,25.9l-7.6,9.2
			c-6.4,7.3-11.7,12-15.7,13.8c-2.5,1.1-5.4,1.7-8.6,1.7c-1.8,0-3.1-0.6-3.9-1.9c-0.6-0.8-0.6-1.9,0-3.1c0.6-1.2,1.2-2.2,2.1-3.2
			c0.9-1,2.1-2,3.6-3.2c1.5-1.1,3.4-2.3,5.7-3.6c4.6-2.6,10.9-5.6,18.7-8.9l17.4-21.5l-0.4-0.2c-5.2,5.9-9.9,9.7-14.1,11.1
			c-1.2,0.5-2.3,0.6-3.2,0.6c-3.4,0-5.3-1.9-5.4-5.7c0-4.5,1.7-8.6,5.1-12.6c6.1-7.5,12.9-11.2,20.1-11.2c1.9,0,3.3,0.3,4.5,0.9
			c1.8,1,2.1,2.7,1.2,5.1l4.1-5.2c0.8,0.2,1.6,0.4,2.3,0.4c1.7,0,2.9-0.1,3.6-0.2L357,472.5z M348.1,477.1
			c-14.7,6.4-23.3,11.5-26.1,15.2c-0.9,1.4-1.5,2.6-1.5,3.9c0,0.3,0.3,0.6,0.8,1.1c0.6,0.4,1.3,0.6,2.2,0.6c0.9,0,1.9-0.1,2.9-0.4
			c0.9-0.3,1.9-0.6,3-1.2c1-0.6,2.1-1.4,3.3-2.4c1.2-1,2.6-2.3,4.1-3.8c1.5-1.6,3.2-3.3,5-5.5L348.1,477.1z M374.2,439.7
			c-0.1-1.8-1.4-2.6-3.9-2.6c-2.7,0-6.5,2.3-11.5,7.1c-1.7,1.7-3.5,3.7-5.5,6.1c-3.9,4.8-5.8,8.7-5.8,11.5c0.1,0.8,0.3,1.4,0.6,1.8
			s0.8,0.5,1.6,0.5c0.7,0,1.8-0.3,3-0.7s2.6-1.3,4.1-2.4c3.6-2.5,7.3-6.1,11.3-10.8l3.3-4.1C373.3,443.4,374.2,441.3,374.2,439.7z"
			/>
		<path class="st1" d="M395.1,461.9c0,1.3,0.6,2,1.7,2s2.4-0.4,3.7-1c1.4-0.6,2.8-1.6,4.2-2.6c1.4-1,2.8-2.2,4.2-3.5l3.7-3.7
			c1.1-1.2,2.1-2.2,3-3.2l1.8-1.9l0.8,0.7c-0.6,0.5-1.3,1.2-2.2,2.3l-3.1,3.4c-7,7.4-13,11-18,11c-1.7,0-3-0.4-3.9-1.2
			c-0.9-0.8-1.5-1.9-1.5-3.2c0-4.3,6.2-10.6,18.7-18.9c-6-1-10.3-2-12.6-3.1c-1.9,3.9-4.8,7.9-8.7,11.9c-0.9,0.9-1.5,1.5-1.7,1.6
			s-0.4,0.2-0.4,0.2s-0.1,0-0.1-0.3c0-0.2,0-0.4,0-0.5s0.1-0.2,0.2-0.3c1.4-1.5,2.6-3,3.7-4.4c2.7-3.3,4.6-6.3,5.8-8.8
			c-1-0.6-1.6-1.4-1.8-2.1c-0.2-0.7-0.1-1.5,0-2c0.2-0.6,0.4-1.2,0.7-1.8c0.7-1.1,1.6-1.7,2.6-1.7c1.8,0,2.7,0.6,2.7,1.9
			c0,0.6-0.1,1.2-0.4,1.7l-0.7,1.3c-0.6,0.6-0.7,1.4-0.7,2.3c0,0.6,1.1,1,3.2,1.5c2.2,0.5,3.7,0.7,4.6,0.9c2,0.4,3.6,0.6,4.7,0.6
			c0.8,0,1.2,0.3,1.2,0.6c0,0.3-0.5,0.7-1.4,1.5c-0.9,0.7-1.9,1.7-3.1,2.7c-1.1,1-2.2,2.1-3.2,3.3s-2,2.3-3,3.5
			c-0.9,1.2-1.8,2.3-2.5,3.4C395.9,458.6,395.1,460.5,395.1,461.9z"/>
		<path class="st1" d="M433.7,461.5c-1.9,1.2-3.8,2.1-5.8,2.9c-2.1,0.7-4.1,1.1-6,1.1c-1.9,0-3.3-0.2-4.4-0.6
			c-1-0.4-1.8-0.9-2.4-1.6c-2.7-2.9-2.7-7.2,0-12.9c1.2-2.5,3-4.8,5.3-6.9c2.4-2,4.5-3.6,6.3-4.6c3.5-2,6.8-3,9.8-3
			c3.1,0,4.6,0.9,4.7,2.9c0.2,3.1-3.5,6.4-11.1,10c-2.8,1.3-6.3,2.7-10.6,4.1c-1.7,2.8-2.5,5-2.5,6.7c0,1.8,0.5,3,1.4,3.7
			c0.9,0.7,2.2,1.1,4,1.1c1.8,0,3.6-0.4,5.7-1.1c2-0.7,3.9-1.7,5.7-2.9c1.8-1.1,3.3-2.4,4.8-3.7c1.4-1.4,2.7-2.6,3.8-3.9
			c1.1-1.2,2-2.3,2.7-3.2c0.7-0.9,1.2-1.5,1.4-1.7l0.9,0.7c-0.4,0.3-0.9,0.9-1.7,1.9c-0.7,0.9-1.8,2-2.9,3.3c-1.2,1.2-2.5,2.6-4,3.9
			C437.1,459.1,435.5,460.3,433.7,461.5z M420.5,451.2c8.6-3.1,14.2-6,16.7-9.1c0.8-1,1.2-1.9,1.2-2.9c0-1.6-0.7-2.4-2.2-2.4
			c-2.6,0-5.9,2.3-9.8,7C423.6,446.9,421.6,449.4,420.5,451.2z"/>
		<path class="st1" d="M441.8,462.7c0,0.8,0.6,1.3,2,1.3c1.4,0,2.8-0.3,4.2-0.9c1.4-0.6,2.8-1.4,4.2-2.4c1.4-0.9,2.7-2,4-3.2
			c1.3-1.2,2.5-2.4,3.6-3.6c1.1-1.2,2.1-2.3,3-3.4l2.2-2.7l0.9,0.7l-2.2,2.6c-8,9.5-14.7,14.2-20.1,14.2c-1.6,0-2.8-0.3-3.5-0.9
			c-0.7-0.6-1.2-1.3-1.2-2s0-1.4,0.1-1.9s0.2-1,0.5-1.6c0.2-0.6,0.6-1.3,1-2c0.5-0.8,1-1.8,1.8-2.9l6.7-9.7l11-15.6h-3.4
			c-0.8,0-1.3-0.2-1.3-0.6c0-0.4,0.6-0.6,1.7-0.6h3.9l8-11.1c2,0.3,4,0.3,5.9,0l-8.3,11.1h11c0.8,0,1.2,0.2,1.2,0.6
			c0,0.4-0.4,0.6-1.1,0.6h-12.2l-17.8,24.2c-3.1,4.4-4.8,7-5.3,8C441.9,461.8,441.8,462.4,441.8,462.7z"/>
		<path class="st1" d="M477.9,457.3c0.4,0.1,0.7,0.1,1.3,0.1s1.2-0.2,1.9-0.6c0.7-0.4,1.5-0.9,2.3-1.6c0.7-0.6,1.6-1.3,2.3-2
			c0.7-0.7,1.5-1.5,2.1-2.2c0.6-0.7,1.2-1.3,1.7-1.9l1-1.3l0.9,0.7c-0.4,0.4-0.7,0.8-1.3,1.4l-1.8,2c-4,4.3-7.1,6.4-9.5,6.4h-0.7
			c-0.2,0-0.5,0-0.6-0.1c-2.4,5.2-7.5,7.9-15.3,7.9c-3.4,0-5.8-0.8-7.4-2.4c-0.6-0.7-1-1.7-1-2.8c0-1.1,0.3-2,0.8-2.9
			c0.6-0.7,1.1-1.4,1.9-1.9c1.5-1,2.8-1.6,3.9-1.6c1.1,0,1.8,0.6,1.8,1.7c-0.1,0.7-0.7,1.3-1.9,1.7c-0.4,0.1-0.7,0.2-1.1,0.2
			s-0.7-0.1-1-0.4c-0.4-0.3-0.6-0.5-0.8-0.6c-0.2,0.2-0.4,0.4-0.6,0.6c-0.3,0.2-0.6,0.5-0.8,0.8c-0.6,0.7-0.9,1.6-0.9,2.4
			c0,0.8,0.3,1.5,0.8,1.9c0.6,0.5,1.2,0.8,1.9,1.1c1.1,0.4,2.3,0.6,3.5,0.6c1.2,0,2.5-0.3,3.8-0.7c1.3-0.6,2.6-1.4,3.8-2.6
			c3.4-3.2,5.4-8.2,5.7-14.7c0.2-4.4,0.7-7.8,1.6-10.2c0-0.1,0-0.2,0-0.4l-10.3,12.5c-0.6,0.6-1.1,1.2-1.7,1.7
			c-0.4,0-0.6-0.1-0.6-0.3c-0.1-0.2,0.1-0.4,0.4-0.8c7.4-8.8,11.5-13.8,12.4-15c0.5-2.2,1.2-3.3,2.2-3.3c0.5,0,0.9,0.1,1.2,0.4
			c0.4,0.3,0.5,0.6,0.5,1c0,0.6-0.5,1.3-1.3,2.3c-0.8,1-1.4,1.6-1.6,1.9s-0.3,0.5-0.4,0.6c-0.1,0.2-0.1,0.4-0.1,0.6v0.6
			c0,0.7,0,1.7,0.2,2.8l1.1,7.1C478.9,451.8,478.7,454.9,477.9,457.3z"/>
	</g>
</g>
<g>
	<g>
		<path class="st1" d="M267.3,180.1c-2,2.9-3.8,4.5-7.6,4.5c-3.6,0-6.3-1.6-7.6-7.7l-1.6-7.1c-1.3-6-2.4-10.1-8-10.1h-6.7v16.5
			c0,5.1,0.9,5.9,5.7,6.1v1.4c-2.2-0.1-5.7-0.2-9-0.2c-3.7,0-7.1,0.1-9.1,0.2v-1.5c4.8-0.2,5.7-0.9,5.7-6.1V141
			c0-5.1-0.9-5.9-5.7-6.1v-1.4c2,0.1,5.5,0.2,8.6,0.2c4.5,0,9-0.1,10.7-0.1c11.4,0,17.1,5.4,17.1,12.3c0,4.9-3.1,12-13.8,13.6
			l0.9,0.1c6.3,1,8.6,3.5,9.9,9.3l1.8,7.2c0.9,4.1,1.7,5.8,3.6,5.8c1.7,0,2.6-1,3.9-2.7L267.3,180.1z M240.6,158.5
			c10,0,12.2-5.3,12.2-11.8c0-7.4-3.2-11.8-11.8-11.8c-4.3,0-5.3,1.2-5.3,6.1v17.4L240.6,158.5L240.6,158.5z"/>
		<path class="st1" d="M272.8,167.2c0.6,8.6,3.8,16.1,12.9,16.1c4.6,0,9.2-2.8,9.2-9.4c0-5.7-4.5-9-11-12.9
			c-6.7-4-12.6-7.9-12.6-15.9c0-8.4,6.3-12.3,13.3-12.3c4.7,0,6.7,1.3,8.6,2.6c1.1,0.7,1.8,1,2.4,1c0.9,0,1.3-1.1,1.6-3.1h1.6
			c-0.2,2.5-0.3,5.5-0.3,14.4h-1.6c-0.5-6.7-3.8-13.6-11.6-13.6c-5,0-8.6,3.4-8.6,8.2c0,6.4,5.5,9,11.9,13
			c7.4,4.6,12.8,8.3,12.8,15.9c0,9-6.8,13.4-15,13.4c-5,0-7.6-1.3-9.7-2.6c-1.1-0.7-1.8-1-2.4-1c-0.9,0-1.3,1.1-1.6,3.1h-1.6
			c0.2-2.9,0.3-7,0.3-17L272.8,167.2L272.8,167.2z"/>
		<path class="st1" d="M336.3,133.5c2.7,0.1,5.7,0.2,8.2,0.2c2.4,0,3.9-0.1,5.3-0.2v1.4c-1.9,0.4-4,1.9-5.6,6.2L327.6,184H327
			c-0.2,0-0.3,0-0.6,0l-17.3-44.5c-1.4-3.6-3.4-4.5-4.9-4.5v-1.4c1.9,0.1,4.9,0.2,7.6,0.2c3.7,0,7.1-0.1,9.1-0.2v1.4
			c-3.4,0.1-5,0.7-5,2.6c0,0.8,0.3,1.9,0.8,3.3l12.8,34L341,145c0.9-2.4,1.4-4.3,1.4-5.8c0-3.1-2.1-4.2-6.2-4.3L336.3,133.5
			L336.3,133.5z"/>
		<path class="st1" d="M364.5,176.2c0,5.1,1.2,5.9,7.2,6.1v1.4c-2.5-0.1-6.6-0.2-10.4-0.2c-3.7,0-7.1,0.1-9.1,0.2v-1.5
			c4.8-0.2,5.7-0.9,5.7-6.1V141c0-5.1-0.9-5.9-5.7-6.1v-1.4c2,0.1,5.5,0.2,8.6,0.2c4.5,0,9-0.1,10.7-0.1c11.4,0,17.1,5.7,17.1,14
			c0,6.8-4,15.8-18.6,15.8h-5.5V176.2z M369.3,162c10,0,12.2-6.4,12.2-13.7c0-8.9-3.2-13.4-11.8-13.4c-4.3,0-5.3,1.2-5.3,6.1v20.9
			h4.9L369.3,162L369.3,162z"/>
	</g>
</g>
<rect x="121.1" y="305.3" class="st1" width="369.9" height="1.4"/>
<line class="st2" x1="39.1" y1="37.6" x2="39.1" y2="572.9"/>
</svg>
